<?xml version="1.0" encoding="UTF-8"?>
<svg version="1.1" viewBox="0 0 1728 1117" xmlns="http://www.w3.org/2000/svg">
<g fill="none" fill-rule="evenodd">
<g transform="translate(-2.5 694.25)" fill-rule="nonzero">
<polygon id="Path" points="20.625 9.375 18.75 9.375 16.875 9.375 15 9.375 13.125 9.375 11.25 9.375 9.375 9.375 7.5 9.375 5.625 9.375 3.75 9.375 1.875 9.375 0 9.375 0 7.5 0 5.625 1.875 5.625 3.75 5.625 5.625 5.625 7.5 5.625 9.375 5.625 11.25 5.625 13.125 5.625 15 5.625 16.875 5.625 18.75 5.625 20.625 5.625 22.5 5.625 22.5 7.5 22.5 9.375" fill="#03FF00"/>
<polygon id="Path" points="43.125 9.375 41.25 9.375 39.375 9.375 37.5 9.375 35.625 9.375 33.75 9.375 31.875 9.375 30 9.375 28.125 9.375 26.25 9.375 24.375 9.375 22.5 9.375 22.5 7.5 22.5 5.625 24.375 5.625 26.25 5.625 28.125 5.625 30 5.625 31.875 5.625 33.75 5.625 35.625 5.625 37.5 5.625 39.375 5.625 41.25 5.625 43.125 5.625 45 5.625 45 7.5 45 9.375" fill="#03FF00"/>
<polygon id="Path" points="65.625 9.375 63.75 9.375 61.875 9.375 60 9.375 58.125 9.375 56.25 9.375 54.375 9.375 52.5 9.375 50.625 9.375 48.75 9.375 46.875 9.375 45 9.375 45 7.5 45 5.625 46.875 5.625 48.75 5.625 50.625 5.625 52.5 5.625 54.375 5.625 56.25 5.625 58.125 5.625 60 5.625 61.875 5.625 63.75 5.625 65.625 5.625 67.5 5.625 67.5 7.5 67.5 9.375" fill="#03FF00"/>
<polygon id="Path" points="88.125 9.375 86.25 9.375 84.375 9.375 82.5 9.375 80.625 9.375 78.75 9.375 76.875 9.375 75 9.375 73.125 9.375 71.25 9.375 69.375 9.375 67.5 9.375 67.5 7.5 67.5 5.625 69.375 5.625 71.25 5.625 73.125 5.625 75 5.625 76.875 5.625 78.75 5.625 80.625 5.625 82.5 5.625 84.375 5.625 86.25 5.625 88.125 5.625 90 5.625 90 7.5 90 9.375" fill="#03FF00"/>
<polygon id="Path" points="110.62 9.375 108.75 9.375 106.88 9.375 105 9.375 103.12 9.375 101.25 9.375 99.375 9.375 97.5 9.375 95.625 9.375 93.75 9.375 91.875 9.375 90 9.375 90 7.5 90 5.625 91.875 5.625 93.75 5.625 95.625 5.625 97.5 5.625 99.375 5.625 101.25 5.625 103.12 5.625 105 5.625 106.88 5.625 108.75 5.625 110.62 5.625 112.5 5.625 112.5 7.5 112.5 9.375" fill="#03FF00"/>
<polygon id="Path" points="133.12 9.375 131.25 9.375 129.38 9.375 127.5 9.375 125.62 9.375 123.75 9.375 121.88 9.375 120 9.375 118.12 9.375 116.25 9.375 114.38 9.375 112.5 9.375 112.5 7.5 112.5 5.625 114.38 5.625 116.25 5.625 118.12 5.625 120 5.625 121.88 5.625 123.75 5.625 125.62 5.625 127.5 5.625 129.38 5.625 131.25 5.625 133.12 5.625 135 5.625 135 7.5 135 9.375" fill="#03FF00"/>
<polygon id="Path" points="155.62 9.375 153.75 9.375 151.88 9.375 150 9.375 148.12 9.375 146.25 9.375 144.38 9.375 142.5 9.375 140.62 9.375 138.75 9.375 136.88 9.375 135 9.375 135 7.5 135 5.625 136.88 5.625 138.75 5.625 140.62 5.625 142.5 5.625 144.38 5.625 146.25 5.625 148.12 5.625 150 5.625 151.88 5.625 153.75 5.625 155.62 5.625 157.5 5.625 157.5 7.5 157.5 9.375" fill="#03FF00"/>
<polygon id="Path" points="178.12 9.375 176.25 9.375 174.38 9.375 172.5 9.375 170.62 9.375 168.75 9.375 166.88 9.375 165 9.375 163.12 9.375 161.25 9.375 159.38 9.375 157.5 9.375 157.5 7.5 157.5 5.625 159.38 5.625 161.25 5.625 163.12 5.625 165 5.625 166.88 5.625 168.75 5.625 170.62 5.625 172.5 5.625 174.38 5.625 176.25 5.625 178.12 5.625 180 5.625 180 7.5 180 9.375" fill="#03FF00"/>
<polygon id="Path" points="200.62 9.375 198.75 9.375 196.88 9.375 195 9.375 193.12 9.375 191.25 9.375 189.38 9.375 187.5 9.375 185.62 9.375 183.75 9.375 181.88 9.375 180 9.375 180 7.5 180 5.625 181.88 5.625 183.75 5.625 185.62 5.625 187.5 5.625 189.38 5.625 191.25 5.625 193.12 5.625 195 5.625 196.88 5.625 198.75 5.625 200.62 5.625 202.5 5.625 202.5 7.5 202.5 9.375" fill="#03FF00"/>
<polygon id="Path" points="223.12 9.375 221.25 9.375 219.38 9.375 217.5 9.375 215.62 9.375 213.75 9.375 211.88 9.375 210 9.375 208.12 9.375 206.25 9.375 204.38 9.375 202.5 9.375 202.5 7.5 202.5 5.625 204.38 5.625 206.25 5.625 208.12 5.625 210 5.625 211.88 5.625 213.75 5.625 215.62 5.625 217.5 5.625 219.38 5.625 221.25 5.625 223.12 5.625 225 5.625 225 7.5 225 9.375" fill="#03FF00"/>
<polygon id="Path" points="245.62 9.375 243.75 9.375 241.88 9.375 240 9.375 238.12 9.375 236.25 9.375 234.38 9.375 232.5 9.375 230.62 9.375 228.75 9.375 226.88 9.375 225 9.375 225 7.5 225 5.625 226.88 5.625 228.75 5.625 230.62 5.625 232.5 5.625 234.38 5.625 236.25 5.625 238.12 5.625 240 5.625 241.88 5.625 243.75 5.625 245.62 5.625 247.5 5.625 247.5 7.5 247.5 9.375" fill="#03FF00"/>
<polygon id="Path" points="268.12 9.375 266.25 9.375 264.38 9.375 262.5 9.375 260.62 9.375 258.75 9.375 256.88 9.375 255 9.375 253.12 9.375 251.25 9.375 249.38 9.375 247.5 9.375 247.5 7.5 247.5 5.625 249.38 5.625 251.25 5.625 253.12 5.625 255 5.625 256.88 5.625 258.75 5.625 260.62 5.625 262.5 5.625 264.38 5.625 266.25 5.625 268.12 5.625 270 5.625 270 7.5 270 9.375" fill="#03FF00"/>
<polygon id="Path" points="290.62 9.375 288.75 9.375 286.88 9.375 285 9.375 283.12 9.375 281.25 9.375 279.38 9.375 277.5 9.375 275.62 9.375 273.75 9.375 271.88 9.375 270 9.375 270 7.5 270 5.625 271.88 5.625 273.75 5.625 275.62 5.625 277.5 5.625 279.38 5.625 281.25 5.625 283.12 5.625 285 5.625 286.88 5.625 288.75 5.625 290.62 5.625 292.5 5.625 292.5 7.5 292.5 9.375" fill="#03FF00"/>
<polygon id="Path" points="313.12 9.375 311.25 9.375 309.38 9.375 307.5 9.375 305.62 9.375 303.75 9.375 301.88 9.375 300 9.375 298.12 9.375 296.25 9.375 294.38 9.375 292.5 9.375 292.5 7.5 292.5 5.625 294.38 5.625 296.25 5.625 298.12 5.625 300 5.625 301.88 5.625 303.75 5.625 305.62 5.625 307.5 5.625 309.38 5.625 311.25 5.625 313.12 5.625 315 5.625 315 7.5 315 9.375" fill="#03FF00"/>
<polygon id="Path" points="335.62 9.375 333.75 9.375 331.88 9.375 330 9.375 328.12 9.375 326.25 9.375 324.38 9.375 322.5 9.375 320.62 9.375 318.75 9.375 316.88 9.375 315 9.375 315 7.5 315 5.625 316.88 5.625 318.75 5.625 320.62 5.625 322.5 5.625 324.38 5.625 326.25 5.625 328.12 5.625 330 5.625 331.88 5.625 333.75 5.625 335.62 5.625 337.5 5.625 337.5 7.5 337.5 9.375" fill="#03FF00"/>
<polygon id="Path" points="358.12 9.375 356.25 9.375 354.38 9.375 352.5 9.375 350.62 9.375 348.75 9.375 346.88 9.375 345 9.375 343.12 9.375 341.25 9.375 339.38 9.375 337.5 9.375 337.5 7.5 337.5 5.625 339.38 5.625 341.25 5.625 343.12 5.625 345 5.625 346.88 5.625 348.75 5.625 350.62 5.625 352.5 5.625 354.38 5.625 356.25 5.625 358.12 5.625 360 5.625 360 7.5 360 9.375" fill="#03FF00"/>
<polygon id="Path" points="380.62 9.375 378.75 9.375 376.88 9.375 375 9.375 373.12 9.375 371.25 9.375 369.38 9.375 367.5 9.375 365.62 9.375 363.75 9.375 361.88 9.375 360 9.375 360 7.5 360 5.625 361.88 5.625 363.75 5.625 365.62 5.625 367.5 5.625 369.38 5.625 371.25 5.625 373.12 5.625 375 5.625 376.88 5.625 378.75 5.625 380.62 5.625 382.5 5.625 382.5 7.5 382.5 9.375" fill="#03FF00"/>
<polygon id="Path" points="403.12 9.375 401.25 9.375 399.38 9.375 397.5 9.375 395.62 9.375 393.75 9.375 391.88 9.375 390 9.375 388.12 9.375 386.25 9.375 384.38 9.375 382.5 9.375 382.5 7.5 382.5 5.625 384.38 5.625 386.25 5.625 388.12 5.625 390 5.625 391.88 5.625 393.75 5.625 395.62 5.625 397.5 5.625 399.38 5.625 401.25 5.625 403.12 5.625 405 5.625 405 7.5 405 9.375" fill="#03FF00"/>
<polygon id="Path" points="425.62 9.375 423.75 9.375 421.88 9.375 420 9.375 418.12 9.375 416.25 9.375 414.38 9.375 412.5 9.375 410.62 9.375 408.75 9.375 406.88 9.375 405 9.375 405 7.5 405 5.625 406.88 5.625 408.75 5.625 410.62 5.625 412.5 5.625 414.38 5.625 416.25 5.625 418.12 5.625 420 5.625 421.88 5.625 423.75 5.625 425.62 5.625 427.5 5.625 427.5 7.5 427.5 9.375" fill="#03FF00"/>
<polygon id="Path" points="448.12 9.375 446.25 9.375 444.38 9.375 442.5 9.375 440.62 9.375 438.75 9.375 436.88 9.375 435 9.375 433.12 9.375 431.25 9.375 429.38 9.375 427.5 9.375 427.5 7.5 427.5 5.625 429.38 5.625 431.25 5.625 433.12 5.625 435 5.625 436.88 5.625 438.75 5.625 440.62 5.625 442.5 5.625 444.38 5.625 446.25 5.625 448.12 5.625 450 5.625 450 7.5 450 9.375" fill="#03FF00"/>
<polygon id="Path" points="470.62 9.375 468.75 9.375 466.88 9.375 465 9.375 463.12 9.375 461.25 9.375 459.38 9.375 457.5 9.375 455.62 9.375 453.75 9.375 451.88 9.375 450 9.375 450 7.5 450 5.625 451.88 5.625 453.75 5.625 455.62 5.625 457.5 5.625 459.38 5.625 461.25 5.625 463.12 5.625 465 5.625 466.88 5.625 468.75 5.625 470.62 5.625 472.5 5.625 472.5 7.5 472.5 9.375" fill="#03FF00"/>
<path id="Shape" d="m493.12 18.75v-1.875h1.875v1.875h-1.875zm0-1.875h-1.875v-1.875h1.875v1.875zm-1.875-1.875h-1.875v-1.875h1.875v1.875zm-1.875-1.875h-1.875v-1.875h1.875v1.875zm-1.875-1.875h-1.875v-1.875h1.875v1.875zm-1.875-1.875h-1.875-1.875-1.875-1.875-1.875-1.875-1.875v-1.875-1.875h1.875 1.875 1.875 1.875 1.875 1.875v1.875h1.875v1.875z" fill="#03FF00"/>
<polygon id="Path" points="515.62 9.375 513.75 9.375 511.88 9.375 510 9.375 508.12 9.375 506.25 9.375 504.38 9.375 502.5 9.375 500.62 9.375 498.75 9.375 496.88 9.375 495 9.375 495 7.5 495 5.625 496.88 5.625 498.75 5.625 500.62 5.625 502.5 5.625 504.38 5.625 506.25 5.625 508.12 5.625 510 5.625 511.88 5.625 513.75 5.625 515.62 5.625 517.5 5.625 517.5 7.5 517.5 9.375" fill="#C0C0C0"/>
<polygon id="Path" points="538.12 9.375 536.25 9.375 534.38 9.375 532.5 9.375 530.62 9.375 528.75 9.375 526.88 9.375 525 9.375 523.12 9.375 521.25 9.375 519.38 9.375 517.5 9.375 517.5 7.5 517.5 5.625 519.38 5.625 521.25 5.625 523.12 5.625 525 5.625 526.88 5.625 528.75 5.625 530.62 5.625 532.5 5.625 534.38 5.625 536.25 5.625 538.12 5.625 540 5.625 540 7.5 540 9.375" fill="#C0C0C0"/>
<polygon id="Path" points="560.62 9.375 558.75 9.375 556.88 9.375 555 9.375 553.12 9.375 551.25 9.375 549.38 9.375 547.5 9.375 545.62 9.375 543.75 9.375 541.88 9.375 540 9.375 540 7.5 540 5.625 541.88 5.625 543.75 5.625 545.62 5.625 547.5 5.625 549.38 5.625 551.25 5.625 553.12 5.625 555 5.625 556.88 5.625 558.75 5.625 560.62 5.625 562.5 5.625 562.5 7.5 562.5 9.375" fill="#C0C0C0"/>
<polygon id="Path" points="583.12 9.375 581.25 9.375 579.38 9.375 577.5 9.375 575.62 9.375 573.75 9.375 571.88 9.375 570 9.375 568.12 9.375 566.25 9.375 564.38 9.375 562.5 9.375 562.5 7.5 562.5 5.625 564.38 5.625 566.25 5.625 568.12 5.625 570 5.625 571.88 5.625 573.75 5.625 575.62 5.625 577.5 5.625 579.38 5.625 581.25 5.625 583.12 5.625 585 5.625 585 7.5 585 9.375" fill="#C0C0C0"/>
<polygon id="Path" points="605.62 9.375 603.75 9.375 601.88 9.375 600 9.375 598.12 9.375 596.25 9.375 594.38 9.375 592.5 9.375 590.62 9.375 588.75 9.375 586.88 9.375 585 9.375 585 7.5 585 5.625 586.88 5.625 588.75 5.625 590.62 5.625 592.5 5.625 594.38 5.625 596.25 5.625 598.12 5.625 600 5.625 601.88 5.625 603.75 5.625 605.62 5.625 607.5 5.625 607.5 7.5 607.5 9.375" fill="#C0C0C0"/>
<polygon id="Path" points="628.12 9.375 626.25 9.375 624.38 9.375 622.5 9.375 620.62 9.375 618.75 9.375 616.88 9.375 615 9.375 613.12 9.375 611.25 9.375 609.38 9.375 607.5 9.375 607.5 7.5 607.5 5.625 609.38 5.625 611.25 5.625 613.12 5.625 615 5.625 616.88 5.625 618.75 5.625 620.62 5.625 622.5 5.625 624.38 5.625 626.25 5.625 628.12 5.625 630 5.625 630 7.5 630 9.375" fill="#C0C0C0"/>
<polygon id="Path" points="650.62 9.375 648.75 9.375 646.88 9.375 645 9.375 643.12 9.375 641.25 9.375 639.38 9.375 637.5 9.375 635.62 9.375 633.75 9.375 631.88 9.375 630 9.375 630 7.5 630 5.625 631.88 5.625 633.75 5.625 635.62 5.625 637.5 5.625 639.38 5.625 641.25 5.625 643.12 5.625 645 5.625 646.88 5.625 648.75 5.625 650.62 5.625 652.5 5.625 652.5 7.5 652.5 9.375" fill="#C0C0C0"/>
<polygon id="Path" points="673.12 9.375 671.25 9.375 669.38 9.375 667.5 9.375 665.62 9.375 663.75 9.375 661.88 9.375 660 9.375 658.12 9.375 656.25 9.375 654.38 9.375 652.5 9.375 652.5 7.5 652.5 5.625 654.38 5.625 656.25 5.625 658.12 5.625 660 5.625 661.88 5.625 663.75 5.625 665.62 5.625 667.5 5.625 669.38 5.625 671.25 5.625 673.12 5.625 675 5.625 675 7.5 675 9.375" fill="#C0C0C0"/>
<polygon id="Path" points="695.62 9.375 693.75 9.375 691.88 9.375 690 9.375 688.12 9.375 686.25 9.375 684.38 9.375 682.5 9.375 680.62 9.375 678.75 9.375 676.88 9.375 675 9.375 675 7.5 675 5.625 676.88 5.625 678.75 5.625 680.62 5.625 682.5 5.625 684.38 5.625 686.25 5.625 688.12 5.625 690 5.625 691.88 5.625 693.75 5.625 695.62 5.625 697.5 5.625 697.5 7.5 697.5 9.375" fill="#C0C0C0"/>
<polygon id="Path" points="718.12 9.375 716.25 9.375 714.38 9.375 712.5 9.375 710.62 9.375 708.75 9.375 706.88 9.375 705 9.375 703.12 9.375 701.25 9.375 699.38 9.375 697.5 9.375 697.5 7.5 697.5 5.625 699.38 5.625 701.25 5.625 703.12 5.625 705 5.625 706.88 5.625 708.75 5.625 710.62 5.625 712.5 5.625 714.38 5.625 716.25 5.625 718.12 5.625 720 5.625 720 7.5 720 9.375" fill="#C0C0C0"/>
<polygon id="Path" points="740.62 9.375 738.75 9.375 736.88 9.375 735 9.375 733.12 9.375 731.25 9.375 729.38 9.375 727.5 9.375 725.62 9.375 723.75 9.375 721.88 9.375 720 9.375 720 7.5 720 5.625 721.88 5.625 723.75 5.625 725.62 5.625 727.5 5.625 729.38 5.625 731.25 5.625 733.12 5.625 735 5.625 736.88 5.625 738.75 5.625 740.62 5.625 742.5 5.625 742.5 7.5 742.5 9.375" fill="#C0C0C0"/>
<polygon id="Path" points="763.12 9.375 761.25 9.375 759.38 9.375 757.5 9.375 755.62 9.375 753.75 9.375 751.88 9.375 750 9.375 748.12 9.375 746.25 9.375 744.38 9.375 742.5 9.375 742.5 7.5 742.5 5.625 744.38 5.625 746.25 5.625 748.12 5.625 750 5.625 751.88 5.625 753.75 5.625 755.62 5.625 757.5 5.625 759.38 5.625 761.25 5.625 763.12 5.625 765 5.625 765 7.5 765 9.375" fill="#C0C0C0"/>
<polygon id="Path" points="785.62 9.375 783.75 9.375 781.88 9.375 780 9.375 778.12 9.375 776.25 9.375 774.38 9.375 772.5 9.375 770.62 9.375 768.75 9.375 766.88 9.375 765 9.375 765 7.5 765 5.625 766.88 5.625 768.75 5.625 770.62 5.625 772.5 5.625 774.38 5.625 776.25 5.625 778.12 5.625 780 5.625 781.88 5.625 783.75 5.625 785.62 5.625 787.5 5.625 787.5 7.5 787.5 9.375" fill="#C0C0C0"/>
<polygon id="Path" points="808.12 9.375 806.25 9.375 804.38 9.375 802.5 9.375 800.62 9.375 798.75 9.375 796.88 9.375 795 9.375 793.12 9.375 791.25 9.375 789.38 9.375 787.5 9.375 787.5 7.5 787.5 5.625 789.38 5.625 791.25 5.625 793.12 5.625 795 5.625 796.88 5.625 798.75 5.625 800.62 5.625 802.5 5.625 804.38 5.625 806.25 5.625 808.12 5.625 810 5.625 810 7.5 810 9.375" fill="#C0C0C0"/>
<polygon id="Path" points="830.62 9.375 828.75 9.375 826.88 9.375 825 9.375 823.12 9.375 821.25 9.375 819.38 9.375 817.5 9.375 815.62 9.375 813.75 9.375 811.88 9.375 810 9.375 810 7.5 810 5.625 811.88 5.625 813.75 5.625 815.62 5.625 817.5 5.625 819.38 5.625 821.25 5.625 823.12 5.625 825 5.625 826.88 5.625 828.75 5.625 830.62 5.625 832.5 5.625 832.5 7.5 832.5 9.375" fill="#C0C0C0"/>
<polygon id="Path" points="853.12 9.375 851.25 9.375 849.38 9.375 847.5 9.375 845.62 9.375 843.75 9.375 841.88 9.375 840 9.375 838.12 9.375 836.25 9.375 834.38 9.375 832.5 9.375 832.5 7.5 832.5 5.625 834.38 5.625 836.25 5.625 838.12 5.625 840 5.625 841.88 5.625 843.75 5.625 845.62 5.625 847.5 5.625 849.38 5.625 851.25 5.625 853.12 5.625 855 5.625 855 7.5 855 9.375" fill="#C0C0C0"/>
<polygon id="Path" points="875.62 9.375 873.75 9.375 871.88 9.375 870 9.375 868.12 9.375 866.25 9.375 864.38 9.375 862.5 9.375 860.62 9.375 858.75 9.375 856.88 9.375 855 9.375 855 7.5 855 5.625 856.88 5.625 858.75 5.625 860.62 5.625 862.5 5.625 864.38 5.625 866.25 5.625 868.12 5.625 870 5.625 871.88 5.625 873.75 5.625 875.62 5.625 877.5 5.625 877.5 7.5 877.5 9.375" fill="#C0C0C0"/>
<polygon id="Path" points="898.12 9.375 896.25 9.375 894.38 9.375 892.5 9.375 890.62 9.375 888.75 9.375 886.88 9.375 885 9.375 883.12 9.375 881.25 9.375 879.38 9.375 877.5 9.375 877.5 7.5 877.5 5.625 879.38 5.625 881.25 5.625 883.12 5.625 885 5.625 886.88 5.625 888.75 5.625 890.62 5.625 892.5 5.625 894.38 5.625 896.25 5.625 898.12 5.625 900 5.625 900 7.5 900 9.375" fill="#C0C0C0"/>
<polygon id="Path" points="920.62 9.375 918.75 9.375 916.88 9.375 915 9.375 913.12 9.375 911.25 9.375 909.38 9.375 907.5 9.375 905.62 9.375 903.75 9.375 901.88 9.375 900 9.375 900 7.5 900 5.625 901.88 5.625 903.75 5.625 905.62 5.625 907.5 5.625 909.38 5.625 911.25 5.625 913.12 5.625 915 5.625 916.88 5.625 918.75 5.625 920.62 5.625 922.5 5.625 922.5 7.5 922.5 9.375" fill="#C0C0C0"/>
<polygon id="Path" points="943.12 9.375 941.25 9.375 939.38 9.375 937.5 9.375 935.62 9.375 933.75 9.375 931.88 9.375 930 9.375 928.12 9.375 926.25 9.375 924.38 9.375 922.5 9.375 922.5 7.5 922.5 5.625 924.38 5.625 926.25 5.625 928.12 5.625 930 5.625 931.88 5.625 933.75 5.625 935.62 5.625 937.5 5.625 939.38 5.625 941.25 5.625 943.12 5.625 945 5.625 945 7.5 945 9.375" fill="#C0C0C0"/>
<polygon id="Path" points="965.62 9.375 963.75 9.375 961.88 9.375 960 9.375 958.12 9.375 956.25 9.375 954.38 9.375 952.5 9.375 950.62 9.375 948.75 9.375 946.88 9.375 945 9.375 945 7.5 945 5.625 946.88 5.625 948.75 5.625 950.62 5.625 952.5 5.625 954.38 5.625 956.25 5.625 958.12 5.625 960 5.625 961.88 5.625 963.75 5.625 965.62 5.625 967.5 5.625 967.5 7.5 967.5 9.375" fill="#C0C0C0"/>
<polygon id="Path" points="988.12 9.375 986.25 9.375 984.38 9.375 982.5 9.375 980.62 9.375 978.75 9.375 976.88 9.375 975 9.375 973.12 9.375 971.25 9.375 969.38 9.375 967.5 9.375 967.5 7.5 967.5 5.625 969.38 5.625 971.25 5.625 973.12 5.625 975 5.625 976.88 5.625 978.75 5.625 980.62 5.625 982.5 5.625 984.38 5.625 986.25 5.625 988.12 5.625 990 5.625 990 7.5 990 9.375" fill="#EDFF00"/>
<polygon id="Path" points="1010.6 9.375 1008.8 9.375 1006.9 9.375 1005 9.375 1003.1 9.375 1001.2 9.375 999.38 9.375 997.5 9.375 995.62 9.375 993.75 9.375 991.88 9.375 990 9.375 990 7.5 990 5.625 991.88 5.625 993.75 5.625 995.62 5.625 997.5 5.625 999.38 5.625 1001.2 5.625 1003.1 5.625 1005 5.625 1006.9 5.625 1008.8 5.625 1010.6 5.625 1012.5 5.625 1012.5 7.5 1012.5 9.375" fill="#C0C0C0"/>
<polygon id="Path" points="1033.1 9.375 1031.2 9.375 1029.4 9.375 1027.5 9.375 1025.6 9.375 1023.8 9.375 1021.9 9.375 1020 9.375 1018.1 9.375 1016.2 9.375 1014.4 9.375 1012.5 9.375 1012.5 7.5 1012.5 5.625 1014.4 5.625 1016.2 5.625 1018.1 5.625 1020 5.625 1021.9 5.625 1023.8 5.625 1025.6 5.625 1027.5 5.625 1029.4 5.625 1031.2 5.625 1033.1 5.625 1035 5.625 1035 7.5 1035 9.375" fill="#C0C0C0"/>
<polygon id="Path" points="1055.6 9.375 1053.8 9.375 1051.9 9.375 1050 9.375 1048.1 9.375 1046.2 9.375 1044.4 9.375 1042.5 9.375 1040.6 9.375 1038.8 9.375 1036.9 9.375 1035 9.375 1035 7.5 1035 5.625 1036.9 5.625 1038.8 5.625 1040.6 5.625 1042.5 5.625 1044.4 5.625 1046.2 5.625 1048.1 5.625 1050 5.625 1051.9 5.625 1053.8 5.625 1055.6 5.625 1057.5 5.625 1057.5 7.5 1057.5 9.375" fill="#C0C0C0"/>
<polygon id="Path" points="1078.1 9.375 1076.2 9.375 1074.4 9.375 1072.5 9.375 1070.6 9.375 1068.8 9.375 1066.9 9.375 1065 9.375 1063.1 9.375 1061.2 9.375 1059.4 9.375 1057.5 9.375 1057.5 7.5 1057.5 5.625 1059.4 5.625 1061.2 5.625 1063.1 5.625 1065 5.625 1066.9 5.625 1068.8 5.625 1070.6 5.625 1072.5 5.625 1074.4 5.625 1076.2 5.625 1078.1 5.625 1080 5.625 1080 7.5 1080 9.375" fill="#C0C0C0"/>
<polygon id="Path" points="1100.6 9.375 1098.8 9.375 1096.9 9.375 1095 9.375 1093.1 9.375 1091.2 9.375 1089.4 9.375 1087.5 9.375 1085.6 9.375 1083.8 9.375 1081.9 9.375 1080 9.375 1080 7.5 1080 5.625 1081.9 5.625 1083.8 5.625 1085.6 5.625 1087.5 5.625 1089.4 5.625 1091.2 5.625 1093.1 5.625 1095 5.625 1096.9 5.625 1098.8 5.625 1100.6 5.625 1102.5 5.625 1102.5 7.5 1102.5 9.375" fill="#C0C0C0"/>
<polygon id="Path" points="1123.1 9.375 1121.2 9.375 1119.4 9.375 1117.5 9.375 1115.6 9.375 1113.8 9.375 1111.9 9.375 1110 9.375 1108.1 9.375 1106.2 9.375 1104.4 9.375 1102.5 9.375 1102.5 7.5 1102.5 5.625 1104.4 5.625 1106.2 5.625 1108.1 5.625 1110 5.625 1111.9 5.625 1113.8 5.625 1115.6 5.625 1117.5 5.625 1119.4 5.625 1121.2 5.625 1123.1 5.625 1125 5.625 1125 7.5 1125 9.375" fill="#C0C0C0"/>
<polygon id="Path" points="1145.6 9.375 1143.8 9.375 1141.9 9.375 1140 9.375 1138.1 9.375 1136.2 9.375 1134.4 9.375 1132.5 9.375 1130.6 9.375 1128.8 9.375 1126.9 9.375 1125 9.375 1125 7.5 1125 5.625 1126.9 5.625 1128.8 5.625 1130.6 5.625 1132.5 5.625 1134.4 5.625 1136.2 5.625 1138.1 5.625 1140 5.625 1141.9 5.625 1143.8 5.625 1145.6 5.625 1147.5 5.625 1147.5 7.5 1147.5 9.375" fill="#C0C0C0"/>
<polygon id="Path" points="1168.1 9.375 1166.2 9.375 1164.4 9.375 1162.5 9.375 1160.6 9.375 1158.8 9.375 1156.9 9.375 1155 9.375 1153.1 9.375 1151.2 9.375 1149.4 9.375 1147.5 9.375 1147.5 7.5 1147.5 5.625 1149.4 5.625 1151.2 5.625 1153.1 5.625 1155 5.625 1156.9 5.625 1158.8 5.625 1160.6 5.625 1162.5 5.625 1164.4 5.625 1166.2 5.625 1168.1 5.625 1170 5.625 1170 7.5 1170 9.375" fill="#C0C0C0"/>
<polygon id="Path" points="1190.6 9.375 1188.8 9.375 1186.9 9.375 1185 9.375 1183.1 9.375 1181.2 9.375 1179.4 9.375 1177.5 9.375 1175.6 9.375 1173.8 9.375 1171.9 9.375 1170 9.375 1170 7.5 1170 5.625 1171.9 5.625 1173.8 5.625 1175.6 5.625 1177.5 5.625 1179.4 5.625 1181.2 5.625 1183.1 5.625 1185 5.625 1186.9 5.625 1188.8 5.625 1190.6 5.625 1192.5 5.625 1192.5 7.5 1192.5 9.375" fill="#C0C0C0"/>
<polygon id="Path" points="1213.1 9.375 1211.2 9.375 1209.4 9.375 1207.5 9.375 1205.6 9.375 1203.8 9.375 1201.9 9.375 1200 9.375 1198.1 9.375 1196.2 9.375 1194.4 9.375 1192.5 9.375 1192.5 7.5 1192.5 5.625 1194.4 5.625 1196.2 5.625 1198.1 5.625 1200 5.625 1201.9 5.625 1203.8 5.625 1205.6 5.625 1207.5 5.625 1209.4 5.625 1211.2 5.625 1213.1 5.625 1215 5.625 1215 7.5 1215 9.375" fill="#C0C0C0"/>
<polygon id="Path" points="1235.6 9.375 1233.8 9.375 1231.9 9.375 1230 9.375 1228.1 9.375 1226.2 9.375 1224.4 9.375 1222.5 9.375 1220.6 9.375 1218.8 9.375 1216.9 9.375 1215 9.375 1215 7.5 1215 5.625 1216.9 5.625 1218.8 5.625 1220.6 5.625 1222.5 5.625 1224.4 5.625 1226.2 5.625 1228.1 5.625 1230 5.625 1231.9 5.625 1233.8 5.625 1235.6 5.625 1237.5 5.625 1237.5 7.5 1237.5 9.375" fill="#C0C0C0"/>
<polygon id="Path" points="1248.8 15 1246.9 15 1246.9 13.125 1246.9 11.25 1246.9 9.375 1245 9.375 1243.1 9.375 1241.2 9.375 1239.4 9.375 1237.5 9.375 1237.5 7.5 1237.5 5.625 1239.4 5.625 1241.2 5.625 1243.1 5.625 1245 5.625 1246.9 5.625 1246.9 3.75 1246.9 1.875 1246.9 0 1248.8 0 1250.6 0 1250.6 1.875 1250.6 3.75 1250.6 5.625 1250.6 7.5 1250.6 9.375 1250.6 11.25 1250.6 13.125 1250.6 15" fill="#C0C0C0"/>
<path id="Shape" d="m515.62 41.75v-1.875h1.875v1.875h-1.875zm0-1.875h-1.875v-1.875h1.875v1.875zm-1.875-1.875h-1.875v-1.875h1.875v1.875zm-1.875-1.875h-1.875v-1.875h1.875v1.875zm-1.875-1.875h-1.875v-1.875h1.875v1.875zm-1.875-1.875h-1.875v-1.875h1.875v1.875zm-1.875-1.875h-1.875v-1.875h1.875v1.875zm-1.875-1.875h-1.875v-1.875h1.875v1.875zm-1.875-1.875h-1.875v-1.875h1.875v1.875zm-1.875-1.875h-1.875v-1.875h1.875v1.875zm-1.875-1.875h-1.875v-1.875h1.875v1.875zm-1.875-1.875h-1.875v-1.875h1.875v1.875z" fill="#03FF00"/>
<path id="Shape" d="m1010.6 41.75v-1.875h1.875v1.875h-1.875zm0-1.875h-1.875v-1.875h1.875v1.875zm-1.875-1.875h-1.875v-1.875h1.875v1.875zm-1.875-1.875h-1.875v-1.875h1.875v1.875zm-1.875-1.875h-1.875v-1.875h1.875v1.875zm-1.875-1.875h-1.875v-1.875h1.875v1.875zm-1.875-1.875h-1.875v-1.875h1.875v1.875zm-1.875-1.875h-1.875v-1.875h1.875v1.875zm-1.875-1.875h-1.875v-1.875h1.875v1.875zm-1.875-1.875h-1.875v-1.875h1.875v1.875zm-1.875-1.875h-1.875v-1.875h1.875v1.875zm-1.875-1.875h-1.875v-1.875h1.875v1.875z" fill="#C0C0C0"/>
<path id="Shape" d="m538.12 55.375h-1.875-1.875-1.875-1.875-1.875v-1.875h-1.875v-1.875h1.875 1.875 1.875 1.875 1.875 1.875 1.875v1.875 1.875h-1.875zm-11.25-3.75h-1.875v-1.875h1.875v1.875zm-1.875-1.875h-1.875v-1.875h1.875v1.875zm-1.875-1.875h-1.875v-1.875h1.875v1.875zm-1.875-1.875h-1.875v-1.875h1.875v1.875zm-1.875-1.875h-1.875v-1.875h1.875v1.875z" fill="#03FF00"/>
<path id="Shape" d="m558.75 61h-1.875v-1.875h-1.875-1.875v-1.875h-1.875-1.875v-1.875h-1.875-1.875v-1.875h-1.875-1.875v-1.875h1.875 1.875v-1.875h1.875 1.875v-1.875h1.875 1.875v-1.875h1.875 1.875v-1.875h1.875 1.875v1.875 1.875 1.875 1.875 1.875 1.875 1.875 1.875 1.875h-1.875zm0-1.875v-1.875-1.875-1.875-1.875-1.875-1.875-1.875h-1.875v1.875h-1.875-1.875v1.875h-1.875-1.875v1.875h-1.875-1.875v1.875h1.875 1.875v1.875h1.875 1.875v1.875h1.875 1.875v1.875h1.875z" fill="#03FF00"/>
<polygon id="Path" points="583.12 55.375 581.25 55.375 579.38 55.375 577.5 55.375 575.62 55.375 573.75 55.375 571.88 55.375 570 55.375 568.12 55.375 566.25 55.375 564.38 55.375 562.5 55.375 562.5 53.5 562.5 51.625 564.38 51.625 566.25 51.625 568.12 51.625 570 51.625 571.88 51.625 573.75 51.625 575.62 51.625 577.5 51.625 579.38 51.625 581.25 51.625 583.12 51.625 585 51.625 585 53.5 585 55.375" fill="#f00"/>
<polygon id="Path" points="605.62 55.375 603.75 55.375 601.88 55.375 600 55.375 598.12 55.375 596.25 55.375 594.38 55.375 592.5 55.375 590.62 55.375 588.75 55.375 586.88 55.375 585 55.375 585 53.5 585 51.625 586.88 51.625 588.75 51.625 590.62 51.625 592.5 51.625 594.38 51.625 596.25 51.625 598.12 51.625 600 51.625 601.88 51.625 603.75 51.625 605.62 51.625 607.5 51.625 607.5 53.5 607.5 55.375" fill="#f00"/>
<polygon id="Path" points="628.12 55.375 626.25 55.375 624.38 55.375 622.5 55.375 620.62 55.375 618.75 55.375 616.88 55.375 615 55.375 613.12 55.375 611.25 55.375 609.38 55.375 607.5 55.375 607.5 53.5 607.5 51.625 609.38 51.625 611.25 51.625 613.12 51.625 615 51.625 616.88 51.625 618.75 51.625 620.62 51.625 622.5 51.625 624.38 51.625 626.25 51.625 628.12 51.625 630 51.625 630 53.5 630 55.375" fill="#f00"/>
<polygon id="Path" points="650.62 55.375 648.75 55.375 646.88 55.375 645 55.375 643.12 55.375 641.25 55.375 639.38 55.375 637.5 55.375 635.62 55.375 633.75 55.375 631.88 55.375 630 55.375 630 53.5 630 51.625 631.88 51.625 633.75 51.625 635.62 51.625 637.5 51.625 639.38 51.625 641.25 51.625 643.12 51.625 645 51.625 646.88 51.625 648.75 51.625 650.62 51.625 652.5 51.625 652.5 53.5 652.5 55.375" fill="#f00"/>
<polygon id="Path" points="673.12 55.375 671.25 55.375 669.38 55.375 667.5 55.375 665.62 55.375 663.75 55.375 661.88 55.375 660 55.375 658.12 55.375 656.25 55.375 654.38 55.375 652.5 55.375 652.5 53.5 652.5 51.625 654.38 51.625 656.25 51.625 658.12 51.625 660 51.625 661.88 51.625 663.75 51.625 665.62 51.625 667.5 51.625 669.38 51.625 671.25 51.625 673.12 51.625 675 51.625 675 53.5 675 55.375" fill="#f00"/>
<polygon id="Path" points="686.25 61 684.38 61 684.38 59.125 684.38 57.25 684.38 55.375 682.5 55.375 680.62 55.375 678.75 55.375 676.88 55.375 675 55.375 675 53.5 675 51.625 676.88 51.625 678.75 51.625 680.62 51.625 682.5 51.625 684.38 51.625 684.38 49.75 684.38 47.875 684.38 46 686.25 46 688.12 46 688.12 47.875 688.12 49.75 688.12 51.625 688.12 53.5 688.12 55.375 688.12 57.25 688.12 59.125 688.12 61" fill="#C0C0C0"/>
<path id="Shape" d="m1033.1 64.75v-1.875h1.875v1.875h-1.875zm0-1.875h-1.875v-1.875h1.875v1.875zm-1.875-1.875h-1.875v-1.875h1.875v1.875zm-1.875-1.875h-1.875v-1.875h1.875v1.875zm-1.875-1.875h-1.875v-1.875h1.875v1.875zm-1.875-1.875h-1.875v-1.875h1.875v1.875zm-1.875-1.875h-1.875v-1.875h1.875v1.875zm-1.875-1.875h-1.875v-1.875h1.875v1.875zm-1.875-1.875h-1.875v-1.875h1.875v1.875zm-1.875-1.875h-1.875v-1.875h1.875v1.875zm-1.875-1.875h-1.875v-1.875h1.875v1.875zm-1.875-1.875h-1.875v-1.875h1.875v1.875z" fill="#C0C0C0"/>
<path id="Shape" d="m1055.6 87.75v-1.875h1.875v1.875h-1.875zm0-1.875h-1.875v-1.875h1.875v1.875zm-1.875-1.875h-1.875v-1.875h1.875v1.875zm-1.875-1.875h-1.875v-1.875h1.875v1.875zm-1.875-1.875h-1.875v-1.875h1.875v1.875zm-1.875-1.875h-1.875v-1.875h1.875v1.875zm-1.875-1.875h-1.875v-1.875h1.875v1.875zm-1.875-1.875h-1.875v-1.875h1.875v1.875zm-1.875-1.875h-1.875v-1.875h1.875v1.875zm-1.875-1.875h-1.875v-1.875h1.875v1.875zm-1.875-1.875h-1.875v-1.875h1.875v1.875zm-1.875-1.875h-1.875v-1.875h1.875v1.875z" fill="#C0C0C0"/>
<path id="Shape" d="m1078.1 110.75v-1.875h1.875v1.875h-1.875zm0-1.875h-1.875v-1.875h1.875v1.875zm-1.875-1.875h-1.875v-1.875h1.875v1.875zm-1.875-1.875h-1.875v-1.875h1.875v1.875zm-1.875-1.875h-1.875v-1.875h1.875v1.875zm-1.875-1.875h-1.875v-1.875h1.875v1.875zm-1.875-1.875h-1.875v-1.875h1.875v1.875zm-1.875-1.875h-1.875v-1.875h1.875v1.875zm-1.875-1.875h-1.875v-1.875h1.875v1.875zm-1.875-1.875h-1.875v-1.875h1.875v1.875zm-1.875-1.875h-1.875v-1.875h1.875v1.875zm-1.875-1.875h-1.875v-1.875h1.875v1.875z" fill="#C0C0C0"/>
<path id="Shape" d="m1100.6 133.75v-1.875h1.875v1.875h-1.875zm0-1.875h-1.875v-1.875h1.875v1.875zm-1.875-1.875h-1.875v-1.875h1.875v1.875zm-1.875-1.875h-1.875v-1.875h1.875v1.875zm-1.875-1.875h-1.875v-1.875h1.875v1.875zm-1.875-1.875h-1.875v-1.875h1.875v1.875zm-1.875-1.875h-1.875v-1.875h1.875v1.875zm-1.875-1.875h-1.875v-1.875h1.875v1.875zm-1.875-1.875h-1.875v-1.875h1.875v1.875zm-1.875-1.875h-1.875v-1.875h1.875v1.875zm-1.875-1.875h-1.875v-1.875h1.875v1.875zm-1.875-1.875h-1.875v-1.875h1.875v1.875z" fill="#C0C0C0"/>
<path id="Shape" d="m1123.1 156.75v-1.875h1.875v1.875h-1.875zm0-1.875h-1.875v-1.875h1.875v1.875zm-1.875-1.875h-1.875v-1.875h1.875v1.875zm-1.875-1.875h-1.875v-1.875h1.875v1.875zm-1.875-1.875h-1.875v-1.875h1.875v1.875zm-1.875-1.875h-1.875v-1.875h1.875v1.875zm-1.875-1.875h-1.875v-1.875h1.875v1.875zm-1.875-1.875h-1.875v-1.875h1.875v1.875zm-1.875-1.875h-1.875v-1.875h1.875v1.875zm-1.875-1.875h-1.875v-1.875h1.875v1.875zm-1.875-1.875h-1.875v-1.875h1.875v1.875zm-1.875-1.875h-1.875v-1.875h1.875v1.875z" fill="#C0C0C0"/>
<path id="Shape" d="m1080 179.75v-1.875h1.875v1.875h-1.875zm1.875-1.875v-1.875h1.875v1.875h-1.875zm1.875-1.875v-1.875h1.875v1.875h-1.875zm1.875-1.875v-1.875h1.875v1.875h-1.875zm1.875-1.875v-1.875h1.875v1.875h-1.875zm13.125-1.875h-1.875-1.875-1.875-1.875-1.875-1.875v-1.875h1.875v-1.875h1.875 1.875 1.875 1.875 1.875 1.875v1.875 1.875h-1.875z" fill="#03FF00"/>
<polygon id="Path" points="1123.1 170.38 1121.2 170.38 1119.4 170.38 1117.5 170.38 1115.6 170.38 1113.8 170.38 1111.9 170.38 1110 170.38 1108.1 170.38 1106.2 170.38 1104.4 170.38 1102.5 170.38 1102.5 168.5 1102.5 166.62 1104.4 166.62 1106.2 166.62 1108.1 166.62 1110 166.62 1111.9 166.62 1113.8 166.62 1115.6 166.62 1117.5 166.62 1119.4 166.62 1121.2 166.62 1123.1 166.62 1125 166.62 1125 168.5 1125 170.38" fill="#03FF00"/>
<polygon id="Path" points="1145.6 170.38 1143.8 170.38 1141.9 170.38 1140 170.38 1138.1 170.38 1136.2 170.38 1134.4 170.38 1132.5 170.38 1130.6 170.38 1128.8 170.38 1126.9 170.38 1125 170.38 1125 168.5 1125 166.62 1126.9 166.62 1128.8 166.62 1130.6 166.62 1132.5 166.62 1134.4 166.62 1136.2 166.62 1138.1 166.62 1140 166.62 1141.9 166.62 1143.8 166.62 1145.6 166.62 1147.5 166.62 1147.5 168.5 1147.5 170.38" fill="#03FF00"/>
<polygon id="Path" points="1168.1 170.38 1166.2 170.38 1164.4 170.38 1162.5 170.38 1160.6 170.38 1158.8 170.38 1156.9 170.38 1155 170.38 1153.1 170.38 1151.2 170.38 1149.4 170.38 1147.5 170.38 1147.5 168.5 1147.5 166.62 1149.4 166.62 1151.2 166.62 1153.1 166.62 1155 166.62 1156.9 166.62 1158.8 166.62 1160.6 166.62 1162.5 166.62 1164.4 166.62 1166.2 166.62 1168.1 166.62 1170 166.62 1170 168.5 1170 170.38" fill="#03FF00"/>
<polygon id="Path" points="1190.6 170.38 1188.8 170.38 1186.9 170.38 1185 170.38 1183.1 170.38 1181.2 170.38 1179.4 170.38 1177.5 170.38 1175.6 170.38 1173.8 170.38 1171.9 170.38 1170 170.38 1170 168.5 1170 166.62 1171.9 166.62 1173.8 166.62 1175.6 166.62 1177.5 166.62 1179.4 166.62 1181.2 166.62 1183.1 166.62 1185 166.62 1186.9 166.62 1188.8 166.62 1190.6 166.62 1192.5 166.62 1192.5 168.5 1192.5 170.38" fill="#03FF00"/>
<polygon id="Path" points="1213.1 170.38 1211.2 170.38 1209.4 170.38 1207.5 170.38 1205.6 170.38 1203.8 170.38 1201.9 170.38 1200 170.38 1198.1 170.38 1196.2 170.38 1194.4 170.38 1192.5 170.38 1192.5 168.5 1192.5 166.62 1194.4 166.62 1196.2 166.62 1198.1 166.62 1200 166.62 1201.9 166.62 1203.8 166.62 1205.6 166.62 1207.5 166.62 1209.4 166.62 1211.2 166.62 1213.1 166.62 1215 166.62 1215 168.5 1215 170.38" fill="#03FF00"/>
<polygon id="Path" points="1235.6 170.38 1233.8 170.38 1231.9 170.38 1230 170.38 1228.1 170.38 1226.2 170.38 1224.4 170.38 1222.5 170.38 1220.6 170.38 1218.8 170.38 1216.9 170.38 1215 170.38 1215 168.5 1215 166.62 1216.9 166.62 1218.8 166.62 1220.6 166.62 1222.5 166.62 1224.4 166.62 1226.2 166.62 1228.1 166.62 1230 166.62 1231.9 166.62 1233.8 166.62 1235.6 166.62 1237.5 166.62 1237.5 168.5 1237.5 170.38" fill="#03FF00"/>
<polygon id="Path" points="1258.1 170.38 1256.2 170.38 1254.4 170.38 1252.5 170.38 1250.6 170.38 1248.8 170.38 1246.9 170.38 1245 170.38 1243.1 170.38 1241.2 170.38 1239.4 170.38 1237.5 170.38 1237.5 168.5 1237.5 166.62 1239.4 166.62 1241.2 166.62 1243.1 166.62 1245 166.62 1246.9 166.62 1248.8 166.62 1250.6 166.62 1252.5 166.62 1254.4 166.62 1256.2 166.62 1258.1 166.62 1260 166.62 1260 168.5 1260 170.38" fill="#03FF00"/>
<polygon id="Path" points="1280.6 170.38 1278.8 170.38 1276.9 170.38 1275 170.38 1273.1 170.38 1271.2 170.38 1269.4 170.38 1267.5 170.38 1265.6 170.38 1263.8 170.38 1261.9 170.38 1260 170.38 1260 168.5 1260 166.62 1261.9 166.62 1263.8 166.62 1265.6 166.62 1267.5 166.62 1269.4 166.62 1271.2 166.62 1273.1 166.62 1275 166.62 1276.9 166.62 1278.8 166.62 1280.6 166.62 1282.5 166.62 1282.5 168.5 1282.5 170.38" fill="#03FF00"/>
<polygon id="Path" points="1303.1 170.38 1301.2 170.38 1299.4 170.38 1297.5 170.38 1295.6 170.38 1293.8 170.38 1291.9 170.38 1290 170.38 1288.1 170.38 1286.2 170.38 1284.4 170.38 1282.5 170.38 1282.5 168.5 1282.5 166.62 1284.4 166.62 1286.2 166.62 1288.1 166.62 1290 166.62 1291.9 166.62 1293.8 166.62 1295.6 166.62 1297.5 166.62 1299.4 166.62 1301.2 166.62 1303.1 166.62 1305 166.62 1305 168.5 1305 170.38" fill="#03FF00"/>
<polygon id="Path" points="1325.6 170.38 1323.8 170.38 1321.9 170.38 1320 170.38 1318.1 170.38 1316.2 170.38 1314.4 170.38 1312.5 170.38 1310.6 170.38 1308.8 170.38 1306.9 170.38 1305 170.38 1305 168.5 1305 166.62 1306.9 166.62 1308.8 166.62 1310.6 166.62 1312.5 166.62 1314.4 166.62 1316.2 166.62 1318.1 166.62 1320 166.62 1321.9 166.62 1323.8 166.62 1325.6 166.62 1327.5 166.62 1327.5 168.5 1327.5 170.38" fill="#03FF00"/>
<polygon id="Path" points="1348.1 170.38 1346.2 170.38 1344.4 170.38 1342.5 170.38 1340.6 170.38 1338.8 170.38 1336.9 170.38 1335 170.38 1333.1 170.38 1331.2 170.38 1329.4 170.38 1327.5 170.38 1327.5 168.5 1327.5 166.62 1329.4 166.62 1331.2 166.62 1333.1 166.62 1335 166.62 1336.9 166.62 1338.8 166.62 1340.6 166.62 1342.5 166.62 1344.4 166.62 1346.2 166.62 1348.1 166.62 1350 166.62 1350 168.5 1350 170.38" fill="#03FF00"/>
<polygon id="Path" points="1370.6 170.38 1368.8 170.38 1366.9 170.38 1365 170.38 1363.1 170.38 1361.2 170.38 1359.4 170.38 1357.5 170.38 1355.6 170.38 1353.8 170.38 1351.9 170.38 1350 170.38 1350 168.5 1350 166.62 1351.9 166.62 1353.8 166.62 1355.6 166.62 1357.5 166.62 1359.4 166.62 1361.2 166.62 1363.1 166.62 1365 166.62 1366.9 166.62 1368.8 166.62 1370.6 166.62 1372.5 166.62 1372.5 168.5 1372.5 170.38" fill="#03FF00"/>
<polygon id="Path" points="1393.1 170.38 1391.2 170.38 1389.4 170.38 1387.5 170.38 1385.6 170.38 1383.8 170.38 1381.9 170.38 1380 170.38 1378.1 170.38 1376.2 170.38 1374.4 170.38 1372.5 170.38 1372.5 168.5 1372.5 166.62 1374.4 166.62 1376.2 166.62 1378.1 166.62 1380 166.62 1381.9 166.62 1383.8 166.62 1385.6 166.62 1387.5 166.62 1389.4 166.62 1391.2 166.62 1393.1 166.62 1395 166.62 1395 168.5 1395 170.38" fill="#03FF00"/>
<polygon id="Path" points="1398.8 176 1396.9 176 1396.9 174.12 1396.9 172.25 1396.9 170.38 1396.9 168.5 1396.9 166.62 1396.9 164.75 1396.9 162.88 1396.9 161 1396.9 159.12 1398.8 159.12 1400.6 159.12 1400.6 161 1402.5 161 1404.4 161 1404.4 162.88 1406.2 162.88 1408.1 162.88 1408.1 164.75 1410 164.75 1411.9 164.75 1411.9 166.62 1413.8 166.62 1415.6 166.62 1415.6 168.5 1413.8 168.5 1411.9 168.5 1411.9 170.38 1410 170.38 1408.1 170.38 1408.1 172.25 1406.2 172.25 1404.4 172.25 1404.4 174.12 1402.5 174.12 1400.6 174.12 1400.6 172.25 1402.5 172.25 1404.4 172.25 1404.4 170.38 1406.2 170.38 1408.1 170.38 1408.1 168.5 1410 168.5 1411.9 168.5 1411.9 166.62 1410 166.62 1408.1 166.62 1408.1 164.75 1406.2 164.75 1404.4 164.75 1404.4 162.88 1402.5 162.88 1400.6 162.88 1400.6 161 1398.8 161 1398.8 162.88 1398.8 164.75 1398.8 166.62 1398.8 168.5 1398.8 170.38 1398.8 172.25 1398.8 174.12 1400.6 174.12 1400.6 176" fill="#03FF00"/>
<path id="Shape" d="m1436.2 176h-1.875v-1.875h-1.875-1.875v-1.875h-1.875-1.875v-1.875h-1.875-1.875v-1.875h-1.875-1.875v-1.875h1.875 1.875v-1.875h1.875 1.875v-1.875h1.875 1.875v-1.875h1.875 1.875v-1.875h1.875 1.875v1.875 1.875 1.875 1.875 1.875 1.875 1.875 1.875 1.875h-1.875zm0-1.875v-1.875-1.875-1.875-1.875-1.875-1.875-1.875h-1.875v1.875h-1.875-1.875v1.875h-1.875-1.875v1.875h-1.875-1.875v1.875h1.875 1.875v1.875h1.875 1.875v1.875h1.875 1.875v1.875h1.875z" fill="#C0C0C0"/>
<polygon id="Path" points="1460.6 170.38 1458.8 170.38 1456.9 170.38 1455 170.38 1453.1 170.38 1451.2 170.38 1449.4 170.38 1447.5 170.38 1445.6 170.38 1443.8 170.38 1441.9 170.38 1440 170.38 1440 168.5 1440 166.62 1441.9 166.62 1443.8 166.62 1445.6 166.62 1447.5 166.62 1449.4 166.62 1451.2 166.62 1453.1 166.62 1455 166.62 1456.9 166.62 1458.8 166.62 1460.6 166.62 1462.5 166.62 1462.5 168.5 1462.5 170.38" fill="#03FF00"/>
<polygon id="Path" points="1483.1 170.38 1481.2 170.38 1479.4 170.38 1477.5 170.38 1475.6 170.38 1473.8 170.38 1471.9 170.38 1470 170.38 1468.1 170.38 1466.2 170.38 1464.4 170.38 1462.5 170.38 1462.5 168.5 1462.5 166.62 1464.4 166.62 1466.2 166.62 1468.1 166.62 1470 166.62 1471.9 166.62 1473.8 166.62 1475.6 166.62 1477.5 166.62 1479.4 166.62 1481.2 166.62 1483.1 166.62 1485 166.62 1485 168.5 1485 170.38" fill="#03FF00"/>
<polygon id="Path" points="1505.6 170.38 1503.8 170.38 1501.9 170.38 1500 170.38 1498.1 170.38 1496.2 170.38 1494.4 170.38 1492.5 170.38 1490.6 170.38 1488.8 170.38 1486.9 170.38 1485 170.38 1485 168.5 1485 166.62 1486.9 166.62 1488.8 166.62 1490.6 166.62 1492.5 166.62 1494.4 166.62 1496.2 166.62 1498.1 166.62 1500 166.62 1501.9 166.62 1503.8 166.62 1505.6 166.62 1507.5 166.62 1507.5 168.5 1507.5 170.38" fill="#03FF00"/>
<polygon id="Path" points="1528.1 170.38 1526.2 170.38 1524.4 170.38 1522.5 170.38 1520.6 170.38 1518.8 170.38 1516.9 170.38 1515 170.38 1513.1 170.38 1511.2 170.38 1509.4 170.38 1507.5 170.38 1507.5 168.5 1507.5 166.62 1509.4 166.62 1511.2 166.62 1513.1 166.62 1515 166.62 1516.9 166.62 1518.8 166.62 1520.6 166.62 1522.5 166.62 1524.4 166.62 1526.2 166.62 1528.1 166.62 1530 166.62 1530 168.5 1530 170.38" fill="#03FF00"/>
<polygon id="Path" points="1550.6 170.38 1548.8 170.38 1546.9 170.38 1545 170.38 1543.1 170.38 1541.2 170.38 1539.4 170.38 1537.5 170.38 1535.6 170.38 1533.8 170.38 1531.9 170.38 1530 170.38 1530 168.5 1530 166.62 1531.9 166.62 1533.8 166.62 1535.6 166.62 1537.5 166.62 1539.4 166.62 1541.2 166.62 1543.1 166.62 1545 166.62 1546.9 166.62 1548.8 166.62 1550.6 166.62 1552.5 166.62 1552.5 168.5 1552.5 170.38" fill="#03FF00"/>
<polygon id="Path" points="1573.1 170.38 1571.2 170.38 1569.4 170.38 1567.5 170.38 1565.6 170.38 1563.8 170.38 1561.9 170.38 1560 170.38 1558.1 170.38 1556.2 170.38 1554.4 170.38 1552.5 170.38 1552.5 168.5 1552.5 166.62 1554.4 166.62 1556.2 166.62 1558.1 166.62 1560 166.62 1561.9 166.62 1563.8 166.62 1565.6 166.62 1567.5 166.62 1569.4 166.62 1571.2 166.62 1573.1 166.62 1575 166.62 1575 168.5 1575 170.38" fill="#03FF00"/>
<polygon id="Path" points="1595.6 170.38 1593.8 170.38 1591.9 170.38 1590 170.38 1588.1 170.38 1586.2 170.38 1584.4 170.38 1582.5 170.38 1580.6 170.38 1578.8 170.38 1576.9 170.38 1575 170.38 1575 168.5 1575 166.62 1576.9 166.62 1578.8 166.62 1580.6 166.62 1582.5 166.62 1584.4 166.62 1586.2 166.62 1588.1 166.62 1590 166.62 1591.9 166.62 1593.8 166.62 1595.6 166.62 1597.5 166.62 1597.5 168.5 1597.5 170.38" fill="#03FF00"/>
<polygon id="Path" points="1618.1 170.38 1616.2 170.38 1614.4 170.38 1612.5 170.38 1610.6 170.38 1608.8 170.38 1606.9 170.38 1605 170.38 1603.1 170.38 1601.2 170.38 1599.4 170.38 1597.5 170.38 1597.5 168.5 1597.5 166.62 1599.4 166.62 1601.2 166.62 1603.1 166.62 1605 166.62 1606.9 166.62 1608.8 166.62 1610.6 166.62 1612.5 166.62 1614.4 166.62 1616.2 166.62 1618.1 166.62 1620 166.62 1620 168.5 1620 170.38" fill="#03FF00"/>
<polygon id="Path" points="1640.6 170.38 1638.8 170.38 1636.9 170.38 1635 170.38 1633.1 170.38 1631.2 170.38 1629.4 170.38 1627.5 170.38 1625.6 170.38 1623.8 170.38 1621.9 170.38 1620 170.38 1620 168.5 1620 166.62 1621.9 166.62 1623.8 166.62 1625.6 166.62 1627.5 166.62 1629.4 166.62 1631.2 166.62 1633.1 166.62 1635 166.62 1636.9 166.62 1638.8 166.62 1640.6 166.62 1642.5 166.62 1642.5 168.5 1642.5 170.38" fill="#03FF00"/>
<polygon id="Path" points="1663.1 170.38 1661.2 170.38 1659.4 170.38 1657.5 170.38 1655.6 170.38 1653.8 170.38 1651.9 170.38 1650 170.38 1648.1 170.38 1646.2 170.38 1644.4 170.38 1642.5 170.38 1642.5 168.5 1642.5 166.62 1644.4 166.62 1646.2 166.62 1648.1 166.62 1650 166.62 1651.9 166.62 1653.8 166.62 1655.6 166.62 1657.5 166.62 1659.4 166.62 1661.2 166.62 1663.1 166.62 1665 166.62 1665 168.5 1665 170.38" fill="#03FF00"/>
<polygon id="Path" points="1685.6 170.38 1683.8 170.38 1681.9 170.38 1680 170.38 1678.1 170.38 1676.2 170.38 1674.4 170.38 1672.5 170.38 1670.6 170.38 1668.8 170.38 1666.9 170.38 1665 170.38 1665 168.5 1665 166.62 1666.9 166.62 1668.8 166.62 1670.6 166.62 1672.5 166.62 1674.4 166.62 1676.2 166.62 1678.1 166.62 1680 166.62 1681.9 166.62 1683.8 166.62 1685.6 166.62 1687.5 166.62 1687.5 168.5 1687.5 170.38" fill="#03FF00"/>
<polygon id="Path" points="1708.1 170.38 1706.2 170.38 1704.4 170.38 1702.5 170.38 1700.6 170.38 1698.8 170.38 1696.9 170.38 1695 170.38 1693.1 170.38 1691.2 170.38 1689.4 170.38 1687.5 170.38 1687.5 168.5 1687.5 166.62 1689.4 166.62 1691.2 166.62 1693.1 166.62 1695 166.62 1696.9 166.62 1698.8 166.62 1700.6 166.62 1702.5 166.62 1704.4 166.62 1706.2 166.62 1708.1 166.62 1710 166.62 1710 168.5 1710 170.38" fill="#03FF00"/>
<polygon id="Path" points="1730.6 170.38 1728.8 170.38 1726.9 170.38 1725 170.38 1723.1 170.38 1721.2 170.38 1719.4 170.38 1717.5 170.38 1715.6 170.38 1713.8 170.38 1711.9 170.38 1710 170.38 1710 168.5 1710 166.62 1711.9 166.62 1713.8 166.62 1715.6 166.62 1717.5 166.62 1719.4 166.62 1721.2 166.62 1723.1 166.62 1725 166.62 1726.9 166.62 1728.8 166.62 1730.6 166.62 1732.5 166.62 1732.5 168.5 1732.5 170.38" fill="#03FF00"/>
<path id="Shape" d="m1057.5 202.75v-1.875h1.875v1.875h-1.875zm1.875-1.875v-1.875h1.875v1.875h-1.875zm1.875-1.875v-1.875h1.875v1.875h-1.875zm1.875-1.875v-1.875h1.875v1.875h-1.875zm1.875-1.875v-1.875h1.875v1.875h-1.875zm1.875-1.875v-1.875h1.875v1.875h-1.875zm1.875-1.875v-1.875h1.875v1.875h-1.875zm1.875-1.875v-1.875h1.875v1.875h-1.875zm1.875-1.875v-1.875h1.875v1.875h-1.875zm1.875-1.875v-1.875h1.875v1.875h-1.875zm1.875-1.875v-1.875h1.875v1.875h-1.875zm1.875-1.875v-1.875h1.875v1.875h-1.875z" fill="#03FF00"/>
<polygon id="Path" points="187.5 218.25 185.62 218.25 185.62 216.38 185.62 214.5 185.62 212.62 185.62 210.75 185.62 208.88 187.5 208.88 189.38 208.88 189.38 210.75 191.25 210.75 193.12 210.75 193.12 212.62 195 212.62 196.88 212.62 196.88 214.5 195 214.5 193.12 214.5 193.12 216.38 191.25 216.38 189.38 216.38 189.38 218.25" fill="#03FF00"/>
<polygon id="Path" points="660 218.25 658.12 218.25 658.12 216.38 658.12 214.5 658.12 212.62 658.12 210.75 658.12 208.88 660 208.88 661.88 208.88 661.88 210.75 663.75 210.75 665.62 210.75 665.62 212.62 667.5 212.62 669.38 212.62 669.38 214.5 667.5 214.5 665.62 214.5 665.62 216.38 663.75 216.38 661.88 216.38 661.88 218.25" fill="#f00"/>
<polygon id="Path" points="763.12 225.75 761.25 225.75 759.38 225.75 757.5 225.75 755.62 225.75 753.75 225.75 751.88 225.75 750 225.75 748.12 225.75 746.25 225.75 744.38 225.75 742.5 225.75 742.5 223.88 742.5 222 742.5 220.12 742.5 218.25 742.5 216.38 742.5 214.5 742.5 212.62 742.5 210.75 742.5 208.88 742.5 207 742.5 205.12 742.5 203.25 744.38 203.25 746.25 203.25 748.12 203.25 750 203.25 751.88 203.25 753.75 203.25 755.62 203.25 757.5 203.25 759.38 203.25 761.25 203.25 763.12 203.25 765 203.25 765 205.12 765 207 765 208.88 765 210.75 765 212.62 765 214.5 765 216.38 765 218.25 765 220.12 765 222 765 223.88 765 225.75" fill="#fff"/>
<polygon id="Path" points="785.62 225.75 783.75 225.75 781.88 225.75 780 225.75 778.12 225.75 776.25 225.75 774.38 225.75 772.5 225.75 770.62 225.75 768.75 225.75 766.88 225.75 765 225.75 765 223.88 765 222 765 220.12 765 218.25 765 216.38 765 214.5 765 212.62 765 210.75 765 208.88 765 207 765 205.12 765 203.25 766.88 203.25 768.75 203.25 770.62 203.25 772.5 203.25 774.38 203.25 776.25 203.25 778.12 203.25 780 203.25 781.88 203.25 783.75 203.25 785.62 203.25 787.5 203.25 787.5 205.12 787.5 207 787.5 208.88 787.5 210.75 787.5 212.62 787.5 214.5 787.5 216.38 787.5 218.25 787.5 220.12 787.5 222 787.5 223.88 787.5 225.75" fill="#fff"/>
<polygon id="Path" points="808.12 225.75 806.25 225.75 804.38 225.75 802.5 225.75 800.62 225.75 798.75 225.75 796.88 225.75 795 225.75 793.12 225.75 791.25 225.75 789.38 225.75 787.5 225.75 787.5 223.88 787.5 222 787.5 220.12 787.5 218.25 787.5 216.38 787.5 214.5 787.5 212.62 787.5 210.75 787.5 208.88 787.5 207 787.5 205.12 787.5 203.25 789.38 203.25 791.25 203.25 793.12 203.25 795 203.25 796.88 203.25 798.75 203.25 800.62 203.25 802.5 203.25 804.38 203.25 806.25 203.25 808.12 203.25 810 203.25 810 205.12 810 207 810 208.88 810 210.75 810 212.62 810 214.5 810 216.38 810 218.25 810 220.12 810 222 810 223.88 810 225.75" fill="#fff"/>
<polygon id="Path" points="830.62 225.75 828.75 225.75 826.88 225.75 825 225.75 823.12 225.75 821.25 225.75 819.38 225.75 817.5 225.75 815.62 225.75 813.75 225.75 811.88 225.75 810 225.75 810 223.88 810 222 810 220.12 810 218.25 810 216.38 810 214.5 810 212.62 810 210.75 810 208.88 810 207 810 205.12 810 203.25 811.88 203.25 813.75 203.25 815.62 203.25 817.5 203.25 819.38 203.25 821.25 203.25 823.12 203.25 825 203.25 826.88 203.25 828.75 203.25 830.62 203.25 832.5 203.25 832.5 205.12 832.5 207 832.5 208.88 832.5 210.75 832.5 212.62 832.5 214.5 832.5 216.38 832.5 218.25 832.5 220.12 832.5 222 832.5 223.88 832.5 225.75" fill="#fff"/>
<path id="Shape" d="m1035 225.75v-1.875h1.875v1.875h-1.875zm1.875-1.875v-1.875h1.875v1.875h-1.875zm1.875-1.875v-1.875h1.875v1.875h-1.875zm1.875-1.875v-1.875h1.875v1.875h-1.875zm1.875-1.875v-1.875h1.875v1.875h-1.875zm1.875-1.875v-1.875h1.875v1.875h-1.875zm1.875-1.875v-1.875h1.875v1.875h-1.875zm1.875-1.875v-1.875h1.875v1.875h-1.875zm1.875-1.875v-1.875h1.875v1.875h-1.875zm1.875-1.875v-1.875h1.875v1.875h-1.875zm1.875-1.875v-1.875h1.875v1.875h-1.875zm1.875-1.875v-1.875h1.875v1.875h-1.875z" fill="#03FF00"/>
<polygon id="Path" points="20.625 239.38 18.75 239.38 16.875 239.38 15 239.38 13.125 239.38 11.25 239.38 9.375 239.38 7.5 239.38 5.625 239.38 3.75 239.38 1.875 239.38 0 239.38 0 237.5 0 235.62 1.875 235.62 3.75 235.62 5.625 235.62 7.5 235.62 9.375 235.62 11.25 235.62 13.125 235.62 15 235.62 16.875 235.62 18.75 235.62 20.625 235.62 22.5 235.62 22.5 237.5 22.5 239.38" fill="#f00"/>
<polygon id="Path" points="43.125 239.38 41.25 239.38 39.375 239.38 37.5 239.38 35.625 239.38 33.75 239.38 31.875 239.38 30 239.38 28.125 239.38 26.25 239.38 24.375 239.38 22.5 239.38 22.5 237.5 22.5 235.62 24.375 235.62 26.25 235.62 28.125 235.62 30 235.62 31.875 235.62 33.75 235.62 35.625 235.62 37.5 235.62 39.375 235.62 41.25 235.62 43.125 235.62 45 235.62 45 237.5 45 239.38" fill="#f00"/>
<polygon id="Path" points="65.625 239.38 63.75 239.38 61.875 239.38 60 239.38 58.125 239.38 56.25 239.38 54.375 239.38 52.5 239.38 50.625 239.38 48.75 239.38 46.875 239.38 45 239.38 45 237.5 45 235.62 46.875 235.62 48.75 235.62 50.625 235.62 52.5 235.62 54.375 235.62 56.25 235.62 58.125 235.62 60 235.62 61.875 235.62 63.75 235.62 65.625 235.62 67.5 235.62 67.5 237.5 67.5 239.38" fill="#f00"/>
<polygon id="Path" points="88.125 239.38 86.25 239.38 84.375 239.38 82.5 239.38 80.625 239.38 78.75 239.38 76.875 239.38 75 239.38 73.125 239.38 71.25 239.38 69.375 239.38 67.5 239.38 67.5 237.5 67.5 235.62 69.375 235.62 71.25 235.62 73.125 235.62 75 235.62 76.875 235.62 78.75 235.62 80.625 235.62 82.5 235.62 84.375 235.62 86.25 235.62 88.125 235.62 90 235.62 90 237.5 90 239.38" fill="#f00"/>
<polygon id="Path" points="110.62 239.38 108.75 239.38 106.88 239.38 105 239.38 103.12 239.38 101.25 239.38 99.375 239.38 97.5 239.38 95.625 239.38 93.75 239.38 91.875 239.38 90 239.38 90 237.5 90 235.62 91.875 235.62 93.75 235.62 95.625 235.62 97.5 235.62 99.375 235.62 101.25 235.62 103.12 235.62 105 235.62 106.88 235.62 108.75 235.62 110.62 235.62 112.5 235.62 112.5 237.5 112.5 239.38" fill="#f00"/>
<polygon id="Path" points="133.12 239.38 131.25 239.38 129.38 239.38 127.5 239.38 125.62 239.38 123.75 239.38 121.88 239.38 120 239.38 118.12 239.38 116.25 239.38 114.38 239.38 112.5 239.38 112.5 237.5 112.5 235.62 114.38 235.62 116.25 235.62 118.12 235.62 120 235.62 121.88 235.62 123.75 235.62 125.62 235.62 127.5 235.62 129.38 235.62 131.25 235.62 133.12 235.62 135 235.62 135 237.5 135 239.38" fill="#f00"/>
<polygon id="Path" points="155.62 239.38 153.75 239.38 151.88 239.38 150 239.38 148.12 239.38 146.25 239.38 144.38 239.38 142.5 239.38 140.62 239.38 138.75 239.38 136.88 239.38 135 239.38 135 237.5 135 235.62 136.88 235.62 138.75 235.62 140.62 235.62 142.5 235.62 144.38 235.62 146.25 235.62 148.12 235.62 150 235.62 151.88 235.62 153.75 235.62 155.62 235.62 157.5 235.62 157.5 237.5 157.5 239.38" fill="#f00"/>
<polygon id="Path" points="178.12 239.38 176.25 239.38 174.38 239.38 172.5 239.38 170.62 239.38 168.75 239.38 166.88 239.38 165 239.38 163.12 239.38 161.25 239.38 159.38 239.38 157.5 239.38 157.5 237.5 157.5 235.62 159.38 235.62 161.25 235.62 163.12 235.62 165 235.62 166.88 235.62 168.75 235.62 170.62 235.62 172.5 235.62 174.38 235.62 176.25 235.62 178.12 235.62 180 235.62 180 237.5 180 239.38" fill="#f00"/>
<polygon id="Path" points="183.75 245 181.88 245 181.88 243.12 181.88 241.25 181.88 239.38 181.88 237.5 181.88 235.62 181.88 233.75 181.88 231.88 181.88 230 181.88 228.12 183.75 228.12 185.62 228.12 185.62 230 187.5 230 189.38 230 189.38 231.88 191.25 231.88 193.12 231.88 193.12 233.75 195 233.75 196.88 233.75 196.88 235.62 198.75 235.62 200.62 235.62 200.62 237.5 198.75 237.5 196.88 237.5 196.88 239.38 195 239.38 193.12 239.38 193.12 241.25 191.25 241.25 189.38 241.25 189.38 243.12 187.5 243.12 185.62 243.12 185.62 241.25 187.5 241.25 189.38 241.25 189.38 239.38 191.25 239.38 193.12 239.38 193.12 237.5 195 237.5 196.88 237.5 196.88 235.62 195 235.62 193.12 235.62 193.12 233.75 191.25 233.75 189.38 233.75 189.38 231.88 187.5 231.88 185.62 231.88 185.62 230 183.75 230 183.75 231.88 183.75 233.75 183.75 235.62 183.75 237.5 183.75 239.38 183.75 241.25 183.75 243.12 185.62 243.12 185.62 245" fill="#f00"/>
<polygon id="Path" points="223.12 239.38 221.25 239.38 219.38 239.38 217.5 239.38 215.62 239.38 213.75 239.38 211.88 239.38 210 239.38 208.12 239.38 206.25 239.38 204.38 239.38 202.5 239.38 202.5 237.5 202.5 235.62 204.38 235.62 206.25 235.62 208.12 235.62 210 235.62 211.88 235.62 213.75 235.62 215.62 235.62 217.5 235.62 219.38 235.62 221.25 235.62 223.12 235.62 225 235.62 225 237.5 225 239.38" fill="#f00"/>
<polygon id="Path" points="245.62 239.38 243.75 239.38 241.88 239.38 240 239.38 238.12 239.38 236.25 239.38 234.38 239.38 232.5 239.38 230.62 239.38 228.75 239.38 226.88 239.38 225 239.38 225 237.5 225 235.62 226.88 235.62 228.75 235.62 230.62 235.62 232.5 235.62 234.38 235.62 236.25 235.62 238.12 235.62 240 235.62 241.88 235.62 243.75 235.62 245.62 235.62 247.5 235.62 247.5 237.5 247.5 239.38" fill="#f00"/>
<polygon id="Path" points="268.12 239.38 266.25 239.38 264.38 239.38 262.5 239.38 260.62 239.38 258.75 239.38 256.88 239.38 255 239.38 253.12 239.38 251.25 239.38 249.38 239.38 247.5 239.38 247.5 237.5 247.5 235.62 249.38 235.62 251.25 235.62 253.12 235.62 255 235.62 256.88 235.62 258.75 235.62 260.62 235.62 262.5 235.62 264.38 235.62 266.25 235.62 268.12 235.62 270 235.62 270 237.5 270 239.38" fill="#f00"/>
<polygon id="Path" points="290.62 239.38 288.75 239.38 286.88 239.38 285 239.38 283.12 239.38 281.25 239.38 279.38 239.38 277.5 239.38 275.62 239.38 273.75 239.38 271.88 239.38 270 239.38 270 237.5 270 235.62 271.88 235.62 273.75 235.62 275.62 235.62 277.5 235.62 279.38 235.62 281.25 235.62 283.12 235.62 285 235.62 286.88 235.62 288.75 235.62 290.62 235.62 292.5 235.62 292.5 237.5 292.5 239.38" fill="#f00"/>
<polygon id="Path" points="313.12 239.38 311.25 239.38 309.38 239.38 307.5 239.38 305.62 239.38 303.75 239.38 301.88 239.38 300 239.38 298.12 239.38 296.25 239.38 294.38 239.38 292.5 239.38 292.5 237.5 292.5 235.62 294.38 235.62 296.25 235.62 298.12 235.62 300 235.62 301.88 235.62 303.75 235.62 305.62 235.62 307.5 235.62 309.38 235.62 311.25 235.62 313.12 235.62 315 235.62 315 237.5 315 239.38" fill="#f00"/>
<polygon id="Path" points="335.62 239.38 333.75 239.38 331.88 239.38 330 239.38 328.12 239.38 326.25 239.38 324.38 239.38 322.5 239.38 320.62 239.38 318.75 239.38 316.88 239.38 315 239.38 315 237.5 315 235.62 316.88 235.62 318.75 235.62 320.62 235.62 322.5 235.62 324.38 235.62 326.25 235.62 328.12 235.62 330 235.62 331.88 235.62 333.75 235.62 335.62 235.62 337.5 235.62 337.5 237.5 337.5 239.38" fill="#f00"/>
<polygon id="Path" points="358.12 239.38 356.25 239.38 354.38 239.38 352.5 239.38 350.62 239.38 348.75 239.38 346.88 239.38 345 239.38 343.12 239.38 341.25 239.38 339.38 239.38 337.5 239.38 337.5 237.5 337.5 235.62 339.38 235.62 341.25 235.62 343.12 235.62 345 235.62 346.88 235.62 348.75 235.62 350.62 235.62 352.5 235.62 354.38 235.62 356.25 235.62 358.12 235.62 360 235.62 360 237.5 360 239.38" fill="#f00"/>
<polygon id="Path" points="380.62 239.38 378.75 239.38 376.88 239.38 375 239.38 373.12 239.38 371.25 239.38 369.38 239.38 367.5 239.38 365.62 239.38 363.75 239.38 361.88 239.38 360 239.38 360 237.5 360 235.62 361.88 235.62 363.75 235.62 365.62 235.62 367.5 235.62 369.38 235.62 371.25 235.62 373.12 235.62 375 235.62 376.88 235.62 378.75 235.62 380.62 235.62 382.5 235.62 382.5 237.5 382.5 239.38" fill="#f00"/>
<polygon id="Path" points="403.12 239.38 401.25 239.38 399.38 239.38 397.5 239.38 395.62 239.38 393.75 239.38 391.88 239.38 390 239.38 388.12 239.38 386.25 239.38 384.38 239.38 382.5 239.38 382.5 237.5 382.5 235.62 384.38 235.62 386.25 235.62 388.12 235.62 390 235.62 391.88 235.62 393.75 235.62 395.62 235.62 397.5 235.62 399.38 235.62 401.25 235.62 403.12 235.62 405 235.62 405 237.5 405 239.38" fill="#f00"/>
<polygon id="Path" points="425.62 239.38 423.75 239.38 421.88 239.38 420 239.38 418.12 239.38 416.25 239.38 414.38 239.38 412.5 239.38 410.62 239.38 408.75 239.38 406.88 239.38 405 239.38 405 237.5 405 235.62 406.88 235.62 408.75 235.62 410.62 235.62 412.5 235.62 414.38 235.62 416.25 235.62 418.12 235.62 420 235.62 421.88 235.62 423.75 235.62 425.62 235.62 427.5 235.62 427.5 237.5 427.5 239.38" fill="#f00"/>
<polygon id="Path" points="448.12 239.38 446.25 239.38 444.38 239.38 442.5 239.38 440.62 239.38 438.75 239.38 436.88 239.38 435 239.38 433.12 239.38 431.25 239.38 429.38 239.38 427.5 239.38 427.5 237.5 427.5 235.62 429.38 235.62 431.25 235.62 433.12 235.62 435 235.62 436.88 235.62 438.75 235.62 440.62 235.62 442.5 235.62 444.38 235.62 446.25 235.62 448.12 235.62 450 235.62 450 237.5 450 239.38" fill="#f00"/>
<polygon id="Path" points="470.62 239.38 468.75 239.38 466.88 239.38 465 239.38 463.12 239.38 461.25 239.38 459.38 239.38 457.5 239.38 455.62 239.38 453.75 239.38 451.88 239.38 450 239.38 450 237.5 450 235.62 451.88 235.62 453.75 235.62 455.62 235.62 457.5 235.62 459.38 235.62 461.25 235.62 463.12 235.62 465 235.62 466.88 235.62 468.75 235.62 470.62 235.62 472.5 235.62 472.5 237.5 472.5 239.38" fill="#f00"/>
<polygon id="Path" points="493.12 239.38 491.25 239.38 489.38 239.38 487.5 239.38 485.62 239.38 483.75 239.38 481.88 239.38 480 239.38 478.12 239.38 476.25 239.38 474.38 239.38 472.5 239.38 472.5 237.5 472.5 235.62 474.38 235.62 476.25 235.62 478.12 235.62 480 235.62 481.88 235.62 483.75 235.62 485.62 235.62 487.5 235.62 489.38 235.62 491.25 235.62 493.12 235.62 495 235.62 495 237.5 495 239.38" fill="#f00"/>
<polygon id="Path" points="515.62 239.38 513.75 239.38 511.88 239.38 510 239.38 508.12 239.38 506.25 239.38 504.38 239.38 502.5 239.38 500.62 239.38 498.75 239.38 496.88 239.38 495 239.38 495 237.5 495 235.62 496.88 235.62 498.75 235.62 500.62 235.62 502.5 235.62 504.38 235.62 506.25 235.62 508.12 235.62 510 235.62 511.88 235.62 513.75 235.62 515.62 235.62 517.5 235.62 517.5 237.5 517.5 239.38" fill="#f00"/>
<polygon id="Path" points="538.12 239.38 536.25 239.38 534.38 239.38 532.5 239.38 530.62 239.38 528.75 239.38 526.88 239.38 525 239.38 523.12 239.38 521.25 239.38 519.38 239.38 517.5 239.38 517.5 237.5 517.5 235.62 519.38 235.62 521.25 235.62 523.12 235.62 525 235.62 526.88 235.62 528.75 235.62 530.62 235.62 532.5 235.62 534.38 235.62 536.25 235.62 538.12 235.62 540 235.62 540 237.5 540 239.38" fill="#f00"/>
<polygon id="Path" points="560.62 239.38 558.75 239.38 556.88 239.38 555 239.38 553.12 239.38 551.25 239.38 549.38 239.38 547.5 239.38 545.62 239.38 543.75 239.38 541.88 239.38 540 239.38 540 237.5 540 235.62 541.88 235.62 543.75 235.62 545.62 235.62 547.5 235.62 549.38 235.62 551.25 235.62 553.12 235.62 555 235.62 556.88 235.62 558.75 235.62 560.62 235.62 562.5 235.62 562.5 237.5 562.5 239.38" fill="#f00"/>
<polygon id="Path" points="583.12 239.38 581.25 239.38 579.38 239.38 577.5 239.38 575.62 239.38 573.75 239.38 571.88 239.38 570 239.38 568.12 239.38 566.25 239.38 564.38 239.38 562.5 239.38 562.5 237.5 562.5 235.62 564.38 235.62 566.25 235.62 568.12 235.62 570 235.62 571.88 235.62 573.75 235.62 575.62 235.62 577.5 235.62 579.38 235.62 581.25 235.62 583.12 235.62 585 235.62 585 237.5 585 239.38" fill="#f00"/>
<polygon id="Path" points="605.62 239.38 603.75 239.38 601.88 239.38 600 239.38 598.12 239.38 596.25 239.38 594.38 239.38 592.5 239.38 590.62 239.38 588.75 239.38 586.88 239.38 585 239.38 585 237.5 585 235.62 586.88 235.62 588.75 235.62 590.62 235.62 592.5 235.62 594.38 235.62 596.25 235.62 598.12 235.62 600 235.62 601.88 235.62 603.75 235.62 605.62 235.62 607.5 235.62 607.5 237.5 607.5 239.38" fill="#f00"/>
<polygon id="Path" points="628.12 239.38 626.25 239.38 624.38 239.38 622.5 239.38 620.62 239.38 618.75 239.38 616.88 239.38 615 239.38 613.12 239.38 611.25 239.38 609.38 239.38 607.5 239.38 607.5 237.5 607.5 235.62 609.38 235.62 611.25 235.62 613.12 235.62 615 235.62 616.88 235.62 618.75 235.62 620.62 235.62 622.5 235.62 624.38 235.62 626.25 235.62 628.12 235.62 630 235.62 630 237.5 630 239.38" fill="#f00"/>
<polygon id="Path" points="650.62 239.38 648.75 239.38 646.88 239.38 645 239.38 643.12 239.38 641.25 239.38 639.38 239.38 637.5 239.38 635.62 239.38 633.75 239.38 631.88 239.38 630 239.38 630 237.5 630 235.62 631.88 235.62 633.75 235.62 635.62 235.62 637.5 235.62 639.38 235.62 641.25 235.62 643.12 235.62 645 235.62 646.88 235.62 648.75 235.62 650.62 235.62 652.5 235.62 652.5 237.5 652.5 239.38" fill="#f00"/>
<polygon id="Path" points="656.25 245 654.38 245 654.38 243.12 654.38 241.25 654.38 239.38 654.38 237.5 654.38 235.62 654.38 233.75 654.38 231.88 654.38 230 654.38 228.12 656.25 228.12 658.12 228.12 658.12 230 660 230 661.88 230 661.88 231.88 663.75 231.88 665.62 231.88 665.62 233.75 667.5 233.75 669.38 233.75 669.38 235.62 671.25 235.62 673.12 235.62 673.12 237.5 671.25 237.5 669.38 237.5 669.38 239.38 667.5 239.38 665.62 239.38 665.62 241.25 663.75 241.25 661.88 241.25 661.88 243.12 660 243.12 658.12 243.12 658.12 241.25 660 241.25 661.88 241.25 661.88 239.38 663.75 239.38 665.62 239.38 665.62 237.5 667.5 237.5 669.38 237.5 669.38 235.62 667.5 235.62 665.62 235.62 665.62 233.75 663.75 233.75 661.88 233.75 661.88 231.88 660 231.88 658.12 231.88 658.12 230 656.25 230 656.25 231.88 656.25 233.75 656.25 235.62 656.25 237.5 656.25 239.38 656.25 241.25 656.25 243.12 658.12 243.12 658.12 245" fill="#03FF00"/>
<path id="a" d="m693.75 245h-1.875v-1.875h-1.875-1.875v-1.875h-1.875-1.875v-1.875h-1.875-1.875v-1.875h-1.875-1.875v-1.875h1.875 1.875v-1.875h1.875 1.875v-1.875h1.875 1.875v-1.875h1.875 1.875v-1.875h1.875 1.875v1.875 1.875 1.875 1.875 1.875 1.875 1.875 1.875 1.875h-1.875zm0-1.875v-1.875-1.875-1.875-1.875-1.875-1.875-1.875h-1.875v1.875h-1.875-1.875v1.875h-1.875-1.875v1.875h-1.875-1.875v1.875h1.875 1.875v1.875h1.875 1.875v1.875h1.875 1.875v1.875h1.875z" fill="#C0C0C0"/>
<polygon id="Path" points="718.12 239.38 716.25 239.38 714.38 239.38 712.5 239.38 710.62 239.38 708.75 239.38 706.88 239.38 705 239.38 703.12 239.38 701.25 239.38 699.38 239.38 697.5 239.38 697.5 237.5 697.5 235.62 699.38 235.62 701.25 235.62 703.12 235.62 705 235.62 706.88 235.62 708.75 235.62 710.62 235.62 712.5 235.62 714.38 235.62 716.25 235.62 718.12 235.62 720 235.62 720 237.5 720 239.38" fill="#03FF00"/>
<polygon id="Path" points="740.62 239.38 738.75 239.38 736.88 239.38 735 239.38 733.12 239.38 731.25 239.38 729.38 239.38 727.5 239.38 725.62 239.38 723.75 239.38 721.88 239.38 720 239.38 720 237.5 720 235.62 721.88 235.62 723.75 235.62 725.62 235.62 727.5 235.62 729.38 235.62 731.25 235.62 733.12 235.62 735 235.62 736.88 235.62 738.75 235.62 740.62 235.62 742.5 235.62 742.5 237.5 742.5 239.38" fill="#03FF00"/>
<polygon id="Path" points="763.12 239.38 761.25 239.38 759.38 239.38 757.5 239.38 755.62 239.38 753.75 239.38 751.88 239.38 750 239.38 748.12 239.38 746.25 239.38 744.38 239.38 742.5 239.38 742.5 237.5 742.5 235.62 744.38 235.62 746.25 235.62 748.12 235.62 750 235.62 751.88 235.62 753.75 235.62 755.62 235.62 757.5 235.62 759.38 235.62 761.25 235.62 763.12 235.62 765 235.62 765 237.5 765 239.38" fill="#03FF00"/>
<polygon id="Path" points="785.62 239.38 783.75 239.38 781.88 239.38 780 239.38 778.12 239.38 776.25 239.38 774.38 239.38 772.5 239.38 770.62 239.38 768.75 239.38 766.88 239.38 765 239.38 765 237.5 765 235.62 766.88 235.62 768.75 235.62 770.62 235.62 772.5 235.62 774.38 235.62 776.25 235.62 778.12 235.62 780 235.62 781.88 235.62 783.75 235.62 785.62 235.62 787.5 235.62 787.5 237.5 787.5 239.38" fill="#03FF00"/>
<polygon id="Path" points="808.12 239.38 806.25 239.38 804.38 239.38 802.5 239.38 800.62 239.38 798.75 239.38 796.88 239.38 795 239.38 793.12 239.38 791.25 239.38 789.38 239.38 787.5 239.38 787.5 237.5 787.5 235.62 789.38 235.62 791.25 235.62 793.12 235.62 795 235.62 796.88 235.62 798.75 235.62 800.62 235.62 802.5 235.62 804.38 235.62 806.25 235.62 808.12 235.62 810 235.62 810 237.5 810 239.38" fill="#03FF00"/>
<polygon id="Path" points="830.62 239.38 828.75 239.38 826.88 239.38 825 239.38 823.12 239.38 821.25 239.38 819.38 239.38 817.5 239.38 815.62 239.38 813.75 239.38 811.88 239.38 810 239.38 810 237.5 810 235.62 811.88 235.62 813.75 235.62 815.62 235.62 817.5 235.62 819.38 235.62 821.25 235.62 823.12 235.62 825 235.62 826.88 235.62 828.75 235.62 830.62 235.62 832.5 235.62 832.5 237.5 832.5 239.38" fill="#03FF00"/>
<polygon id="Path" points="853.12 239.38 851.25 239.38 849.38 239.38 847.5 239.38 845.62 239.38 843.75 239.38 841.88 239.38 840 239.38 838.12 239.38 836.25 239.38 834.38 239.38 832.5 239.38 832.5 237.5 832.5 235.62 834.38 235.62 836.25 235.62 838.12 235.62 840 235.62 841.88 235.62 843.75 235.62 845.62 235.62 847.5 235.62 849.38 235.62 851.25 235.62 853.12 235.62 855 235.62 855 237.5 855 239.38" fill="#03FF00"/>
<polygon id="Path" points="875.62 239.38 873.75 239.38 871.88 239.38 870 239.38 868.12 239.38 866.25 239.38 864.38 239.38 862.5 239.38 860.62 239.38 858.75 239.38 856.88 239.38 855 239.38 855 237.5 855 235.62 856.88 235.62 858.75 235.62 860.62 235.62 862.5 235.62 864.38 235.62 866.25 235.62 868.12 235.62 870 235.62 871.88 235.62 873.75 235.62 875.62 235.62 877.5 235.62 877.5 237.5 877.5 239.38" fill="#03FF00"/>
<polygon id="Path" points="881.25 245 879.38 245 879.38 243.12 879.38 241.25 879.38 239.38 879.38 237.5 879.38 235.62 879.38 233.75 879.38 231.88 879.38 230 879.38 228.12 881.25 228.12 883.12 228.12 883.12 230 885 230 886.88 230 886.88 231.88 888.75 231.88 890.62 231.88 890.62 233.75 892.5 233.75 894.38 233.75 894.38 235.62 896.25 235.62 898.12 235.62 898.12 237.5 896.25 237.5 894.38 237.5 894.38 239.38 892.5 239.38 890.62 239.38 890.62 241.25 888.75 241.25 886.88 241.25 886.88 243.12 885 243.12 883.12 243.12 883.12 241.25 885 241.25 886.88 241.25 886.88 239.38 888.75 239.38 890.62 239.38 890.62 237.5 892.5 237.5 894.38 237.5 894.38 235.62 892.5 235.62 890.62 235.62 890.62 233.75 888.75 233.75 886.88 233.75 886.88 231.88 885 231.88 883.12 231.88 883.12 230 881.25 230 881.25 231.88 881.25 233.75 881.25 235.62 881.25 237.5 881.25 239.38 881.25 241.25 881.25 243.12 883.12 243.12 883.12 245" fill="#03FF00"/>
<polygon id="Path" points="920.62 239.38 918.75 239.38 916.88 239.38 915 239.38 913.12 239.38 911.25 239.38 909.38 239.38 907.5 239.38 905.62 239.38 903.75 239.38 901.88 239.38 900 239.38 900 237.5 900 235.62 901.88 235.62 903.75 235.62 905.62 235.62 907.5 235.62 909.38 235.62 911.25 235.62 913.12 235.62 915 235.62 916.88 235.62 918.75 235.62 920.62 235.62 922.5 235.62 922.5 237.5 922.5 239.38" fill="#03FF00"/>
<polygon id="Path" points="943.12 239.38 941.25 239.38 939.38 239.38 937.5 239.38 935.62 239.38 933.75 239.38 931.88 239.38 930 239.38 928.12 239.38 926.25 239.38 924.38 239.38 922.5 239.38 922.5 237.5 922.5 235.62 924.38 235.62 926.25 235.62 928.12 235.62 930 235.62 931.88 235.62 933.75 235.62 935.62 235.62 937.5 235.62 939.38 235.62 941.25 235.62 943.12 235.62 945 235.62 945 237.5 945 239.38" fill="#03FF00"/>
<polygon id="Path" points="965.62 239.38 963.75 239.38 961.88 239.38 960 239.38 958.12 239.38 956.25 239.38 954.38 239.38 952.5 239.38 950.62 239.38 948.75 239.38 946.88 239.38 945 239.38 945 237.5 945 235.62 946.88 235.62 948.75 235.62 950.62 235.62 952.5 235.62 954.38 235.62 956.25 235.62 958.12 235.62 960 235.62 961.88 235.62 963.75 235.62 965.62 235.62 967.5 235.62 967.5 237.5 967.5 239.38" fill="#03FF00"/>
<polygon id="Path" points="988.12 239.38 986.25 239.38 984.38 239.38 982.5 239.38 980.62 239.38 978.75 239.38 976.88 239.38 975 239.38 973.12 239.38 971.25 239.38 969.38 239.38 967.5 239.38 967.5 237.5 967.5 235.62 969.38 235.62 971.25 235.62 973.12 235.62 975 235.62 976.88 235.62 978.75 235.62 980.62 235.62 982.5 235.62 984.38 235.62 986.25 235.62 988.12 235.62 990 235.62 990 237.5 990 239.38" fill="#03FF00"/>
<polygon id="Path" points="1010.6 239.38 1008.8 239.38 1006.9 239.38 1005 239.38 1003.1 239.38 1001.2 239.38 999.38 239.38 997.5 239.38 995.62 239.38 993.75 239.38 991.88 239.38 990 239.38 990 237.5 990 235.62 991.88 235.62 993.75 235.62 995.62 235.62 997.5 235.62 999.38 235.62 1001.2 235.62 1003.1 235.62 1005 235.62 1006.9 235.62 1008.8 235.62 1010.6 235.62 1012.5 235.62 1012.5 237.5 1012.5 239.38" fill="#03FF00"/>
<path d="m1021.9 239.38h-1.875-1.875-1.875-1.875-1.875v-1.875-1.875h1.875 1.875 1.875 1.875 1.875 1.875 1.875v1.875h-1.875v1.875h-1.875zm3.75-3.75v-1.875h1.875v1.875h-1.875zm1.875-1.875v-1.875h1.875v1.875h-1.875zm1.875-1.875v-1.875h1.875v1.875h-1.875zm1.875-1.875v-1.875h1.875v1.875h-1.875zm1.875-1.875v-1.875h1.875v1.875h-1.875z" fill="#03FF00"/>
<polygon id="Path" points="1055.6 239.38 1053.8 239.38 1051.9 239.38 1050 239.38 1048.1 239.38 1046.2 239.38 1044.4 239.38 1042.5 239.38 1040.6 239.38 1038.8 239.38 1036.9 239.38 1035 239.38 1035 237.5 1035 235.62 1036.9 235.62 1038.8 235.62 1040.6 235.62 1042.5 235.62 1044.4 235.62 1046.2 235.62 1048.1 235.62 1050 235.62 1051.9 235.62 1053.8 235.62 1055.6 235.62 1057.5 235.62 1057.5 237.5 1057.5 239.38" fill="#C0C0C0"/>
<polygon id="Path" points="1078.1 239.38 1076.2 239.38 1074.4 239.38 1072.5 239.38 1070.6 239.38 1068.8 239.38 1066.9 239.38 1065 239.38 1063.1 239.38 1061.2 239.38 1059.4 239.38 1057.5 239.38 1057.5 237.5 1057.5 235.62 1059.4 235.62 1061.2 235.62 1063.1 235.62 1065 235.62 1066.9 235.62 1068.8 235.62 1070.6 235.62 1072.5 235.62 1074.4 235.62 1076.2 235.62 1078.1 235.62 1080 235.62 1080 237.5 1080 239.38" fill="#C0C0C0"/>
<polygon id="Path" points="1100.6 239.38 1098.8 239.38 1096.9 239.38 1095 239.38 1093.1 239.38 1091.2 239.38 1089.4 239.38 1087.5 239.38 1085.6 239.38 1083.8 239.38 1081.9 239.38 1080 239.38 1080 237.5 1080 235.62 1081.9 235.62 1083.8 235.62 1085.6 235.62 1087.5 235.62 1089.4 235.62 1091.2 235.62 1093.1 235.62 1095 235.62 1096.9 235.62 1098.8 235.62 1100.6 235.62 1102.5 235.62 1102.5 237.5 1102.5 239.38" fill="#C0C0C0"/>
<polygon id="Path" points="1123.1 239.38 1121.2 239.38 1119.4 239.38 1117.5 239.38 1115.6 239.38 1113.8 239.38 1111.9 239.38 1110 239.38 1108.1 239.38 1106.2 239.38 1104.4 239.38 1102.5 239.38 1102.5 237.5 1102.5 235.62 1104.4 235.62 1106.2 235.62 1108.1 235.62 1110 235.62 1111.9 235.62 1113.8 235.62 1115.6 235.62 1117.5 235.62 1119.4 235.62 1121.2 235.62 1123.1 235.62 1125 235.62 1125 237.5 1125 239.38" fill="#C0C0C0"/>
<polygon id="Path" points="1145.6 239.38 1143.8 239.38 1141.9 239.38 1140 239.38 1138.1 239.38 1136.2 239.38 1134.4 239.38 1132.5 239.38 1130.6 239.38 1128.8 239.38 1126.9 239.38 1125 239.38 1125 237.5 1125 235.62 1126.9 235.62 1128.8 235.62 1130.6 235.62 1132.5 235.62 1134.4 235.62 1136.2 235.62 1138.1 235.62 1140 235.62 1141.9 235.62 1143.8 235.62 1145.6 235.62 1147.5 235.62 1147.5 237.5 1147.5 239.38" fill="#C0C0C0"/>
<polygon id="Path" points="1168.1 239.38 1166.2 239.38 1164.4 239.38 1162.5 239.38 1160.6 239.38 1158.8 239.38 1156.9 239.38 1155 239.38 1153.1 239.38 1151.2 239.38 1149.4 239.38 1147.5 239.38 1147.5 237.5 1147.5 235.62 1149.4 235.62 1151.2 235.62 1153.1 235.62 1155 235.62 1156.9 235.62 1158.8 235.62 1160.6 235.62 1162.5 235.62 1164.4 235.62 1166.2 235.62 1168.1 235.62 1170 235.62 1170 237.5 1170 239.38" fill="#C0C0C0"/>
<polygon id="Path" points="1190.6 239.38 1188.8 239.38 1186.9 239.38 1185 239.38 1183.1 239.38 1181.2 239.38 1179.4 239.38 1177.5 239.38 1175.6 239.38 1173.8 239.38 1171.9 239.38 1170 239.38 1170 237.5 1170 235.62 1171.9 235.62 1173.8 235.62 1175.6 235.62 1177.5 235.62 1179.4 235.62 1181.2 235.62 1183.1 235.62 1185 235.62 1186.9 235.62 1188.8 235.62 1190.6 235.62 1192.5 235.62 1192.5 237.5 1192.5 239.38" fill="#C0C0C0"/>
<polygon id="Path" points="1213.1 239.38 1211.2 239.38 1209.4 239.38 1207.5 239.38 1205.6 239.38 1203.8 239.38 1201.9 239.38 1200 239.38 1198.1 239.38 1196.2 239.38 1194.4 239.38 1192.5 239.38 1192.5 237.5 1192.5 235.62 1194.4 235.62 1196.2 235.62 1198.1 235.62 1200 235.62 1201.9 235.62 1203.8 235.62 1205.6 235.62 1207.5 235.62 1209.4 235.62 1211.2 235.62 1213.1 235.62 1215 235.62 1215 237.5 1215 239.38" fill="#C0C0C0"/>
<polygon id="Path" points="1235.6 239.38 1233.8 239.38 1231.9 239.38 1230 239.38 1228.1 239.38 1226.2 239.38 1224.4 239.38 1222.5 239.38 1220.6 239.38 1218.8 239.38 1216.9 239.38 1215 239.38 1215 237.5 1215 235.62 1216.9 235.62 1218.8 235.62 1220.6 235.62 1222.5 235.62 1224.4 235.62 1226.2 235.62 1228.1 235.62 1230 235.62 1231.9 235.62 1233.8 235.62 1235.6 235.62 1237.5 235.62 1237.5 237.5 1237.5 239.38" fill="#C0C0C0"/>
<polygon id="Path" points="1258.1 239.38 1256.2 239.38 1254.4 239.38 1252.5 239.38 1250.6 239.38 1248.8 239.38 1246.9 239.38 1245 239.38 1243.1 239.38 1241.2 239.38 1239.4 239.38 1237.5 239.38 1237.5 237.5 1237.5 235.62 1239.4 235.62 1241.2 235.62 1243.1 235.62 1245 235.62 1246.9 235.62 1248.8 235.62 1250.6 235.62 1252.5 235.62 1254.4 235.62 1256.2 235.62 1258.1 235.62 1260 235.62 1260 237.5 1260 239.38" fill="#C0C0C0"/>
<polygon id="Path" points="1280.6 239.38 1278.8 239.38 1276.9 239.38 1275 239.38 1273.1 239.38 1271.2 239.38 1269.4 239.38 1267.5 239.38 1265.6 239.38 1263.8 239.38 1261.9 239.38 1260 239.38 1260 237.5 1260 235.62 1261.9 235.62 1263.8 235.62 1265.6 235.62 1267.5 235.62 1269.4 235.62 1271.2 235.62 1273.1 235.62 1275 235.62 1276.9 235.62 1278.8 235.62 1280.6 235.62 1282.5 235.62 1282.5 237.5 1282.5 239.38" fill="#C0C0C0"/>
<polygon id="Path" points="1303.1 239.38 1301.2 239.38 1299.4 239.38 1297.5 239.38 1295.6 239.38 1293.8 239.38 1291.9 239.38 1290 239.38 1288.1 239.38 1286.2 239.38 1284.4 239.38 1282.5 239.38 1282.5 237.5 1282.5 235.62 1284.4 235.62 1286.2 235.62 1288.1 235.62 1290 235.62 1291.9 235.62 1293.8 235.62 1295.6 235.62 1297.5 235.62 1299.4 235.62 1301.2 235.62 1303.1 235.62 1305 235.62 1305 237.5 1305 239.38" fill="#C0C0C0"/>
<polygon id="Path" points="1325.6 239.38 1323.8 239.38 1321.9 239.38 1320 239.38 1318.1 239.38 1316.2 239.38 1314.4 239.38 1312.5 239.38 1310.6 239.38 1308.8 239.38 1306.9 239.38 1305 239.38 1305 237.5 1305 235.62 1306.9 235.62 1308.8 235.62 1310.6 235.62 1312.5 235.62 1314.4 235.62 1316.2 235.62 1318.1 235.62 1320 235.62 1321.9 235.62 1323.8 235.62 1325.6 235.62 1327.5 235.62 1327.5 237.5 1327.5 239.38" fill="#C0C0C0"/>
<polygon id="Path" points="1331.2 245 1329.4 245 1329.4 243.12 1329.4 241.25 1329.4 239.38 1329.4 237.5 1329.4 235.62 1329.4 233.75 1329.4 231.88 1329.4 230 1329.4 228.12 1331.2 228.12 1333.1 228.12 1333.1 230 1335 230 1336.9 230 1336.9 231.88 1338.8 231.88 1340.6 231.88 1340.6 233.75 1342.5 233.75 1344.4 233.75 1344.4 235.62 1346.2 235.62 1348.1 235.62 1348.1 237.5 1346.2 237.5 1344.4 237.5 1344.4 239.38 1342.5 239.38 1340.6 239.38 1340.6 241.25 1338.8 241.25 1336.9 241.25 1336.9 243.12 1335 243.12 1333.1 243.12 1333.1 241.25 1335 241.25 1336.9 241.25 1336.9 239.38 1338.8 239.38 1340.6 239.38 1340.6 237.5 1342.5 237.5 1344.4 237.5 1344.4 235.62 1342.5 235.62 1340.6 235.62 1340.6 233.75 1338.8 233.75 1336.9 233.75 1336.9 231.88 1335 231.88 1333.1 231.88 1333.1 230 1331.2 230 1331.2 231.88 1331.2 233.75 1331.2 235.62 1331.2 237.5 1331.2 239.38 1331.2 241.25 1331.2 243.12 1333.1 243.12 1333.1 245" fill="#C0C0C0"/>
<polygon id="Path" points="1370.6 239.38 1368.8 239.38 1366.9 239.38 1365 239.38 1363.1 239.38 1361.2 239.38 1359.4 239.38 1357.5 239.38 1355.6 239.38 1353.8 239.38 1351.9 239.38 1350 239.38 1350 237.5 1350 235.62 1351.9 235.62 1353.8 235.62 1355.6 235.62 1357.5 235.62 1359.4 235.62 1361.2 235.62 1363.1 235.62 1365 235.62 1366.9 235.62 1368.8 235.62 1370.6 235.62 1372.5 235.62 1372.5 237.5 1372.5 239.38" fill="#f00"/>
<polygon id="Path" points="1393.1 239.38 1391.2 239.38 1389.4 239.38 1387.5 239.38 1385.6 239.38 1383.8 239.38 1381.9 239.38 1380 239.38 1378.1 239.38 1376.2 239.38 1374.4 239.38 1372.5 239.38 1372.5 237.5 1372.5 235.62 1374.4 235.62 1376.2 235.62 1378.1 235.62 1380 235.62 1381.9 235.62 1383.8 235.62 1385.6 235.62 1387.5 235.62 1389.4 235.62 1391.2 235.62 1393.1 235.62 1395 235.62 1395 237.5 1395 239.38" fill="#f00"/>
<polygon id="Path" points="1415.6 239.38 1413.8 239.38 1411.9 239.38 1410 239.38 1408.1 239.38 1406.2 239.38 1404.4 239.38 1402.5 239.38 1400.6 239.38 1398.8 239.38 1396.9 239.38 1395 239.38 1395 237.5 1395 235.62 1396.9 235.62 1398.8 235.62 1400.6 235.62 1402.5 235.62 1404.4 235.62 1406.2 235.62 1408.1 235.62 1410 235.62 1411.9 235.62 1413.8 235.62 1415.6 235.62 1417.5 235.62 1417.5 237.5 1417.5 239.38" fill="#f00"/>
<polygon id="Path" points="1438.1 239.38 1436.2 239.38 1434.4 239.38 1432.5 239.38 1430.6 239.38 1428.8 239.38 1426.9 239.38 1425 239.38 1423.1 239.38 1421.2 239.38 1419.4 239.38 1417.5 239.38 1417.5 237.5 1417.5 235.62 1419.4 235.62 1421.2 235.62 1423.1 235.62 1425 235.62 1426.9 235.62 1428.8 235.62 1430.6 235.62 1432.5 235.62 1434.4 235.62 1436.2 235.62 1438.1 235.62 1440 235.62 1440 237.5 1440 239.38" fill="#f00"/>
<polygon id="Path" points="1460.6 239.38 1458.8 239.38 1456.9 239.38 1455 239.38 1453.1 239.38 1451.2 239.38 1449.4 239.38 1447.5 239.38 1445.6 239.38 1443.8 239.38 1441.9 239.38 1440 239.38 1440 237.5 1440 235.62 1441.9 235.62 1443.8 235.62 1445.6 235.62 1447.5 235.62 1449.4 235.62 1451.2 235.62 1453.1 235.62 1455 235.62 1456.9 235.62 1458.8 235.62 1460.6 235.62 1462.5 235.62 1462.5 237.5 1462.5 239.38" fill="#f00"/>
<polygon id="Path" points="1483.1 239.38 1481.2 239.38 1479.4 239.38 1477.5 239.38 1475.6 239.38 1473.8 239.38 1471.9 239.38 1470 239.38 1468.1 239.38 1466.2 239.38 1464.4 239.38 1462.5 239.38 1462.5 237.5 1462.5 235.62 1464.4 235.62 1466.2 235.62 1468.1 235.62 1470 235.62 1471.9 235.62 1473.8 235.62 1475.6 235.62 1477.5 235.62 1479.4 235.62 1481.2 235.62 1483.1 235.62 1485 235.62 1485 237.5 1485 239.38" fill="#f00"/>
<polygon id="Path" points="1505.6 239.38 1503.8 239.38 1501.9 239.38 1500 239.38 1498.1 239.38 1496.2 239.38 1494.4 239.38 1492.5 239.38 1490.6 239.38 1488.8 239.38 1486.9 239.38 1485 239.38 1485 237.5 1485 235.62 1486.9 235.62 1488.8 235.62 1490.6 235.62 1492.5 235.62 1494.4 235.62 1496.2 235.62 1498.1 235.62 1500 235.62 1501.9 235.62 1503.8 235.62 1505.6 235.62 1507.5 235.62 1507.5 237.5 1507.5 239.38" fill="#f00"/>
<polygon id="Path" points="1528.1 239.38 1526.2 239.38 1524.4 239.38 1522.5 239.38 1520.6 239.38 1518.8 239.38 1516.9 239.38 1515 239.38 1513.1 239.38 1511.2 239.38 1509.4 239.38 1507.5 239.38 1507.5 237.5 1507.5 235.62 1509.4 235.62 1511.2 235.62 1513.1 235.62 1515 235.62 1516.9 235.62 1518.8 235.62 1520.6 235.62 1522.5 235.62 1524.4 235.62 1526.2 235.62 1528.1 235.62 1530 235.62 1530 237.5 1530 239.38" fill="#f00"/>
<polygon id="Path" points="1550.6 239.38 1548.8 239.38 1546.9 239.38 1545 239.38 1543.1 239.38 1541.2 239.38 1539.4 239.38 1537.5 239.38 1535.6 239.38 1533.8 239.38 1531.9 239.38 1530 239.38 1530 237.5 1530 235.62 1531.9 235.62 1533.8 235.62 1535.6 235.62 1537.5 235.62 1539.4 235.62 1541.2 235.62 1543.1 235.62 1545 235.62 1546.9 235.62 1548.8 235.62 1550.6 235.62 1552.5 235.62 1552.5 237.5 1552.5 239.38" fill="#f00"/>
<polygon id="Path" points="1573.1 239.38 1571.2 239.38 1569.4 239.38 1567.5 239.38 1565.6 239.38 1563.8 239.38 1561.9 239.38 1560 239.38 1558.1 239.38 1556.2 239.38 1554.4 239.38 1552.5 239.38 1552.5 237.5 1552.5 235.62 1554.4 235.62 1556.2 235.62 1558.1 235.62 1560 235.62 1561.9 235.62 1563.8 235.62 1565.6 235.62 1567.5 235.62 1569.4 235.62 1571.2 235.62 1573.1 235.62 1575 235.62 1575 237.5 1575 239.38" fill="#f00"/>
<polygon id="Path" points="1595.6 239.38 1593.8 239.38 1591.9 239.38 1590 239.38 1588.1 239.38 1586.2 239.38 1584.4 239.38 1582.5 239.38 1580.6 239.38 1578.8 239.38 1576.9 239.38 1575 239.38 1575 237.5 1575 235.62 1576.9 235.62 1578.8 235.62 1580.6 235.62 1582.5 235.62 1584.4 235.62 1586.2 235.62 1588.1 235.62 1590 235.62 1591.9 235.62 1593.8 235.62 1595.6 235.62 1597.5 235.62 1597.5 237.5 1597.5 239.38" fill="#f00"/>
<polygon id="Path" points="1618.1 239.38 1616.2 239.38 1614.4 239.38 1612.5 239.38 1610.6 239.38 1608.8 239.38 1606.9 239.38 1605 239.38 1603.1 239.38 1601.2 239.38 1599.4 239.38 1597.5 239.38 1597.5 237.5 1597.5 235.62 1599.4 235.62 1601.2 235.62 1603.1 235.62 1605 235.62 1606.9 235.62 1608.8 235.62 1610.6 235.62 1612.5 235.62 1614.4 235.62 1616.2 235.62 1618.1 235.62 1620 235.62 1620 237.5 1620 239.38" fill="#f00"/>
<polygon id="Path" points="1640.6 239.38 1638.8 239.38 1636.9 239.38 1635 239.38 1633.1 239.38 1631.2 239.38 1629.4 239.38 1627.5 239.38 1625.6 239.38 1623.8 239.38 1621.9 239.38 1620 239.38 1620 237.5 1620 235.62 1621.9 235.62 1623.8 235.62 1625.6 235.62 1627.5 235.62 1629.4 235.62 1631.2 235.62 1633.1 235.62 1635 235.62 1636.9 235.62 1638.8 235.62 1640.6 235.62 1642.5 235.62 1642.5 237.5 1642.5 239.38" fill="#f00"/>
<polygon id="Path" points="1663.1 239.38 1661.2 239.38 1659.4 239.38 1657.5 239.38 1655.6 239.38 1653.8 239.38 1651.9 239.38 1650 239.38 1648.1 239.38 1646.2 239.38 1644.4 239.38 1642.5 239.38 1642.5 237.5 1642.5 235.62 1644.4 235.62 1646.2 235.62 1648.1 235.62 1650 235.62 1651.9 235.62 1653.8 235.62 1655.6 235.62 1657.5 235.62 1659.4 235.62 1661.2 235.62 1663.1 235.62 1665 235.62 1665 237.5 1665 239.38" fill="#f00"/>
<polygon id="Path" points="1685.6 239.38 1683.8 239.38 1681.9 239.38 1680 239.38 1678.1 239.38 1676.2 239.38 1674.4 239.38 1672.5 239.38 1670.6 239.38 1668.8 239.38 1666.9 239.38 1665 239.38 1665 237.5 1665 235.62 1666.9 235.62 1668.8 235.62 1670.6 235.62 1672.5 235.62 1674.4 235.62 1676.2 235.62 1678.1 235.62 1680 235.62 1681.9 235.62 1683.8 235.62 1685.6 235.62 1687.5 235.62 1687.5 237.5 1687.5 239.38" fill="#f00"/>
<polygon id="b" points="1708.1 239.38 1706.2 239.38 1704.4 239.38 1702.5 239.38 1700.6 239.38 1698.8 239.38 1696.9 239.38 1695 239.38 1693.1 239.38 1691.2 239.38 1689.4 239.38 1687.5 239.38 1687.5 237.5 1687.5 235.62 1689.4 235.62 1691.2 235.62 1693.1 235.62 1695 235.62 1696.9 235.62 1698.8 235.62 1700.6 235.62 1702.5 235.62 1704.4 235.62 1706.2 235.62 1708.1 235.62 1710 235.62 1710 237.5 1710 239.38" fill="#f00"/>
<polygon points="1730.6 239.38 1728.8 239.38 1726.9 239.38 1725 239.38 1723.1 239.38 1721.2 239.38 1719.4 239.38 1717.5 239.38 1715.6 239.38 1713.8 239.38 1711.9 239.38 1710 239.38 1710 237.5 1710 235.62 1711.9 235.62 1713.8 235.62 1715.6 235.62 1717.5 235.62 1719.4 235.62 1721.2 235.62 1723.1 235.62 1725 235.62 1726.9 235.62 1728.8 235.62 1730.6 235.62 1732.5 235.62 1732.5 237.5 1732.5 239.38" fill="#f00"/>
</g>
</g>
</svg>
