<?xml version="1.0" standalone="no"?>
<!DOCTYPE svg PUBLIC "-//W3C//DTD SVG 20010904//EN"
 "http://www.w3.org/TR/2001/REC-SVG-20010904/DTD/svg10.dtd">
<svg version="1.0" xmlns="http://www.w3.org/2000/svg"
 width="1000.000000pt" height="1000.000000pt" viewBox="0 0 1000.000000 1000.000000"
 preserveAspectRatio="xMidYMid meet">
<metadata>
Created by potrace 1.11, written by Peter Selinger 2001-2013
</metadata>
<g transform="translate(0.000000,1000.000000) scale(0.100000,-0.100000)"
fill="#000000" stroke="none">
<path d="M2946 8080 c-1 -3 -2 -1326 -2 -2940 l1 -2935 1290 0 c710 0 1324 3
1367 7 97 10 209 25 273 38 28 6 59 12 70 14 200 39 470 150 628 259 373 256
588 637 624 1107 29 383 -49 701 -240 984 -205 304 -520 519 -887 606 -30 7
-50 14 -45 16 407 104 735 355 902 689 54 107 101 254 118 370 4 22 8 51 11
65 20 107 13 437 -13 555 -2 11 -6 31 -9 45 -87 440 -395 789 -859 973 -85 34
-280 89 -355 101 -134 22 -252 37 -337 42 -115 8 -2534 11 -2537 4z m2324
-784 c19 -3 64 -11 100 -17 70 -11 86 -15 200 -54 244 -83 433 -289 494 -537
52 -211 32 -478 -48 -655 -107 -232 -331 -396 -616 -452 -30 -5 -71 -13 -90
-17 -49 -10 -1410 -17 -1411 -7 -4 24 -4 1730 -1 1741 4 10 136 12 671 9 366
-2 682 -7 701 -11z m60 -2449 c13 -4 42 -9 65 -12 22 -4 58 -11 80 -17 46 -12
47 -12 98 -23 20 -4 40 -11 43 -16 3 -5 12 -9 20 -9 27 0 182 -80 244 -126
241 -177 354 -428 344 -763 -3 -126 -5 -140 -34 -248 -61 -226 -209 -402 -435
-516 -102 -52 -203 -83 -360 -112 -84 -16 -235 -19 -840 -19 l-660 -1 0 920
c-1 506 1 928 3 938 4 16 42 17 706 14 385 -3 712 -7 726 -10z"/>
</g>
</svg>
