<svg version="1" xmlns="http://www.w3.org/2000/svg" width="1333.333" height="1333.333" viewBox="0 0 1000.000000 1000.000000"><path d="M249.9 209c-.1.3-.2 131.6-.3 291.8l-.1 291.3 157.5-.4c86.6-.2 159.3-.7 161.5-1 2.2-.3 6.7-.9 10-1.2 3.3-.3 7.1-.7 8.5-.9 1.4-.2 4.8-.7 7.5-1 18.3-2.5 48-10 58-14.6 1.1-.5 4.3-1.8 7.2-2.9 12.4-4.8 32.6-16.7 42.7-25.1 7.1-5.9 19-18.8 24-25.9 7.5-10.6 16.1-28.2 18.1-36.8.2-1 1.1-4.3 1.9-7.3 3.4-12.6 4.4-23.2 4.1-43.5-.3-20.7-.4-21.6-3.1-34.9-2.5-12.1-5.9-22-11.9-34.1-16.2-32.6-45-56.6-84.3-70.2l-8.3-2.9 9-5.4c39.9-23.5 64.6-63.5 67.8-109.5 3.3-47-8.6-82.6-37.1-111-8.7-8.7-22.1-19.3-29.1-23.1-18.1-9.8-27.3-13.8-43-18.7-14-4.3-33.6-8.4-49.5-10.2-3-.4-6.8-.8-8.5-1-12.9-1.5-42.1-1.8-163.8-1.9-76.3-.1-138.8.1-138.8.4zM531 277.3c1.4.3 5.4.8 8.9 1.2 17.2 1.7 40.8 9 54.6 16.7 20.5 11.5 34.6 29.1 39.4 49.5.6 2.7 1.4 5.9 1.8 7.3.3 1.4.7 8.4.8 15.6.4 17.3-1.8 28-8.6 42.1-3.9 8.2-6.4 11.7-12.2 17.7-7.7 7.9-17.1 14.7-25.8 18.8-10.5 5-14.8 6.8-15.8 6.8-.6 0-3.1.7-5.7 1.6-2.6.9-5.9 1.8-7.3 2-1.4.3-4.2.9-6.1 1.4-1.9.5-5.1 1.1-7 1.4-1.9.2-5.5.7-8 1.1-2.5.4-6.3.9-8.5 1.2-2.2.3-47.8.7-101.2.9l-97.3.4V276.1l97.8.3c53.7.2 98.8.6 100.2.9zm23.5 254.1c1.7.3 5.7.8 9 1.1 9.6 1 29.8 5.3 38.2 8.1 31.9 10.6 51.9 29 60.6 55.4 3.3 10 4.1 16.8 4.1 32.5 0 19.3-2.1 29.2-8.9 43-7.5 15.3-19.9 27.2-36.7 35.5-9.2 4.6-27.1 10.4-37.8 12.3-14.5 2.7-14.4 2.7-33 4.3-3.6.4-53.9.7-111.7.8l-105.3.1V530.4l109.3.2c60 .2 110.6.5 112.2.8z"/></svg>