<?xml version="1.0" encoding="UTF-8"?>
<svg width="1714px" height="294px" viewBox="0 0 1714 294" version="1.1" xmlns="http://www.w3.org/2000/svg" xmlns:xlink="http://www.w3.org/1999/xlink">
    <title>Artboard</title>
    <defs>
        <linearGradient x1="50%" y1="0%" x2="50%" y2="100%" id="linearGradient-1">
            <stop stop-color="#7C7C7C" offset="0%"></stop>
            <stop stop-color="#424242" offset="100%"></stop>
        </linearGradient>
        <linearGradient x1="50%" y1="0%" x2="50%" y2="100%" id="linearGradient-2">
            <stop stop-color="#484848" offset="0%"></stop>
            <stop stop-color="#2D2D2D" offset="100%"></stop>
        </linearGradient>
        <linearGradient x1="50%" y1="0%" x2="50%" y2="100%" id="linearGradient-3">
            <stop stop-color="#FFFFFF" offset="0%"></stop>
            <stop stop-color="#A0A0A0" offset="99.9827565%"></stop>
        </linearGradient>
        <linearGradient x1="50%" y1="0%" x2="50%" y2="100%" id="linearGradient-4">
            <stop stop-color="#8C8C8C" offset="0%"></stop>
            <stop stop-color="#DFDFDF" offset="100%"></stop>
        </linearGradient>
    </defs>
    <g id="Artboard" stroke="none" stroke-width="1" fill="none" fill-rule="evenodd">
        <rect id="Rectangle" fill="url(#linearGradient-1)" fill-rule="nonzero" x="0" y="259" width="1714" height="35"></rect>
        <rect id="Rectangle" fill="url(#linearGradient-2)" fill-rule="nonzero" x="0" y="0" width="1714" height="259"></rect>
        <g id="BaranÖnen" transform="translate(738.000000, 218.000000)" fill-rule="nonzero">
            <g id="path-4-link" fill="#000000">
                <path d="M7.25415571,40.6244669 C13.211211,40.6244669 17.0064315,39.6136685 19.3123883,37.6402053 C21.1379375,36.0518077 22.3869974,33.7895447 22.3869974,30.9015495 C22.3869974,26.4732902 19.2643477,23.7778278 15.8534531,22.9114293 L15.8534531,22.7670294 C19.3604292,21.4674316 21.234019,18.7719695 21.234019,15.7877076 C21.234019,12.9959788 19.8888776,10.8781157 17.8711654,9.67478422 C15.7093307,8.18265328 12.971007,7.60505431 8.64733801,7.60505431 C5.28448438,7.60505431 1.87358982,7.94198698 0,8.32705319 L0,40.1912678 C1.53730439,40.3838006 3.98738358,40.6244669 7.25415571,40.6244669 Z M8.88754194,21.1304989 L5.8609734,21.1304989 L5.8609734,12.2258467 C6.48550368,12.0814468 7.49435963,11.9851804 9.22382737,11.9851804 C12.971007,11.9851804 15.2769638,13.3810447 15.2769638,16.4615733 C15.2769638,19.2051685 13.0190479,21.1304989 8.88754194,21.1304989 Z M8.98362345,36.1480744 L8.62503204,36.1479657 C7.45703883,36.1468808 6.55974843,36.1349471 5.8609734,36.0036745 L5.8609734,25.4143586 L8.79146044,25.4143586 C12.8749255,25.4143586 16.1897386,26.9546228 16.1897386,30.7571499 C16.1897386,34.7522098 12.778844,36.1480744 8.98362345,36.1480744 Z M33.1481292,40.817 C36.2227383,40.817 38.6728175,39.5174022 40.0659994,37.6883385 L40.2101219,37.6883385 L40.6424888,40.2875342 L45.9750138,40.2875342 C45.6867693,38.8435365 45.5906878,36.7738066 45.5906878,34.6559434 L45.5906878,26.2326239 C45.5906878,21.0823657 43.4288534,16.3171734 35.9344938,16.3171734 C32.2353547,16.3171734 29.2087862,17.3279717 27.4793188,18.3869033 L28.6322972,22.2375636 C30.2176425,21.2267653 32.6196807,20.5047664 34.9256375,20.5047664 C39.0571435,20.5047664 39.6816734,23.0558289 39.6816734,24.596093 L39.6816734,24.9811592 C31.0343354,24.933026 25.797892,27.9654211 25.797892,33.8376782 C25.797892,37.3995391 28.4401341,40.817 33.1481292,40.817 Z M35.021719,36.5812734 C33.1481292,36.5812734 31.6588654,35.5223419 31.6588654,33.2119457 C31.6588654,29.6500848 35.6462489,28.7836864 39.8257959,28.8318196 L39.8257959,32.0567478 C39.8257959,32.4899468 39.8257959,32.9231462 39.6816734,33.3563456 C39.1051844,35.0410093 37.4237573,36.5812734 35.021719,36.5812734 Z M57.7450018,40.2875342 L57.7450018,28.1098207 C57.7450018,27.4840885 57.7930427,26.858356 57.8891243,26.3288903 C58.4175727,23.6334282 60.387244,21.8524978 63.1736086,21.8524978 C63.8942201,21.8524978 64.4226685,21.9006309 64.951117,21.9968973 L64.951117,16.4615733 C64.4707091,16.3653066 64.1344237,16.3171734 63.5579346,16.3171734 C61.011774,16.3171734 58.2734503,18.0018374 57.1204719,21.2748984 L56.9763495,21.2748984 L56.7361459,16.8466391 L51.6438245,16.8466391 C51.7879466,18.9163691 51.8359875,21.2267653 51.8359875,24.4035603 L51.8359875,40.2875342 L57.7450018,40.2875342 Z M74.6553518,40.817 C77.729961,40.817 80.1800398,39.5174022 81.5732221,37.6883385 L81.7173445,37.6883385 L82.1497115,40.2875342 L87.4822364,40.2875342 C87.1939919,38.8435365 87.0979104,36.7738066 87.0979104,34.6559434 L87.0979104,26.2326239 C87.0979104,21.0823657 84.9360757,16.3171734 77.4417161,16.3171734 C73.742577,16.3171734 70.7160088,17.3279717 68.9865411,18.3869033 L70.1395198,22.2375636 C71.7248651,21.2267653 74.1269034,20.5047664 76.4328602,20.5047664 C80.5643662,20.5047664 81.1888961,23.0558289 81.1888961,24.596093 L81.1888961,24.9811592 C72.5415581,24.933026 67.3051143,27.9654211 67.3051143,33.8376782 C67.3051143,37.3995391 69.9473565,40.817 74.6553518,40.817 Z M76.5289417,36.5812734 C74.6553518,36.5812734 73.166088,35.5223419 73.166088,33.2119457 C73.166088,29.6500848 77.1534716,28.7836864 81.3330185,28.8318196 L81.3330185,32.0567478 C81.3330185,32.4899468 81.3330185,32.9231462 81.1888961,33.3563456 C80.6124067,35.0410093 78.9309799,36.5812734 76.5289417,36.5812734 Z M99.2522245,40.2875342 L99.2522245,26.4732902 C99.2522245,25.7994245 99.348306,25.0774256 99.540469,24.596093 C100.164999,22.8151626 101.798385,21.1304989 104.152383,21.1304989 C107.371114,21.1304989 108.620174,23.6815614 108.620174,27.0508891 L108.620174,40.2875342 L114.529188,40.2875342 L114.529188,26.3770234 C114.529188,18.9645022 110.301601,16.3171734 106.218136,16.3171734 C102.326834,16.3171734 99.7806729,18.5313032 98.7237761,20.3603668 L98.5796536,20.3603668 L98.2914091,16.8466391 L93.1510472,16.8466391 C93.2471287,18.8682359 93.3432102,21.1304989 93.3432102,23.8259609 L93.3432102,40.2875342 L99.2522245,40.2875342 Z M139.750591,5.82412388 C141.432018,5.82412388 142.584996,4.47639284 142.584996,2.93612871 C142.584996,1.25146465 141.383977,0 139.798632,0 C138.165246,0 136.916186,1.29959785 136.916186,2.93612871 C136.916186,4.47639284 138.117205,5.82412388 139.750591,5.82412388 Z M149.214622,5.82412388 C150.94409,5.82412388 152.097068,4.47639284 152.097068,2.93612871 C152.097068,1.25146465 150.896049,0 149.310704,0 C147.629277,0 146.428258,1.29959785 146.428258,2.93612871 C146.428258,4.47639284 147.581236,5.82412388 149.214622,5.82412388 Z M144.266423,40.817 C153.153965,40.817 159.73555,34.6078103 159.73555,23.7296946 C159.73555,14.4399766 154.162821,7.26812129 144.746831,7.26812129 C135.619085,7.26812129 129.325745,14.2955766 129.325745,24.3072935 C129.325745,33.7895447 135.090636,40.817 144.266423,40.817 Z M144.554668,36.0518077 C138.885857,36.0518077 135.571044,30.8052831 135.571044,24.162894 C135.571044,17.4723713 138.693694,12.0333136 144.554668,12.0333136 C150.463682,12.0333136 153.49025,17.8093043 153.49025,23.9222277 C153.49025,30.7090164 150.271519,36.0518077 144.554668,36.0518077 Z M170.49668,40.2875342 L170.49668,26.4732902 C170.49668,25.7994245 170.592762,25.0774256 170.784927,24.596093 C171.409455,22.8151626 173.042841,21.1304989 175.39684,21.1304989 C178.615573,21.1304989 179.864631,23.6815614 179.864631,27.0508891 L179.864631,40.2875342 L185.773647,40.2875342 L185.773647,26.3770234 C185.773647,18.9645022 181.546058,16.3171734 177.462592,16.3171734 C173.571291,16.3171734 171.02513,18.5313032 169.968234,20.3603668 L169.824112,20.3603668 L169.535865,16.8466391 L164.395504,16.8466391 C164.491586,18.8682359 164.587667,21.1304989 164.587667,23.8259609 L164.587667,40.2875342 L170.49668,40.2875342 Z M202.635955,40.7688668 C205.99881,40.7688668 208.785174,40.1431343 210.802885,39.2767359 L209.938151,35.2335424 C208.112602,35.8592749 206.190972,36.292474 203.452649,36.292474 C199.657426,36.292474 196.390656,34.4634103 196.246534,30.2276838 L211.907822,30.2276838 C212.003903,29.698218 212.099987,28.8318196 212.099987,27.7247548 C212.099987,22.5744963 209.601867,16.3171734 202.011424,16.3171734 C194.517066,16.3171734 190.577722,22.4300967 190.577722,28.9280859 C190.577722,36.0999412 195.045513,40.7688668 202.635955,40.7688668 Z M206.527256,26.088224 L196.246534,26.088224 C196.486737,23.6815614 198.024043,20.3603668 201.67514,20.3603668 C205.614482,20.3603668 206.575297,23.9222277 206.527256,26.088224 Z M222.765037,40.2875342 L222.765037,26.4732902 C222.765037,25.7994245 222.861118,25.0774256 223.053281,24.596093 C223.677812,22.8151626 225.311198,21.1304989 227.665194,21.1304989 C230.883926,21.1304989 232.132985,23.6815614 232.132985,27.0508891 L232.132985,40.2875342 L238.042,40.2875342 L238.042,26.3770234 C238.042,18.9645022 233.814412,16.3171734 229.730949,16.3171734 C225.839645,16.3171734 223.293484,18.5313032 222.236587,20.3603668 L222.092466,20.3603668 L221.804222,16.8466391 L216.66386,16.8466391 C216.759941,18.8682359 216.856022,21.1304989 216.856022,23.8259609 L216.856022,40.2875342 L222.765037,40.2875342 Z" id="path-4"></path>
            </g>
            <g id="path-4-link" fill="url(#linearGradient-3)">
                <path d="M7.25415571,40.6244669 C13.211211,40.6244669 17.0064315,39.6136685 19.3123883,37.6402053 C21.1379375,36.0518077 22.3869974,33.7895447 22.3869974,30.9015495 C22.3869974,26.4732902 19.2643477,23.7778278 15.8534531,22.9114293 L15.8534531,22.7670294 C19.3604292,21.4674316 21.234019,18.7719695 21.234019,15.7877076 C21.234019,12.9959788 19.8888776,10.8781157 17.8711654,9.67478422 C15.7093307,8.18265328 12.971007,7.60505431 8.64733801,7.60505431 C5.28448438,7.60505431 1.87358982,7.94198698 0,8.32705319 L0,40.1912678 C1.53730439,40.3838006 3.98738358,40.6244669 7.25415571,40.6244669 Z M8.88754194,21.1304989 L5.8609734,21.1304989 L5.8609734,12.2258467 C6.48550368,12.0814468 7.49435963,11.9851804 9.22382737,11.9851804 C12.971007,11.9851804 15.2769638,13.3810447 15.2769638,16.4615733 C15.2769638,19.2051685 13.0190479,21.1304989 8.88754194,21.1304989 Z M8.98362345,36.1480744 L8.62503204,36.1479657 C7.45703883,36.1468808 6.55974843,36.1349471 5.8609734,36.0036745 L5.8609734,25.4143586 L8.79146044,25.4143586 C12.8749255,25.4143586 16.1897386,26.9546228 16.1897386,30.7571499 C16.1897386,34.7522098 12.778844,36.1480744 8.98362345,36.1480744 Z M33.1481292,40.817 C36.2227383,40.817 38.6728175,39.5174022 40.0659994,37.6883385 L40.2101219,37.6883385 L40.6424888,40.2875342 L45.9750138,40.2875342 C45.6867693,38.8435365 45.5906878,36.7738066 45.5906878,34.6559434 L45.5906878,26.2326239 C45.5906878,21.0823657 43.4288534,16.3171734 35.9344938,16.3171734 C32.2353547,16.3171734 29.2087862,17.3279717 27.4793188,18.3869033 L28.6322972,22.2375636 C30.2176425,21.2267653 32.6196807,20.5047664 34.9256375,20.5047664 C39.0571435,20.5047664 39.6816734,23.0558289 39.6816734,24.596093 L39.6816734,24.9811592 C31.0343354,24.933026 25.797892,27.9654211 25.797892,33.8376782 C25.797892,37.3995391 28.4401341,40.817 33.1481292,40.817 Z M35.021719,36.5812734 C33.1481292,36.5812734 31.6588654,35.5223419 31.6588654,33.2119457 C31.6588654,29.6500848 35.6462489,28.7836864 39.8257959,28.8318196 L39.8257959,32.0567478 C39.8257959,32.4899468 39.8257959,32.9231462 39.6816734,33.3563456 C39.1051844,35.0410093 37.4237573,36.5812734 35.021719,36.5812734 Z M57.7450018,40.2875342 L57.7450018,28.1098207 C57.7450018,27.4840885 57.7930427,26.858356 57.8891243,26.3288903 C58.4175727,23.6334282 60.387244,21.8524978 63.1736086,21.8524978 C63.8942201,21.8524978 64.4226685,21.9006309 64.951117,21.9968973 L64.951117,16.4615733 C64.4707091,16.3653066 64.1344237,16.3171734 63.5579346,16.3171734 C61.011774,16.3171734 58.2734503,18.0018374 57.1204719,21.2748984 L56.9763495,21.2748984 L56.7361459,16.8466391 L51.6438245,16.8466391 C51.7879466,18.9163691 51.8359875,21.2267653 51.8359875,24.4035603 L51.8359875,40.2875342 L57.7450018,40.2875342 Z M74.6553518,40.817 C77.729961,40.817 80.1800398,39.5174022 81.5732221,37.6883385 L81.7173445,37.6883385 L82.1497115,40.2875342 L87.4822364,40.2875342 C87.1939919,38.8435365 87.0979104,36.7738066 87.0979104,34.6559434 L87.0979104,26.2326239 C87.0979104,21.0823657 84.9360757,16.3171734 77.4417161,16.3171734 C73.742577,16.3171734 70.7160088,17.3279717 68.9865411,18.3869033 L70.1395198,22.2375636 C71.7248651,21.2267653 74.1269034,20.5047664 76.4328602,20.5047664 C80.5643662,20.5047664 81.1888961,23.0558289 81.1888961,24.596093 L81.1888961,24.9811592 C72.5415581,24.933026 67.3051143,27.9654211 67.3051143,33.8376782 C67.3051143,37.3995391 69.9473565,40.817 74.6553518,40.817 Z M76.5289417,36.5812734 C74.6553518,36.5812734 73.166088,35.5223419 73.166088,33.2119457 C73.166088,29.6500848 77.1534716,28.7836864 81.3330185,28.8318196 L81.3330185,32.0567478 C81.3330185,32.4899468 81.3330185,32.9231462 81.1888961,33.3563456 C80.6124067,35.0410093 78.9309799,36.5812734 76.5289417,36.5812734 Z M99.2522245,40.2875342 L99.2522245,26.4732902 C99.2522245,25.7994245 99.348306,25.0774256 99.540469,24.596093 C100.164999,22.8151626 101.798385,21.1304989 104.152383,21.1304989 C107.371114,21.1304989 108.620174,23.6815614 108.620174,27.0508891 L108.620174,40.2875342 L114.529188,40.2875342 L114.529188,26.3770234 C114.529188,18.9645022 110.301601,16.3171734 106.218136,16.3171734 C102.326834,16.3171734 99.7806729,18.5313032 98.7237761,20.3603668 L98.5796536,20.3603668 L98.2914091,16.8466391 L93.1510472,16.8466391 C93.2471287,18.8682359 93.3432102,21.1304989 93.3432102,23.8259609 L93.3432102,40.2875342 L99.2522245,40.2875342 Z M139.750591,5.82412388 C141.432018,5.82412388 142.584996,4.47639284 142.584996,2.93612871 C142.584996,1.25146465 141.383977,0 139.798632,0 C138.165246,0 136.916186,1.29959785 136.916186,2.93612871 C136.916186,4.47639284 138.117205,5.82412388 139.750591,5.82412388 Z M149.214622,5.82412388 C150.94409,5.82412388 152.097068,4.47639284 152.097068,2.93612871 C152.097068,1.25146465 150.896049,0 149.310704,0 C147.629277,0 146.428258,1.29959785 146.428258,2.93612871 C146.428258,4.47639284 147.581236,5.82412388 149.214622,5.82412388 Z M144.266423,40.817 C153.153965,40.817 159.73555,34.6078103 159.73555,23.7296946 C159.73555,14.4399766 154.162821,7.26812129 144.746831,7.26812129 C135.619085,7.26812129 129.325745,14.2955766 129.325745,24.3072935 C129.325745,33.7895447 135.090636,40.817 144.266423,40.817 Z M144.554668,36.0518077 C138.885857,36.0518077 135.571044,30.8052831 135.571044,24.162894 C135.571044,17.4723713 138.693694,12.0333136 144.554668,12.0333136 C150.463682,12.0333136 153.49025,17.8093043 153.49025,23.9222277 C153.49025,30.7090164 150.271519,36.0518077 144.554668,36.0518077 Z M170.49668,40.2875342 L170.49668,26.4732902 C170.49668,25.7994245 170.592762,25.0774256 170.784927,24.596093 C171.409455,22.8151626 173.042841,21.1304989 175.39684,21.1304989 C178.615573,21.1304989 179.864631,23.6815614 179.864631,27.0508891 L179.864631,40.2875342 L185.773647,40.2875342 L185.773647,26.3770234 C185.773647,18.9645022 181.546058,16.3171734 177.462592,16.3171734 C173.571291,16.3171734 171.02513,18.5313032 169.968234,20.3603668 L169.824112,20.3603668 L169.535865,16.8466391 L164.395504,16.8466391 C164.491586,18.8682359 164.587667,21.1304989 164.587667,23.8259609 L164.587667,40.2875342 L170.49668,40.2875342 Z M202.635955,40.7688668 C205.99881,40.7688668 208.785174,40.1431343 210.802885,39.2767359 L209.938151,35.2335424 C208.112602,35.8592749 206.190972,36.292474 203.452649,36.292474 C199.657426,36.292474 196.390656,34.4634103 196.246534,30.2276838 L211.907822,30.2276838 C212.003903,29.698218 212.099987,28.8318196 212.099987,27.7247548 C212.099987,22.5744963 209.601867,16.3171734 202.011424,16.3171734 C194.517066,16.3171734 190.577722,22.4300967 190.577722,28.9280859 C190.577722,36.0999412 195.045513,40.7688668 202.635955,40.7688668 Z M206.527256,26.088224 L196.246534,26.088224 C196.486737,23.6815614 198.024043,20.3603668 201.67514,20.3603668 C205.614482,20.3603668 206.575297,23.9222277 206.527256,26.088224 Z M222.765037,40.2875342 L222.765037,26.4732902 C222.765037,25.7994245 222.861118,25.0774256 223.053281,24.596093 C223.677812,22.8151626 225.311198,21.1304989 227.665194,21.1304989 C230.883926,21.1304989 232.132985,23.6815614 232.132985,27.0508891 L232.132985,40.2875342 L238.042,40.2875342 L238.042,26.3770234 C238.042,18.9645022 233.814412,16.3171734 229.730949,16.3171734 C225.839645,16.3171734 223.293484,18.5313032 222.236587,20.3603668 L222.092466,20.3603668 L221.804222,16.8466391 L216.66386,16.8466391 C216.759941,18.8682359 216.856022,21.1304989 216.856022,23.8259609 L216.856022,40.2875342 L222.765037,40.2875342 Z" id="path-4"></path>
            </g>
        </g>
        <path d="M745.252876,277.910377 C751.20888,277.910377 755.003431,277.439859 757.308981,276.521226 C759.134208,275.78184 760.383047,274.728774 760.383047,273.384434 C760.383047,271.323113 757.260949,270.068396 753.850656,269.665094 L753.850656,269.597877 C757.357013,268.992924 759.230273,267.738208 759.230273,266.349056 C759.230273,265.049528 757.885368,264.063679 755.868012,263.503538 C753.706559,262.808962 750.968718,262.540094 746.645812,262.540094 C743.283552,262.540094 739.873259,262.696934 738,262.876179 L738,277.708726 C739.537033,277.798349 741.98668,277.910377 745.252876,277.910377 Z M746.885974,268.836085 L743.859939,268.836085 L743.859939,264.691038 C744.484359,264.623821 745.493037,264.579009 747.2222,264.579009 C750.968718,264.579009 753.274268,265.228774 753.274268,266.662736 C753.274268,267.939859 751.016751,268.836085 746.885974,268.836085 Z M746.982038,275.826651 L746.521171,275.826541 C745.403122,275.825721 744.538042,275.818743 743.859939,275.759434 L743.859939,270.830189 L746.789909,270.830189 C750.872654,270.830189 754.186882,271.54717 754.186882,273.317217 C754.186882,275.176887 750.776589,275.826651 746.982038,275.826651 Z M771.142281,278 C774.216347,278 776.665994,277.395047 778.05893,276.543632 L778.203027,276.543632 L778.635318,277.753538 L783.966902,277.753538 C783.678708,277.081368 783.582644,276.117924 783.582644,275.132076 L783.582644,271.211085 C783.582644,268.813679 781.421191,266.595519 773.928154,266.595519 C770.229667,266.595519 767.203633,267.066038 765.47447,267.558962 L766.627245,269.351415 C768.212311,268.880896 770.613925,268.544811 772.919475,268.544811 C777.050252,268.544811 777.674672,269.732311 777.674672,270.449292 L777.674672,270.628538 C769.02886,270.606132 763.79334,272.017689 763.79334,274.751179 C763.79334,276.409198 766.435116,278 771.142281,278 Z M773.01554,276.028302 C771.142281,276.028302 769.653279,275.535377 769.653279,274.459906 C769.653279,272.801887 773.63996,272.398585 777.818769,272.420991 L777.818769,273.92217 C777.818769,274.123821 777.818769,274.325472 777.674672,274.527123 C777.098285,275.311321 775.417154,276.028302 773.01554,276.028302 Z M795.734813,277.753538 L795.734813,272.084906 C795.734813,271.793632 795.782846,271.502359 795.87891,271.255896 C796.407266,270.001179 798.376589,269.17217 801.162462,269.17217 C801.882947,269.17217 802.411302,269.194576 802.939657,269.239387 L802.939657,266.662736 C802.459334,266.617924 802.123108,266.595519 801.546721,266.595519 C799.001009,266.595519 796.263169,267.379717 795.110394,268.903302 L794.966297,268.903302 L794.726135,266.841981 L789.634712,266.841981 C789.778809,267.805424 789.826842,268.880896 789.826842,270.35967 L789.826842,277.753538 L795.734813,277.753538 Z M812.64218,278 C815.716246,278 818.165893,277.395047 819.558829,276.543632 L819.702926,276.543632 L820.135217,277.753538 L825.466801,277.753538 C825.178607,277.081368 825.082543,276.117924 825.082543,275.132076 L825.082543,271.211085 C825.082543,268.813679 822.92109,266.595519 815.428052,266.595519 C811.729566,266.595519 808.703532,267.066038 806.974369,267.558962 L808.127144,269.351415 C809.71221,268.880896 812.113824,268.544811 814.419374,268.544811 C818.550151,268.544811 819.174571,269.732311 819.174571,270.449292 L819.174571,270.628538 C810.528759,270.606132 805.293239,272.017689 805.293239,274.751179 C805.293239,276.409198 807.935015,278 812.64218,278 Z M814.515439,276.028302 C812.64218,276.028302 811.153179,275.535377 811.153179,274.459906 C811.153179,272.801887 815.139859,272.398585 819.318668,272.420991 L819.318668,273.92217 C819.318668,274.123821 819.318668,274.325472 819.174571,274.527123 C818.598184,275.311321 816.917053,276.028302 814.515439,276.028302 Z M837.234712,277.753538 L837.234712,271.323113 C837.234712,271.009434 837.330777,270.673349 837.522906,270.449292 C838.147326,269.620283 839.780424,268.836085 842.134006,268.836085 C845.35217,268.836085 846.601009,270.023585 846.601009,271.591981 L846.601009,277.753538 L852.508981,277.753538 L852.508981,271.278302 C852.508981,267.82783 848.282139,266.595519 844.199395,266.595519 C840.308779,266.595519 837.763068,267.626179 836.706357,268.477594 L836.56226,268.477594 L836.274067,266.841981 L831.134612,266.841981 C831.230676,267.783019 831.326741,268.836085 831.326741,270.090802 L831.326741,277.753538 L837.234712,277.753538 Z M877.725933,261.711085 C879.407064,261.711085 880.559838,261.083726 880.559838,260.366745 C880.559838,259.582547 879.359031,259 877.773966,259 C876.140868,259 874.892028,259.604953 874.892028,260.366745 C874.892028,261.083726 876.092836,261.711085 877.725933,261.711085 Z M887.188294,261.711085 C888.917457,261.711085 890.070232,261.083726 890.070232,260.366745 C890.070232,259.582547 888.869425,259 887.284359,259 C885.603229,259 884.402422,259.604953 884.402422,260.366745 C884.402422,261.083726 885.555197,261.711085 887.188294,261.711085 Z M882.240969,278 C891.126942,278 897.707366,275.10967 897.707366,270.045991 C897.707366,265.721698 892.135621,262.383255 882.721292,262.383255 C873.595156,262.383255 867.302926,265.654481 867.302926,270.314859 C867.302926,274.728774 873.066801,278 882.240969,278 Z M882.529163,275.78184 C876.861352,275.78184 873.547124,273.339623 873.547124,270.247641 C873.547124,267.133255 876.669223,264.601415 882.529163,264.601415 C888.437134,264.601415 891.463169,267.290094 891.463169,270.135613 C891.463169,273.294811 888.245005,275.78184 882.529163,275.78184 Z M908.466598,277.753538 L908.466598,271.323113 C908.466598,271.009434 908.562662,270.673349 908.754794,270.449292 C909.379211,269.620283 911.01231,268.836085 913.365893,268.836085 C916.584058,268.836085 917.832896,270.023585 917.832896,271.591981 L917.832896,277.753538 L923.740869,277.753538 L923.740869,271.278302 C923.740869,267.82783 919.514027,266.595519 915.431281,266.595519 C911.540666,266.595519 908.994955,267.626179 907.938245,268.477594 L907.794149,268.477594 L907.505953,266.841981 L902.366499,266.841981 C902.462563,267.783019 902.558628,268.836085 902.558628,270.090802 L902.558628,277.753538 L908.466598,277.753538 Z M940.600202,277.977594 C943.962463,277.977594 946.748336,277.686321 948.765691,277.283019 L947.90111,275.400944 C946.075883,275.692217 944.154592,275.893868 941.416752,275.893868 C937.622198,275.893868 934.356005,275.042453 934.211909,273.070755 L949.870433,273.070755 C949.966497,272.824292 950.062565,272.420991 950.062565,271.90566 C950.062565,269.508255 947.564885,266.595519 939.975782,266.595519 C932.482746,266.595519 928.544096,269.441038 928.544096,272.465802 C928.544096,275.804245 933.011099,277.977594 940.600202,277.977594 Z M944.490816,271.143868 L934.211909,271.143868 C934.452069,270.023585 935.989103,268.477594 939.639557,268.477594 C943.578203,268.477594 944.538849,270.135613 944.490816,271.143868 Z M960.725733,277.753538 L960.725733,271.323113 C960.725733,271.009434 960.821797,270.673349 961.013925,270.449292 C961.638346,269.620283 963.271444,268.836085 965.625024,268.836085 C968.843189,268.836085 970.092027,270.023585 970.092027,271.591981 L970.092027,277.753538 L976,277.753538 L976,271.278302 C976,267.82783 971.773158,266.595519 967.690415,266.595519 C963.799798,266.595519 961.254086,267.626179 960.197376,268.477594 L960.05328,268.477594 L959.765087,266.841981 L954.625632,266.841981 C954.721696,267.783019 954.81776,268.836085 954.81776,270.090802 L954.81776,277.753538 L960.725733,277.753538 Z" id="BaranÖnen" fill="url(#linearGradient-4)" fill-rule="nonzero" opacity="0.202317011" transform="translate(857.000000, 268.500000) scale(-1, 1) rotate(-180.000000) translate(-857.000000, -268.500000) "></path>
    </g>
</svg>