<?xml version="1.0" encoding="UTF-8"?>
<svg width="1714px" height="294px" viewBox="0 0 1714 294" version="1.1" xmlns="http://www.w3.org/2000/svg" xmlns:xlink="http://www.w3.org/1999/xlink">
    <title>Artboard</title>
    <defs>
        <linearGradient x1="50%" y1="0%" x2="50%" y2="100%" id="linearGradient-1">
            <stop stop-color="#7C7C7C" offset="0%"></stop>
            <stop stop-color="#424242" offset="100%"></stop>
        </linearGradient>
        <linearGradient x1="50%" y1="0%" x2="50%" y2="100%" id="linearGradient-2">
            <stop stop-color="#484848" offset="0%"></stop>
            <stop stop-color="#2D2D2D" offset="100%"></stop>
        </linearGradient>
        <linearGradient x1="50%" y1="0%" x2="50%" y2="100%" id="linearGradient-3">
            <stop stop-color="#FFFFFF" offset="0%"></stop>
            <stop stop-color="#A0A0A0" offset="99.9827565%"></stop>
        </linearGradient>
        <path d="M532.149142,220.438679 C549.51665,220.438679 560.581433,217.491745 567.304339,211.738208 C572.62664,207.107311 576.268214,200.511792 576.268214,192.091981 C576.268214,179.181604 567.164279,171.323113 557.21998,168.79717 L557.21998,168.376179 C567.4444,164.587264 572.906761,156.728774 572.906761,148.028302 C572.906761,139.889151 568.985066,133.714623 563.102523,130.206368 C556.799798,125.856132 548.816347,124.17217 536.210898,124.17217 C526.40666,124.17217 516.462361,125.154481 511,126.277123 L511,219.175708 C515.481937,219.737028 522.625025,220.438679 532.149142,220.438679 Z M536.911201,163.604953 L528.087386,163.604953 L528.087386,137.643868 C529.908174,137.222877 532.849445,136.942217 537.891625,136.942217 C548.816347,136.942217 555.539253,141.011792 555.539253,149.992925 C555.539253,157.991745 548.956408,163.604953 536.911201,163.604953 Z M537.191322,207.387972 L536.145866,207.387655 C532.740638,207.384492 530.124631,207.3497 528.087386,206.966981 L528.087386,176.09434 L536.63108,176.09434 C548.536226,176.09434 558.200404,180.584906 558.200404,191.670991 C558.200404,203.318396 548.256105,207.387972 537.191322,207.387972 Z M607.641776,221 C616.605651,221 623.748739,217.211085 627.810494,211.878538 L628.230676,211.878538 L629.491221,219.456368 L645.037941,219.456368 C644.197578,215.246462 643.917457,209.212264 643.917457,203.037736 L643.917457,178.479953 C643.917457,163.464623 637.614733,149.571934 615.765288,149.571934 C604.980626,149.571934 596.156811,152.518868 591.114632,155.606132 L594.476085,166.832547 C599.098083,163.885613 606.10111,161.78066 612.824016,161.78066 C624.869223,161.78066 626.69001,169.21816 626.69001,173.708726 L626.69001,174.831368 C601.479112,174.691038 586.212513,183.53184 586.212513,200.652123 C586.212513,211.036557 593.915843,221 607.641776,221 Z M613.104137,208.650943 C607.641776,208.650943 603.299899,205.563679 603.299899,198.82783 C603.299899,188.443396 614.924924,185.917453 627.110192,186.057783 L627.110192,195.459906 C627.110192,196.722877 627.110192,197.985849 626.69001,199.248821 C625.009284,204.160377 620.107164,208.650943 613.104137,208.650943 Z M679.352775,219.456368 L679.352775,183.95283 C679.352775,182.128538 679.492836,180.304245 679.772957,178.760613 C681.313623,170.902123 687.056105,165.709906 695.179617,165.709906 C697.280525,165.709906 698.821191,165.850236 700.361857,166.130896 L700.361857,149.992925 C698.961251,149.712264 697.980827,149.571934 696.300101,149.571934 C688.876892,149.571934 680.893441,154.483491 677.531988,164.025943 L677.111806,164.025943 L676.411504,151.115566 L661.565086,151.115566 C661.985267,157.149764 662.125328,163.885613 662.125328,173.147406 L662.125328,219.456368 L679.352775,219.456368 Z M728.654087,221 C737.617962,221 744.761049,217.211085 748.822805,211.878538 L749.242987,211.878538 L750.503532,219.456368 L766.050252,219.456368 C765.209889,215.246462 764.929768,209.212264 764.929768,203.037736 L764.929768,178.479953 C764.929768,163.464623 758.627043,149.571934 736.777598,149.571934 C725.992936,149.571934 717.169122,152.518868 712.126942,155.606132 L715.488396,166.832547 C720.110394,163.885613 727.113421,161.78066 733.836327,161.78066 C745.881534,161.78066 747.702321,169.21816 747.702321,173.708726 L747.702321,174.831368 C722.491423,174.691038 707.224823,183.53184 707.224823,200.652123 C707.224823,211.036557 714.928153,221 728.654087,221 Z M734.116448,208.650943 C728.654087,208.650943 724.31221,205.563679 724.31221,198.82783 C724.31221,188.443396 735.937235,185.917453 748.122503,186.057783 L748.122503,195.459906 C748.122503,196.722877 748.122503,197.985849 747.702321,199.248821 C746.021594,204.160377 741.119475,208.650943 734.116448,208.650943 Z M800.365086,219.456368 L800.365086,179.181604 C800.365086,177.216981 800.645207,175.112028 801.205449,173.708726 C803.026236,168.516509 807.788295,163.604953 814.651261,163.604953 C824.035318,163.604953 827.676892,171.042453 827.676892,180.865566 L827.676892,219.456368 L844.904339,219.456368 L844.904339,178.900943 C844.904339,157.290094 832.579011,149.571934 820.673865,149.571934 C809.328961,149.571934 801.905752,156.027123 798.82442,161.35967 L798.404238,161.35967 L797.563875,151.115566 L782.577397,151.115566 C782.857518,157.009434 783.137639,163.604953 783.137639,171.463443 L783.137639,219.456368 L800.365086,219.456368 Z M918.436125,118.979953 C923.338244,118.979953 926.699697,115.050708 926.699697,110.560142 C926.699697,105.648585 923.198184,102 918.576186,102 C913.814127,102 910.172553,105.788915 910.172553,110.560142 C910.172553,115.050708 913.674067,118.979953 918.436125,118.979953 Z M946.028052,118.979953 C951.070232,118.979953 954.431685,115.050708 954.431685,110.560142 C954.431685,105.648585 950.930172,102 946.308174,102 C941.406054,102 937.904541,105.788915 937.904541,110.560142 C937.904541,115.050708 941.265994,118.979953 946.028052,118.979953 Z M931.601816,221 C957.513017,221 976.701312,202.897406 976.701312,171.182783 C976.701312,144.099057 960.454289,123.189858 933.002422,123.189858 C906.390918,123.189858 888.042987,143.678066 888.042987,172.866745 C888.042987,200.511792 904.850252,221 931.601816,221 Z M932.44218,207.107311 C915.915035,207.107311 906.250858,191.811321 906.250858,172.445755 C906.250858,152.939858 915.354793,137.082547 932.44218,137.082547 C949.669627,137.082547 958.493441,153.92217 958.493441,171.744104 C958.493441,191.53066 949.109384,207.107311 932.44218,207.107311 Z M1008.07487,219.456368 L1008.07487,179.181604 C1008.07487,177.216981 1008.35499,175.112028 1008.91524,173.708726 C1010.73602,168.516509 1015.49808,163.604953 1022.36105,163.604953 C1031.74511,163.604953 1035.38668,171.042453 1035.38668,180.865566 L1035.38668,219.456368 L1052.61413,219.456368 L1052.61413,178.900943 C1052.61413,157.290094 1040.2888,149.571934 1028.38365,149.571934 C1017.03875,149.571934 1009.61554,156.027123 1006.53421,161.35967 L1006.11403,161.35967 L1005.27366,151.115566 L990.287185,151.115566 C990.567306,157.009434 990.847427,163.604953 990.847427,171.463443 L990.847427,219.456368 L1008.07487,219.456368 Z M1101.77538,220.85967 C1111.57962,220.85967 1119.70313,219.035377 1125.58567,216.509434 L1123.06458,204.721698 C1117.74228,206.545991 1112.13986,207.808962 1104.15641,207.808962 C1093.09162,207.808962 1083.56751,202.476415 1083.14733,190.127358 L1128.80706,190.127358 C1129.08718,188.583726 1129.36731,186.057783 1129.36731,182.830189 C1129.36731,167.814858 1122.08416,149.571934 1099.95459,149.571934 C1078.10515,149.571934 1066.62018,167.393868 1066.62018,186.338443 C1066.62018,207.247642 1079.64581,220.85967 1101.77538,220.85967 Z M1113.12028,178.058962 L1083.14733,178.058962 C1083.84763,171.042453 1088.32957,161.35967 1098.97417,161.35967 C1110.45913,161.35967 1113.26034,171.744104 1113.12028,178.058962 Z M1160.46075,219.456368 L1160.46075,179.181604 C1160.46075,177.216981 1160.74087,175.112028 1161.30111,173.708726 C1163.1219,168.516509 1167.88396,163.604953 1174.74692,163.604953 C1184.13098,163.604953 1187.77255,171.042453 1187.77255,180.865566 L1187.77255,219.456368 L1205,219.456368 L1205,178.900943 C1205,157.290094 1192.67467,149.571934 1180.76953,149.571934 C1169.42462,149.571934 1162.00141,156.027123 1158.92008,161.35967 L1158.4999,161.35967 L1157.65954,151.115566 L1142.67306,151.115566 C1142.95318,157.009434 1143.2333,163.604953 1143.2333,171.463443 L1143.2333,219.456368 L1160.46075,219.456368 Z" id="path-4"></path>
        <filter x="-1.6%" y="-5.9%" width="103.2%" height="118.5%" filterUnits="objectBoundingBox" id="filter-5">
            <feOffset dx="0" dy="4" in="SourceAlpha" result="shadowOffsetOuter1"></feOffset>
            <feGaussianBlur stdDeviation="3" in="shadowOffsetOuter1" result="shadowBlurOuter1"></feGaussianBlur>
            <feColorMatrix values="0 0 0 0 0   0 0 0 0 0   0 0 0 0 0  0 0 0 0.5 0" type="matrix" in="shadowBlurOuter1"></feColorMatrix>
        </filter>
        <linearGradient x1="50%" y1="0%" x2="50%" y2="100%" id="linearGradient-6">
            <stop stop-color="#8C8C8C" offset="0%"></stop>
            <stop stop-color="#DFDFDF" offset="100%"></stop>
        </linearGradient>
    </defs>
    <g id="Artboard" stroke="none" stroke-width="1" fill="none" fill-rule="evenodd">
        <rect id="Rectangle" fill="url(#linearGradient-1)" x="0" y="221" width="1714" height="73"></rect>
        <rect id="Rectangle" fill="url(#linearGradient-2)" x="0" y="0" width="1714" height="221"></rect>
        <g id="BaranÖnen" fill-rule="nonzero">
            <use fill="black" fill-opacity="1" filter="url(#filter-5)" xlink:href="#path-4"></use>
            <use fill="url(#linearGradient-3)" xlink:href="#path-4"></use>
        </g>
        <path d="M532.149142,275.735849 C549.51665,275.735849 560.581433,274.349057 567.304339,271.641509 C572.62664,269.462264 576.268214,266.358491 576.268214,262.396226 C576.268214,256.320755 567.164279,252.622642 557.21998,251.433962 L557.21998,251.235849 C567.4444,249.45283 572.906761,245.754717 572.906761,241.660377 C572.906761,237.830189 568.985066,234.924528 563.102523,233.273585 C556.799798,231.226415 548.816347,230.433962 536.210898,230.433962 C526.40666,230.433962 516.462361,230.896226 511,231.424528 L511,275.141509 C515.481937,275.40566 522.625025,275.735849 532.149142,275.735849 Z M536.911201,248.990566 L528.087386,248.990566 L528.087386,236.773585 C529.908174,236.575472 532.849445,236.443396 537.891625,236.443396 C548.816347,236.443396 555.539253,238.358491 555.539253,242.584906 C555.539253,246.349057 548.956408,248.990566 536.911201,248.990566 Z M537.191322,269.59434 L535.847448,269.594017 C532.587256,269.591598 530.064712,269.571032 528.087386,269.396226 L528.087386,254.867925 L536.63108,254.867925 C548.536226,254.867925 558.200404,256.981132 558.200404,262.198113 C558.200404,267.679245 548.256105,269.59434 537.191322,269.59434 Z M607.641776,276 C616.605651,276 623.748739,274.216981 627.810494,271.707547 L628.230676,271.707547 L629.491221,275.273585 L645.037941,275.273585 C644.197578,273.292453 643.917457,270.45283 643.917457,267.54717 L643.917457,255.990566 C643.917457,248.924528 637.614733,242.386792 615.765288,242.386792 C604.980626,242.386792 596.156811,243.773585 591.114632,245.226415 L594.476085,250.509434 C599.098083,249.122642 606.10111,248.132075 612.824016,248.132075 C624.869223,248.132075 626.69001,251.632075 626.69001,253.745283 L626.69001,254.273585 C601.479112,254.207547 586.212513,258.367925 586.212513,266.424528 C586.212513,271.311321 593.915843,276 607.641776,276 Z M613.104137,270.188679 C607.641776,270.188679 603.299899,268.735849 603.299899,265.566038 C603.299899,260.679245 614.924924,259.490566 627.110192,259.556604 L627.110192,263.981132 C627.110192,264.575472 627.110192,265.169811 626.69001,265.764151 C625.009284,268.075472 620.107164,270.188679 613.104137,270.188679 Z M679.352775,275.273585 L679.352775,258.566038 C679.352775,257.707547 679.492836,256.849057 679.772957,256.122642 C681.313623,252.424528 687.056105,249.981132 695.179617,249.981132 C697.280525,249.981132 698.821191,250.04717 700.361857,250.179245 L700.361857,242.584906 C698.961251,242.45283 697.980827,242.386792 696.300101,242.386792 C688.876892,242.386792 680.893441,244.698113 677.531988,249.188679 L677.111806,249.188679 L676.411504,243.113208 L661.565086,243.113208 C661.985267,245.95283 662.125328,249.122642 662.125328,253.481132 L662.125328,275.273585 L679.352775,275.273585 Z M728.654087,276 C737.617962,276 744.761049,274.216981 748.822805,271.707547 L749.242987,271.707547 L750.503532,275.273585 L766.050252,275.273585 C765.209889,273.292453 764.929768,270.45283 764.929768,267.54717 L764.929768,255.990566 C764.929768,248.924528 758.627043,242.386792 736.777598,242.386792 C725.992936,242.386792 717.169122,243.773585 712.126942,245.226415 L715.488396,250.509434 C720.110394,249.122642 727.113421,248.132075 733.836327,248.132075 C745.881534,248.132075 747.702321,251.632075 747.702321,253.745283 L747.702321,254.273585 C722.491423,254.207547 707.224823,258.367925 707.224823,266.424528 C707.224823,271.311321 714.928153,276 728.654087,276 Z M734.116448,270.188679 C728.654087,270.188679 724.31221,268.735849 724.31221,265.566038 C724.31221,260.679245 735.937235,259.490566 748.122503,259.556604 L748.122503,263.981132 C748.122503,264.575472 748.122503,265.169811 747.702321,265.764151 C746.021594,268.075472 741.119475,270.188679 734.116448,270.188679 Z M800.365086,275.273585 L800.365086,256.320755 C800.365086,255.396226 800.645207,254.40566 801.205449,253.745283 C803.026236,251.301887 807.788295,248.990566 814.651261,248.990566 C824.035318,248.990566 827.676892,252.490566 827.676892,257.113208 L827.676892,275.273585 L844.904339,275.273585 L844.904339,256.188679 C844.904339,246.018868 832.579011,242.386792 820.673865,242.386792 C809.328961,242.386792 801.905752,245.424528 798.82442,247.933962 L798.404238,247.933962 L797.563875,243.113208 L782.577397,243.113208 C782.857518,245.886792 783.137639,248.990566 783.137639,252.688679 L783.137639,275.273585 L800.365086,275.273585 Z M918.436125,227.990566 C923.338244,227.990566 926.699697,226.141509 926.699697,224.028302 C926.699697,221.716981 923.198184,220 918.576186,220 C913.814127,220 910.172553,221.783019 910.172553,224.028302 C910.172553,226.141509 913.674067,227.990566 918.436125,227.990566 Z M946.028052,227.990566 C951.070232,227.990566 954.431685,226.141509 954.431685,224.028302 C954.431685,221.716981 950.930172,220 946.308174,220 C941.406054,220 937.904541,221.783019 937.904541,224.028302 C937.904541,226.141509 941.265994,227.990566 946.028052,227.990566 Z M931.601816,276 C957.513017,276 976.701312,267.481132 976.701312,252.556604 C976.701312,239.811321 960.454289,229.971698 933.002422,229.971698 C906.390918,229.971698 888.042987,239.613208 888.042987,253.349057 C888.042987,266.358491 904.850252,276 931.601816,276 Z M932.44218,269.462264 C915.915035,269.462264 906.250858,262.264151 906.250858,253.150943 C906.250858,243.971698 915.354793,236.509434 932.44218,236.509434 C949.669627,236.509434 958.493441,244.433962 958.493441,252.820755 C958.493441,262.132075 949.109384,269.462264 932.44218,269.462264 Z M1008.07487,275.273585 L1008.07487,256.320755 C1008.07487,255.396226 1008.35499,254.40566 1008.91524,253.745283 C1010.73602,251.301887 1015.49808,248.990566 1022.36105,248.990566 C1031.74511,248.990566 1035.38668,252.490566 1035.38668,257.113208 L1035.38668,275.273585 L1052.61413,275.273585 L1052.61413,256.188679 C1052.61413,246.018868 1040.2888,242.386792 1028.38365,242.386792 C1017.03875,242.386792 1009.61554,245.424528 1006.53421,247.933962 L1006.11403,247.933962 L1005.27366,243.113208 L990.287185,243.113208 C990.567306,245.886792 990.847427,248.990566 990.847427,252.688679 L990.847427,275.273585 L1008.07487,275.273585 Z M1101.77538,275.933962 C1111.57962,275.933962 1119.70313,275.075472 1125.58567,273.886792 L1123.06458,268.339623 C1117.74228,269.198113 1112.13986,269.792453 1104.15641,269.792453 C1093.09162,269.792453 1083.56751,267.283019 1083.14733,261.471698 L1128.80706,261.471698 C1129.08718,260.745283 1129.36731,259.556604 1129.36731,258.037736 C1129.36731,250.971698 1122.08416,242.386792 1099.95459,242.386792 C1078.10515,242.386792 1066.62018,250.773585 1066.62018,259.688679 C1066.62018,269.528302 1079.64581,275.933962 1101.77538,275.933962 Z M1113.12028,255.792453 L1083.14733,255.792453 C1083.84763,252.490566 1088.32957,247.933962 1098.97417,247.933962 C1110.45913,247.933962 1113.26034,252.820755 1113.12028,255.792453 Z M1160.46075,275.273585 L1160.46075,256.320755 C1160.46075,255.396226 1160.74087,254.40566 1161.30111,253.745283 C1163.1219,251.301887 1167.88396,248.990566 1174.74692,248.990566 C1184.13098,248.990566 1187.77255,252.490566 1187.77255,257.113208 L1187.77255,275.273585 L1205,275.273585 L1205,256.188679 C1205,246.018868 1192.67467,242.386792 1180.76953,242.386792 C1169.42462,242.386792 1162.00141,245.424528 1158.92008,247.933962 L1158.4999,247.933962 L1157.65954,243.113208 L1142.67306,243.113208 C1142.95318,245.886792 1143.2333,248.990566 1143.2333,252.688679 L1143.2333,275.273585 L1160.46075,275.273585 Z" id="BaranÖnen" fill="url(#linearGradient-6)" fill-rule="nonzero" opacity="0.202317011" transform="translate(858.000000, 248.000000) scale(1, -1) translate(-858.000000, -248.000000) "></path>
    </g>
</svg>