<?xml version="1.0" encoding="UTF-8"?>
<svg width="1714px" height="294px" viewBox="0 0 1714 294" version="1.1" xmlns="http://www.w3.org/2000/svg" xmlns:xlink="http://www.w3.org/1999/xlink">
    <title>Artboard</title>
    <defs>
        <linearGradient x1="50%" y1="0%" x2="50%" y2="100%" id="linearGradient-1">
            <stop stop-color="#7C7C7C" offset="0%"></stop>
            <stop stop-color="#424242" offset="100%"></stop>
        </linearGradient>
        <linearGradient x1="50%" y1="0%" x2="50%" y2="100%" id="linearGradient-2">
            <stop stop-color="#484848" offset="0%"></stop>
            <stop stop-color="#2D2D2D" offset="100%"></stop>
        </linearGradient>
        <linearGradient x1="50%" y1="0%" x2="50%" y2="100%" id="linearGradient-3">
            <stop stop-color="#FFFFFF" offset="0%"></stop>
            <stop stop-color="#A0A0A0" offset="99.9827565%"></stop>
        </linearGradient>
        <linearGradient x1="50%" y1="0%" x2="50%" y2="100%" id="linearGradient-4">
            <stop stop-color="#8C8C8C" offset="0%"></stop>
            <stop stop-color="#DFDFDF" offset="100%"></stop>
        </linearGradient>
    </defs>
    <g id="Artboard" stroke="none" stroke-width="1" fill="none" fill-rule="evenodd">
        <rect id="Rectangle" fill="url(#linearGradient-1)" fill-rule="nonzero" x="0" y="240" width="1714" height="54"></rect>
        <rect id="Rectangle" fill="url(#linearGradient-2)" fill-rule="nonzero" x="0" y="0" width="1714" height="240"></rect>
        <g id="BaranÖnen" transform="translate(614.000000, 157.000000)" fill-rule="nonzero">
            <g id="path-4-link" fill="#000000">
                <path d="M14.8043994,82.9070753 C26.961655,82.9070753 34.7070031,80.8442215 39.4130373,76.8167456 C43.138648,73.5751177 45.6877498,68.9582544 45.6877498,63.0643867 C45.6877498,54.0271228 39.3149953,48.5261791 32.353986,46.758019 L32.353986,46.4633253 C39.51108,43.8110848 43.3347327,38.3101418 43.3347327,32.2198114 C43.3347327,26.5224057 40.5895462,22.2002361 36.4717661,19.7444576 C32.0598586,16.6992924 26.4714429,15.520519 17.6476286,15.520519 C10.784662,15.520519 3.8236527,16.2081367 0,16.9939861 L0,82.0229956 C3.1373559,82.4159196 8.1375175,82.9070753 14.8043994,82.9070753 Z M18.1378407,43.1234671 L11.9611702,43.1234671 L11.9611702,24.9507076 C13.2357218,24.6560139 15.2946115,24.4595519 18.8241375,24.4595519 C26.4714429,24.4595519 31.1774771,27.3082544 31.1774771,33.5950475 C31.1774771,39.1942215 26.5694856,43.1234671 18.1378407,43.1234671 Z M18.3339254,73.7715804 L17.6021062,73.7713585 C15.2184466,73.7691444 13.3872417,73.74479 11.9611702,73.4768867 L11.9611702,51.866038 L17.941756,51.866038 C26.2753582,51.866038 33.0402828,55.0094342 33.0402828,62.7696937 C33.0402828,70.9228772 26.0792735,73.7715804 18.3339254,73.7715804 Z M67.6492432,83.3 C73.9239557,83.3 78.9241173,80.6477595 81.7673458,76.9149766 L82.0614732,76.9149766 L82.9438547,82.2194576 L93.8265587,82.2194576 C93.2383046,79.2725234 93.0422199,75.0485848 93.0422199,70.7264152 L93.0422199,53.5359671 C93.0422199,43.0252361 88.6303131,33.3003538 73.3357016,33.3003538 C65.7864382,33.3003538 59.6097677,35.3632076 56.0802424,37.5242924 L58.4332595,45.3827829 C61.6686581,43.3199291 66.570777,41.846462 71.2768112,41.846462 C79.7084561,41.846462 80.983007,47.052712 80.983007,50.1961082 L80.983007,50.9819576 C63.3353784,50.8837266 52.6487591,57.072288 52.6487591,69.0564861 C52.6487591,76.3255899 58.0410901,83.3 67.6492432,83.3 Z M71.4728959,74.6556601 C67.6492432,74.6556601 64.6099293,72.4945753 64.6099293,67.779481 C64.6099293,60.5103772 72.7474468,58.7422171 81.2771344,58.8404481 L81.2771344,65.4219342 C81.2771344,66.3060139 81.2771344,67.1900943 80.983007,68.0741747 C79.8064988,71.5122639 76.3750148,74.6556601 71.4728959,74.6556601 Z M117.846943,82.2194576 L117.846943,57.366981 C117.846943,56.0899766 117.944985,54.8129715 118.14107,53.7324291 C119.219536,48.2314861 123.239274,44.5969342 128.925732,44.5969342 C130.396368,44.5969342 131.474834,44.6951652 132.5533,44.8916272 L132.5533,33.5950475 C131.572876,33.3985848 130.886579,33.3003538 129.710071,33.3003538 C124.513824,33.3003538 118.925409,36.7384437 116.572392,43.4181601 L116.278264,43.4181601 L115.788053,34.3808962 L105.39556,34.3808962 C105.689687,38.6048348 105.78773,43.3199291 105.78773,49.8031842 L105.78773,82.2194576 L117.846943,82.2194576 Z M152.357861,83.3 C158.632573,83.3 163.632734,80.6477595 166.475963,76.9149766 L166.770091,76.9149766 L167.652472,82.2194576 L178.535176,82.2194576 C177.946922,79.2725234 177.750838,75.0485848 177.750838,70.7264152 L177.750838,53.5359671 C177.750838,43.0252361 173.33893,33.3003538 158.044319,33.3003538 C150.495055,33.3003538 144.318385,35.3632076 140.788859,37.5242924 L143.141877,45.3827829 C146.377276,43.3199291 151.279395,41.846462 155.985429,41.846462 C164.417074,41.846462 165.691625,47.052712 165.691625,50.1961082 L165.691625,50.9819576 C148.043996,50.8837266 137.357376,57.072288 137.357376,69.0564861 C137.357376,76.3255899 142.749707,83.3 152.357861,83.3 Z M156.181514,74.6556601 C152.357861,74.6556601 149.318547,72.4945753 149.318547,67.779481 C149.318547,60.5103772 157.456064,58.7422171 165.985752,58.8404481 L165.985752,65.4219342 C165.985752,66.3060139 165.985752,67.1900943 165.691625,68.0741747 C164.515116,71.5122639 161.083632,74.6556601 156.181514,74.6556601 Z M202.55556,82.2194576 L202.55556,54.0271228 C202.55556,52.6518867 202.751645,51.1784196 203.143814,50.1961082 C204.418365,46.5615563 207.751806,43.1234671 212.555883,43.1234671 C219.124723,43.1234671 221.673824,48.3297171 221.673824,55.2058962 L221.673824,82.2194576 L233.733037,82.2194576 L233.733037,53.8306601 C233.733037,38.7030658 225.105308,33.3003538 216.771705,33.3003538 C208.830273,33.3003538 203.634026,37.8189861 201.477094,41.551769 L201.182967,41.551769 L200.594713,34.3808962 L190.104178,34.3808962 C190.300263,38.5066038 190.496347,43.1234671 190.496347,48.6244101 L190.496347,82.2194576 L202.55556,82.2194576 Z M285.205287,11.8859671 C288.636771,11.8859671 290.989788,9.1354956 290.989788,5.9920994 C290.989788,2.5540095 288.538729,0 285.30333,0 C281.969889,0 279.420787,2.6522405 279.420787,5.9920994 C279.420787,9.1354956 281.871847,11.8859671 285.205287,11.8859671 Z M304.519636,11.8859671 C308.049162,11.8859671 310.402179,9.1354956 310.402179,5.9920994 C310.402179,2.5540095 307.95112,0 304.715722,0 C301.284238,0 298.833179,2.6522405 298.833179,5.9920994 C298.833179,9.1354956 301.186196,11.8859671 304.519636,11.8859671 Z M294.421271,83.3 C312.559112,83.3 325.990918,70.6281842 325.990918,48.4279481 C325.990918,29.4693399 314.618002,14.8329006 295.401695,14.8329006 C276.773643,14.8329006 263.930091,29.1746462 263.930091,49.6067215 C263.930091,68.9582544 275.695176,83.3 294.421271,83.3 Z M295.009526,73.5751177 C283.440524,73.5751177 276.675601,62.8679247 276.675601,49.3120285 C276.675601,35.6579006 283.048355,24.5577829 295.009526,24.5577829 C307.068739,24.5577829 313.245409,36.345519 313.245409,48.8208728 C313.245409,62.671462 306.676569,73.5751177 295.009526,73.5751177 Z M347.952409,82.2194576 L347.952409,54.0271228 C347.952409,52.6518867 348.148493,51.1784196 348.540668,50.1961082 C349.815214,46.5615563 353.148656,43.1234671 357.952735,43.1234671 C364.521577,43.1234671 367.070676,48.3297171 367.070676,55.2058962 L367.070676,82.2194576 L379.129891,82.2194576 L379.129891,53.8306601 C379.129891,38.7030658 370.50216,33.3003538 362.168555,33.3003538 C354.227125,33.3003538 349.030878,37.8189861 346.873947,41.551769 L346.579821,41.551769 L345.991562,34.3808962 L335.50103,34.3808962 C335.697114,38.5066038 335.893199,43.1234671 335.893199,48.6244101 L335.893199,82.2194576 L347.952409,82.2194576 Z M413.542766,83.201769 C420.405734,83.201769 426.092191,81.9247639 430.209969,80.1566038 L428.445206,71.9051886 C424.719596,73.1821937 420.797902,74.0662734 415.209487,74.0662734 C407.464134,74.0662734 400.797257,70.3334905 400.503131,61.6891506 L432.464942,61.6891506 C432.661026,60.6086082 432.857117,58.8404481 432.857117,56.5811323 C432.857117,46.0704006 427.758912,33.3003538 412.268213,33.3003538 C396.973605,33.3003538 388.934126,45.7757076 388.934126,59.0369101 C388.934126,73.6733494 398.052067,83.201769 413.542766,83.201769 Z M421.484196,53.2412734 L400.503131,53.2412734 C400.993341,48.3297171 404.130699,41.551769 411.581919,41.551769 C419.621391,41.551769 421.582238,48.8208728 421.484196,53.2412734 Z M454.622525,82.2194576 L454.622525,54.0271228 C454.622525,52.6518867 454.818609,51.1784196 455.210777,50.1961082 C456.48533,46.5615563 459.818772,43.1234671 464.622844,43.1234671 C471.191686,43.1234671 473.740785,48.3297171 473.740785,55.2058962 L473.740785,82.2194576 L485.8,82.2194576 L485.8,53.8306601 C485.8,38.7030658 477.172269,33.3003538 468.838671,33.3003538 C460.897234,33.3003538 455.700987,37.8189861 453.544056,41.551769 L453.24993,41.551769 L452.661678,34.3808962 L442.171142,34.3808962 C442.367226,38.5066038 442.56331,43.1234671 442.56331,48.6244101 L442.56331,82.2194576 L454.622525,82.2194576 Z" id="path-4"></path>
            </g>
            <g id="path-4-link" fill="url(#linearGradient-3)">
                <path d="M14.8043994,82.9070753 C26.961655,82.9070753 34.7070031,80.8442215 39.4130373,76.8167456 C43.138648,73.5751177 45.6877498,68.9582544 45.6877498,63.0643867 C45.6877498,54.0271228 39.3149953,48.5261791 32.353986,46.758019 L32.353986,46.4633253 C39.51108,43.8110848 43.3347327,38.3101418 43.3347327,32.2198114 C43.3347327,26.5224057 40.5895462,22.2002361 36.4717661,19.7444576 C32.0598586,16.6992924 26.4714429,15.520519 17.6476286,15.520519 C10.784662,15.520519 3.8236527,16.2081367 0,16.9939861 L0,82.0229956 C3.1373559,82.4159196 8.1375175,82.9070753 14.8043994,82.9070753 Z M18.1378407,43.1234671 L11.9611702,43.1234671 L11.9611702,24.9507076 C13.2357218,24.6560139 15.2946115,24.4595519 18.8241375,24.4595519 C26.4714429,24.4595519 31.1774771,27.3082544 31.1774771,33.5950475 C31.1774771,39.1942215 26.5694856,43.1234671 18.1378407,43.1234671 Z M18.3339254,73.7715804 L17.6021062,73.7713585 C15.2184466,73.7691444 13.3872417,73.74479 11.9611702,73.4768867 L11.9611702,51.866038 L17.941756,51.866038 C26.2753582,51.866038 33.0402828,55.0094342 33.0402828,62.7696937 C33.0402828,70.9228772 26.0792735,73.7715804 18.3339254,73.7715804 Z M67.6492432,83.3 C73.9239557,83.3 78.9241173,80.6477595 81.7673458,76.9149766 L82.0614732,76.9149766 L82.9438547,82.2194576 L93.8265587,82.2194576 C93.2383046,79.2725234 93.0422199,75.0485848 93.0422199,70.7264152 L93.0422199,53.5359671 C93.0422199,43.0252361 88.6303131,33.3003538 73.3357016,33.3003538 C65.7864382,33.3003538 59.6097677,35.3632076 56.0802424,37.5242924 L58.4332595,45.3827829 C61.6686581,43.3199291 66.570777,41.846462 71.2768112,41.846462 C79.7084561,41.846462 80.983007,47.052712 80.983007,50.1961082 L80.983007,50.9819576 C63.3353784,50.8837266 52.6487591,57.072288 52.6487591,69.0564861 C52.6487591,76.3255899 58.0410901,83.3 67.6492432,83.3 Z M71.4728959,74.6556601 C67.6492432,74.6556601 64.6099293,72.4945753 64.6099293,67.779481 C64.6099293,60.5103772 72.7474468,58.7422171 81.2771344,58.8404481 L81.2771344,65.4219342 C81.2771344,66.3060139 81.2771344,67.1900943 80.983007,68.0741747 C79.8064988,71.5122639 76.3750148,74.6556601 71.4728959,74.6556601 Z M117.846943,82.2194576 L117.846943,57.366981 C117.846943,56.0899766 117.944985,54.8129715 118.14107,53.7324291 C119.219536,48.2314861 123.239274,44.5969342 128.925732,44.5969342 C130.396368,44.5969342 131.474834,44.6951652 132.5533,44.8916272 L132.5533,33.5950475 C131.572876,33.3985848 130.886579,33.3003538 129.710071,33.3003538 C124.513824,33.3003538 118.925409,36.7384437 116.572392,43.4181601 L116.278264,43.4181601 L115.788053,34.3808962 L105.39556,34.3808962 C105.689687,38.6048348 105.78773,43.3199291 105.78773,49.8031842 L105.78773,82.2194576 L117.846943,82.2194576 Z M152.357861,83.3 C158.632573,83.3 163.632734,80.6477595 166.475963,76.9149766 L166.770091,76.9149766 L167.652472,82.2194576 L178.535176,82.2194576 C177.946922,79.2725234 177.750838,75.0485848 177.750838,70.7264152 L177.750838,53.5359671 C177.750838,43.0252361 173.33893,33.3003538 158.044319,33.3003538 C150.495055,33.3003538 144.318385,35.3632076 140.788859,37.5242924 L143.141877,45.3827829 C146.377276,43.3199291 151.279395,41.846462 155.985429,41.846462 C164.417074,41.846462 165.691625,47.052712 165.691625,50.1961082 L165.691625,50.9819576 C148.043996,50.8837266 137.357376,57.072288 137.357376,69.0564861 C137.357376,76.3255899 142.749707,83.3 152.357861,83.3 Z M156.181514,74.6556601 C152.357861,74.6556601 149.318547,72.4945753 149.318547,67.779481 C149.318547,60.5103772 157.456064,58.7422171 165.985752,58.8404481 L165.985752,65.4219342 C165.985752,66.3060139 165.985752,67.1900943 165.691625,68.0741747 C164.515116,71.5122639 161.083632,74.6556601 156.181514,74.6556601 Z M202.55556,82.2194576 L202.55556,54.0271228 C202.55556,52.6518867 202.751645,51.1784196 203.143814,50.1961082 C204.418365,46.5615563 207.751806,43.1234671 212.555883,43.1234671 C219.124723,43.1234671 221.673824,48.3297171 221.673824,55.2058962 L221.673824,82.2194576 L233.733037,82.2194576 L233.733037,53.8306601 C233.733037,38.7030658 225.105308,33.3003538 216.771705,33.3003538 C208.830273,33.3003538 203.634026,37.8189861 201.477094,41.551769 L201.182967,41.551769 L200.594713,34.3808962 L190.104178,34.3808962 C190.300263,38.5066038 190.496347,43.1234671 190.496347,48.6244101 L190.496347,82.2194576 L202.55556,82.2194576 Z M285.205287,11.8859671 C288.636771,11.8859671 290.989788,9.1354956 290.989788,5.9920994 C290.989788,2.5540095 288.538729,0 285.30333,0 C281.969889,0 279.420787,2.6522405 279.420787,5.9920994 C279.420787,9.1354956 281.871847,11.8859671 285.205287,11.8859671 Z M304.519636,11.8859671 C308.049162,11.8859671 310.402179,9.1354956 310.402179,5.9920994 C310.402179,2.5540095 307.95112,0 304.715722,0 C301.284238,0 298.833179,2.6522405 298.833179,5.9920994 C298.833179,9.1354956 301.186196,11.8859671 304.519636,11.8859671 Z M294.421271,83.3 C312.559112,83.3 325.990918,70.6281842 325.990918,48.4279481 C325.990918,29.4693399 314.618002,14.8329006 295.401695,14.8329006 C276.773643,14.8329006 263.930091,29.1746462 263.930091,49.6067215 C263.930091,68.9582544 275.695176,83.3 294.421271,83.3 Z M295.009526,73.5751177 C283.440524,73.5751177 276.675601,62.8679247 276.675601,49.3120285 C276.675601,35.6579006 283.048355,24.5577829 295.009526,24.5577829 C307.068739,24.5577829 313.245409,36.345519 313.245409,48.8208728 C313.245409,62.671462 306.676569,73.5751177 295.009526,73.5751177 Z M347.952409,82.2194576 L347.952409,54.0271228 C347.952409,52.6518867 348.148493,51.1784196 348.540668,50.1961082 C349.815214,46.5615563 353.148656,43.1234671 357.952735,43.1234671 C364.521577,43.1234671 367.070676,48.3297171 367.070676,55.2058962 L367.070676,82.2194576 L379.129891,82.2194576 L379.129891,53.8306601 C379.129891,38.7030658 370.50216,33.3003538 362.168555,33.3003538 C354.227125,33.3003538 349.030878,37.8189861 346.873947,41.551769 L346.579821,41.551769 L345.991562,34.3808962 L335.50103,34.3808962 C335.697114,38.5066038 335.893199,43.1234671 335.893199,48.6244101 L335.893199,82.2194576 L347.952409,82.2194576 Z M413.542766,83.201769 C420.405734,83.201769 426.092191,81.9247639 430.209969,80.1566038 L428.445206,71.9051886 C424.719596,73.1821937 420.797902,74.0662734 415.209487,74.0662734 C407.464134,74.0662734 400.797257,70.3334905 400.503131,61.6891506 L432.464942,61.6891506 C432.661026,60.6086082 432.857117,58.8404481 432.857117,56.5811323 C432.857117,46.0704006 427.758912,33.3003538 412.268213,33.3003538 C396.973605,33.3003538 388.934126,45.7757076 388.934126,59.0369101 C388.934126,73.6733494 398.052067,83.201769 413.542766,83.201769 Z M421.484196,53.2412734 L400.503131,53.2412734 C400.993341,48.3297171 404.130699,41.551769 411.581919,41.551769 C419.621391,41.551769 421.582238,48.8208728 421.484196,53.2412734 Z M454.622525,82.2194576 L454.622525,54.0271228 C454.622525,52.6518867 454.818609,51.1784196 455.210777,50.1961082 C456.48533,46.5615563 459.818772,43.1234671 464.622844,43.1234671 C471.191686,43.1234671 473.740785,48.3297171 473.740785,55.2058962 L473.740785,82.2194576 L485.8,82.2194576 L485.8,53.8306601 C485.8,38.7030658 477.172269,33.3003538 468.838671,33.3003538 C460.897234,33.3003538 455.700987,37.8189861 453.544056,41.551769 L453.24993,41.551769 L452.661678,34.3808962 L442.171142,34.3808962 C442.367226,38.5066038 442.56331,43.1234671 442.56331,48.6244101 L442.56331,82.2194576 L454.622525,82.2194576 Z" id="path-4"></path>
            </g>
        </g>
        <path d="M628.810494,278.816038 C640.972755,278.816038 648.721292,277.850236 653.429263,275.964622 C657.156408,274.446934 659.706559,272.285378 659.706559,269.525943 C659.706559,265.294812 653.331181,262.71934 646.367306,261.891509 L646.367306,261.753538 C653.527346,260.511792 657.352573,257.936321 657.352573,255.084905 C657.352573,252.417453 654.606257,250.393868 650.486781,249.244104 C646.073057,247.818396 640.482341,247.266509 631.654894,247.266509 C624.789102,247.266509 617.825227,247.588443 614,247.956368 L614,278.402122 C617.138648,278.586085 622.140868,278.816038 628.810494,278.816038 Z M632.145308,260.189858 L625.966095,260.189858 L625.966095,251.681604 C627.241171,251.543632 629.300908,251.451651 632.831887,251.451651 C640.482341,251.451651 645.190313,252.785378 645.190313,255.728774 C645.190313,258.350236 640.580424,260.189858 632.145308,260.189858 Z M632.341473,274.538915 L631.400374,274.53869 C629.1173,274.537006 627.350793,274.522683 625.966095,274.400943 L625.966095,264.283019 L631.949142,264.283019 C640.286176,264.283019 647.053885,265.754717 647.053885,269.387972 C647.053885,273.205188 640.09001,274.538915 632.341473,274.538915 Z M681.677094,279 C687.95439,279 692.95661,277.758255 695.801009,276.010613 L696.095257,276.010613 L696.978002,278.494104 L707.865186,278.494104 C707.27669,277.114387 707.080525,275.136792 707.080525,273.113208 L707.080525,265.064858 C707.080525,260.143868 702.666801,255.590802 687.365893,255.590802 C679.813522,255.590802 673.634309,256.556604 670.10333,257.568396 L672.457316,261.247642 C675.694047,260.28184 680.598184,259.591981 685.306155,259.591981 C693.741271,259.591981 695.016347,262.029481 695.016347,263.501179 L695.016347,263.869104 C677.361453,263.823113 666.670434,266.720519 666.670434,272.331368 C666.670434,275.73467 672.064985,279 681.677094,279 Z M685.502321,274.95283 C681.677094,274.95283 678.636529,273.941038 678.636529,271.733491 C678.636529,268.330188 686.777396,267.502358 695.310596,267.548349 L695.310596,270.629717 C695.310596,271.043632 695.310596,271.457547 695.016347,271.871462 C693.839355,273.481132 690.406458,274.95283 685.502321,274.95283 Z M731.895459,278.494104 L731.895459,266.858491 C731.895459,266.260613 731.993542,265.662736 732.189708,265.15684 C733.268618,262.581368 737.29001,260.879717 742.97881,260.879717 C744.450051,260.879717 745.528961,260.925708 746.607871,261.017688 L746.607871,255.728774 C745.627043,255.636792 744.940464,255.590802 743.763471,255.590802 C738.565086,255.590802 732.974369,257.200472 730.620384,260.32783 L730.326135,260.32783 L729.835722,256.096698 L719.438951,256.096698 C719.733199,258.074292 719.831282,260.28184 719.831282,263.317217 L719.831282,278.494104 L731.895459,278.494104 Z M766.420585,279 C772.697881,279 777.700101,277.758255 780.5445,276.010613 L780.838749,276.010613 L781.721494,278.494104 L792.608678,278.494104 C792.020182,277.114387 791.824016,275.136792 791.824016,273.113208 L791.824016,265.064858 C791.824016,260.143868 787.410292,255.590802 772.109384,255.590802 C764.557013,255.590802 758.3778,256.556604 754.846821,257.568396 L757.200808,261.247642 C760.437538,260.28184 765.341675,259.591981 770.049647,259.591981 C778.484763,259.591981 779.759839,262.029481 779.759839,263.501179 L779.759839,263.869104 C762.104945,263.823113 751.413925,266.720519 751.413925,272.331368 C751.413925,275.73467 756.808476,279 766.420585,279 Z M770.245812,274.95283 C766.420585,274.95283 763.38002,273.941038 763.38002,271.733491 C763.38002,268.330188 771.520888,267.502358 780.054087,267.548349 L780.054087,270.629717 C780.054087,271.043632 780.054087,271.457547 779.759839,271.871462 C778.582845,273.481132 775.149949,274.95283 770.245812,274.95283 Z M816.638951,278.494104 L816.638951,265.294812 C816.638951,264.650943 816.835116,263.961085 817.227447,263.501179 C818.502523,261.799528 821.837336,260.189858 826.64339,260.189858 C833.214935,260.189858 835.765086,262.627358 835.765086,265.846698 L835.765086,278.494104 L847.829263,278.494104 L847.829263,265.20283 C847.829263,258.120283 839.197982,255.590802 830.860949,255.590802 C822.916246,255.590802 817.717861,257.706368 815.560041,259.454009 L815.265792,259.454009 L814.677296,256.096698 L804.182442,256.096698 C804.378608,258.028302 804.574773,260.189858 804.574773,262.76533 L804.574773,278.494104 L816.638951,278.494104 Z M899.322704,245.564858 C902.7556,245.564858 905.109586,244.277122 905.109586,242.805425 C905.109586,241.195755 902.657518,240 899.420787,240 C896.085974,240 893.535822,241.241745 893.535822,242.805425 C893.535822,244.277122 895.987891,245.564858 899.322704,245.564858 Z M918.645005,245.564858 C922.175984,245.564858 924.52997,244.277122 924.52997,242.805425 C924.52997,241.195755 922.077901,240 918.841171,240 C915.408274,240 912.956206,241.241745 912.956206,242.805425 C912.956206,244.277122 915.310192,245.564858 918.645005,245.564858 Z M908.542482,279 C926.68779,279 940.125126,273.067217 940.125126,262.673349 C940.125126,253.79717 928.747528,246.944575 909.52331,246.944575 C890.887588,246.944575 878.038749,253.659198 878.038749,263.225236 C878.038749,272.285378 889.808678,279 908.542482,279 Z M909.130979,274.446934 C897.557215,274.446934 890.789506,269.433962 890.789506,263.087264 C890.789506,256.694575 897.164884,251.497642 909.130979,251.497642 C921.195157,251.497642 927.374369,257.016509 927.374369,262.857312 C927.374369,269.341981 920.802825,274.446934 909.130979,274.446934 Z M962.095658,278.494104 L962.095658,265.294812 C962.095658,264.650943 962.291823,263.961085 962.684159,263.501179 C963.95923,261.799528 967.294044,260.189858 972.100101,260.189858 C978.671648,260.189858 981.221796,262.627358 981.221796,265.846698 L981.221796,278.494104 L993.285976,278.494104 L993.285976,265.20283 C993.285976,258.120283 984.654693,255.590802 976.317657,255.590802 C968.372957,255.590802 963.174571,257.706368 961.016752,259.454009 L960.722505,259.454009 L960.134004,256.096698 L949.639153,256.096698 C949.835318,258.028302 950.031483,260.189858 950.031483,262.76533 L950.031483,278.494104 L962.095658,278.494104 Z M1027.71302,278.954009 C1034.57881,278.954009 1040.26761,278.356132 1044.38708,277.528302 L1042.62159,273.665095 C1038.89445,274.262972 1034.97114,274.676887 1029.38043,274.676887 C1021.63188,274.676887 1014.96226,272.929245 1014.66801,268.882075 L1046.64298,268.882075 C1046.83915,268.376179 1047.03532,267.548349 1047.03532,266.490566 C1047.03532,261.569575 1041.93502,255.590802 1026.43794,255.590802 C1011.13704,255.590802 1003.09425,261.431604 1003.09425,267.64033 C1003.09425,274.492925 1012.21594,278.954009 1027.71302,278.954009 Z M1035.65772,264.926887 L1014.66801,264.926887 C1015.15843,262.627358 1018.29708,259.454009 1025.75136,259.454009 C1033.79415,259.454009 1035.7558,262.857312 1035.65772,264.926887 Z M1068.80969,278.494104 L1068.80969,265.294812 C1068.80969,264.650943 1069.00585,263.961085 1069.39818,263.501179 C1070.67326,261.799528 1074.00808,260.189858 1078.81413,260.189858 C1085.38567,260.189858 1087.93582,262.627358 1087.93582,265.846698 L1087.93582,278.494104 L1100,278.494104 L1100,265.20283 C1100,258.120283 1091.36872,255.590802 1083.03169,255.590802 C1075.08698,255.590802 1069.8886,257.706368 1067.73078,259.454009 L1067.43653,259.454009 L1066.84804,256.096698 L1056.35318,256.096698 C1056.54935,258.028302 1056.74551,260.189858 1056.74551,262.76533 L1056.74551,278.494104 L1068.80969,278.494104 Z" id="BaranÖnen" fill="url(#linearGradient-4)" fill-rule="nonzero" opacity="0.202317011" transform="translate(857.000000, 259.500000) scale(-1, 1) rotate(-180.000000) translate(-857.000000, -259.500000) "></path>
    </g>
</svg>