<?xml version="1.0" encoding="UTF-8"?>
<svg width="1714px" height="294px" viewBox="0 0 1714 294" version="1.1" xmlns="http://www.w3.org/2000/svg" xmlns:xlink="http://www.w3.org/1999/xlink">
    <title>Artboard</title>
    <defs>
        <linearGradient x1="50%" y1="0%" x2="50%" y2="100%" id="linearGradient-1">
            <stop stop-color="#7C7C7C" offset="0%"></stop>
            <stop stop-color="#424242" offset="100%"></stop>
        </linearGradient>
        <linearGradient x1="50%" y1="0%" x2="50%" y2="100%" id="linearGradient-2">
            <stop stop-color="#484848" offset="0%"></stop>
            <stop stop-color="#2D2D2D" offset="100%"></stop>
        </linearGradient>
        <linearGradient x1="50%" y1="0%" x2="50%" y2="100%" id="linearGradient-3">
            <stop stop-color="#FFFFFF" offset="0%"></stop>
            <stop stop-color="#A0A0A0" offset="99.9827565%"></stop>
        </linearGradient>
        <linearGradient x1="50%" y1="0%" x2="50%" y2="100%" id="linearGradient-4">
            <stop stop-color="#8C8C8C" offset="0%"></stop>
            <stop stop-color="#DFDFDF" offset="100%"></stop>
        </linearGradient>
    </defs>
    <g id="Artboard" stroke="none" stroke-width="1" fill="none" fill-rule="evenodd">
        <rect id="Rectangle" fill="url(#linearGradient-1)" fill-rule="nonzero" x="0" y="248" width="1714" height="46"></rect>
        <rect id="Rectangle" fill="url(#linearGradient-2)" fill-rule="nonzero" x="0" y="0" width="1714" height="248"></rect>
        <g id="BaranÖnen" transform="translate(687.000000, 190.000000)" fill-rule="nonzero">
            <g id="path-4-link" fill="#000000">
                <path d="M10.3630796,58.0349527 C18.8731585,58.0349527 24.2949022,56.5909551 27.5891261,53.7717219 C30.1970536,51.5025824 31.9814249,48.2707781 31.9814249,44.1450707 C31.9814249,37.818986 27.5204967,33.9683254 22.6477902,32.7306133 L22.6477902,32.5243277 C27.657756,30.6677594 30.3343129,26.8170993 30.3343129,22.553868 C30.3343129,18.565684 28.4126823,15.5401653 25.5302363,13.8211203 C22.441901,11.6895047 18.53001,10.8643633 12.35334,10.8643633 C7.5492634,10.8643633 2.67655689,11.3456957 0,11.8957903 L0,57.4160969 C2.19614913,57.6911437 5.69626225,58.0349527 10.3630796,58.0349527 Z M12.6964885,30.186427 L8.37281914,30.186427 L8.37281914,17.4654953 C9.26500526,17.2592097 10.706228,17.1216863 13.1768962,17.1216863 C18.53001,17.1216863 21.824234,19.1157781 21.824234,23.5165333 C21.824234,27.4359551 18.5986399,30.186427 12.6964885,30.186427 Z M12.8337478,51.6401063 L12.3214743,51.6399509 C10.6529126,51.6384011 9.37106919,51.621353 8.37281914,51.4338207 L8.37281914,36.3062266 L12.5592292,36.3062266 C18.3927507,36.3062266 23.128198,38.5066039 23.128198,43.9387856 C23.128198,49.646014 18.2554915,51.6401063 12.8337478,51.6401063 Z M47.3544702,58.31 C51.746769,58.31 55.2468821,56.4534316 57.2371421,53.8404836 L57.4430312,53.8404836 L58.0606983,57.5536203 L65.6785911,57.5536203 C65.2668132,55.4907664 65.1295539,52.5340094 65.1295539,49.5084906 L65.1295539,37.475177 C65.1295539,30.1176653 62.0412192,23.3102477 51.3349911,23.3102477 C46.0505067,23.3102477 41.7268374,24.7542453 39.2561697,26.2670047 L40.9032817,31.767948 C43.1680607,30.3239504 46.5995439,29.2925234 49.8937678,29.2925234 C55.7959193,29.2925234 56.6881049,32.9368984 56.6881049,35.1372757 L56.6881049,35.6873703 C44.3347649,35.6186086 36.8541314,39.9506016 36.8541314,48.3395403 C36.8541314,53.4279129 40.6287631,58.31 47.3544702,58.31 Z M50.0310271,52.2589621 C47.3544702,52.2589621 45.2269505,50.7462027 45.2269505,47.4456367 C45.2269505,42.357264 50.9232128,41.119552 56.8939941,41.1883137 L56.8939941,45.7953539 C56.8939941,46.4142097 56.8939941,47.033066 56.6881049,47.6519223 C55.8645492,50.0585847 53.4625104,52.2589621 50.0310271,52.2589621 Z M82.4928598,57.5536203 L82.4928598,40.1568867 C82.4928598,39.2629836 82.5614896,38.3690801 82.6987489,37.6127004 C83.4536753,33.7620403 86.2674915,31.2178539 90.2480123,31.2178539 C91.2774573,31.2178539 92.0323836,31.2866156 92.7873099,31.424139 L92.7873099,23.5165333 C92.101013,23.3790094 91.6206052,23.3102477 90.7970495,23.3102477 C87.1596771,23.3102477 83.2477861,25.7169106 81.6006741,30.3927121 L81.3947849,30.3927121 L81.051637,24.0666273 L73.7768921,24.0666273 C73.9827808,27.0233844 74.0514107,30.3239504 74.0514107,34.8622289 L74.0514107,57.5536203 L82.4928598,57.5536203 Z M106.650503,58.31 C111.042801,58.31 114.542914,56.4534316 116.533174,53.8404836 L116.739064,53.8404836 L117.356731,57.5536203 L124.974623,57.5536203 C124.562846,55.4907664 124.425586,52.5340094 124.425586,49.5084906 L124.425586,37.475177 C124.425586,30.1176653 121.337251,23.3102477 110.631023,23.3102477 C105.346539,23.3102477 101.02287,24.7542453 98.5522016,26.2670047 L100.199314,31.767948 C102.464093,30.3239504 105.895576,29.2925234 109.1898,29.2925234 C115.091952,29.2925234 115.984137,32.9368984 115.984137,35.1372757 L115.984137,35.6873703 C103.630797,35.6186086 96.1501633,39.9506016 96.1501633,48.3395403 C96.1501633,53.4279129 99.924795,58.31 106.650503,58.31 Z M109.32706,52.2589621 C106.650503,52.2589621 104.522983,50.7462027 104.522983,47.4456367 C104.522983,42.357264 110.219245,41.119552 116.190026,41.1883137 L116.190026,45.7953539 C116.190026,46.4142097 116.190026,47.033066 115.984137,47.6519223 C115.160581,50.0585847 112.758543,52.2589621 109.32706,52.2589621 Z M141.788892,57.5536203 L141.788892,37.818986 C141.788892,36.8563207 141.926151,35.8248937 142.20067,35.1372757 C143.092856,32.5930894 145.426265,30.186427 148.789118,30.186427 C153.387306,30.186427 155.171677,33.830802 155.171677,38.6441273 L155.171677,57.5536203 L163.613126,57.5536203 L163.613126,37.6814621 C163.613126,27.0921461 157.573715,23.3102477 151.740194,23.3102477 C146.181191,23.3102477 142.543818,26.4732903 141.033966,29.0862383 L140.828077,29.0862383 L140.416299,24.0666273 L133.072925,24.0666273 C133.210184,26.9546227 133.347443,30.186427 133.347443,34.0370871 L133.347443,57.5536203 L141.788892,57.5536203 Z M199.643701,8.32017697 C202.04574,8.32017697 203.692852,6.39484692 203.692852,4.19446958 C203.692852,1.78780665 201.97711,0 199.712331,0 C197.378922,0 195.594551,1.85656835 195.594551,4.19446958 C195.594551,6.39484692 197.310293,8.32017697 199.643701,8.32017697 Z M213.163745,8.32017697 C215.634414,8.32017697 217.281526,6.39484692 217.281526,4.19446958 C217.281526,1.78780665 215.565784,0 213.301005,0 C210.898966,0 209.183225,1.85656835 209.183225,4.19446958 C209.183225,6.39484692 210.830337,8.32017697 213.163745,8.32017697 Z M206.09489,58.31 C218.791378,58.31 228.193643,49.4397289 228.193643,33.8995637 C228.193643,20.6285379 220.232602,10.3830304 206.781187,10.3830304 C193.74155,10.3830304 184.751064,20.4222523 184.751064,34.724705 C184.751064,48.2707781 192.986623,58.31 206.09489,58.31 Z M206.506668,51.5025824 C198.408367,51.5025824 193.67292,44.0075473 193.67292,34.5184199 C193.67292,24.9605304 198.133849,17.190448 206.506668,17.190448 C214.948117,17.190448 219.271786,25.4418633 219.271786,34.174611 C219.271786,43.8700234 214.673598,51.5025824 206.506668,51.5025824 Z M243.566686,57.5536203 L243.566686,37.818986 C243.566686,36.8563207 243.703945,35.8248937 243.978468,35.1372757 C244.87065,32.5930894 247.204059,30.186427 250.566914,30.186427 C255.165104,30.186427 256.949473,33.830802 256.949473,38.6441273 L256.949473,57.5536203 L265.390924,57.5536203 L265.390924,37.6814621 C265.390924,27.0921461 259.351512,23.3102477 253.517988,23.3102477 C247.958988,23.3102477 244.321615,26.4732903 242.811763,29.0862383 L242.605875,29.0862383 L242.194093,24.0666273 L234.850721,24.0666273 C234.98798,26.9546227 235.125239,30.186427 235.125239,34.0370871 L235.125239,57.5536203 L243.566686,57.5536203 Z M289.479936,58.2412383 C294.284014,58.2412383 298.264534,57.3473347 301.146978,56.1096227 L299.911644,50.333632 C297.303717,51.2275356 294.558531,51.8463914 290.646641,51.8463914 C285.224894,51.8463914 280.55808,49.2334434 280.352192,43.1824054 L302.725459,43.1824054 C302.862718,42.4260257 302.999982,41.1883137 302.999982,39.6067926 C302.999982,32.2492804 299.431238,23.3102477 288.587749,23.3102477 C277.881524,23.3102477 272.253888,32.0429953 272.253888,41.3258371 C272.253888,51.5713446 278.636447,58.2412383 289.479936,58.2412383 Z M295.038937,37.2688914 L280.352192,37.2688914 C280.695339,33.830802 282.891489,29.0862383 288.107343,29.0862383 C293.734974,29.0862383 295.107567,34.174611 295.038937,37.2688914 Z M318.235767,57.5536203 L318.235767,37.818986 C318.235767,36.8563207 318.373026,35.8248937 318.647544,35.1372757 C319.539731,32.5930894 321.87314,30.186427 325.235991,30.186427 C329.83418,30.186427 331.618549,33.830802 331.618549,38.6441273 L331.618549,57.5536203 L340.06,57.5536203 L340.06,37.6814621 C340.06,27.0921461 334.020588,23.3102477 328.18707,23.3102477 C322.628064,23.3102477 318.990691,26.4732903 317.480839,29.0862383 L317.274951,29.0862383 L316.863175,24.0666273 L309.519799,24.0666273 C309.657058,26.9546227 309.794317,30.186427 309.794317,34.0370871 L309.794317,57.5536203 L318.235767,57.5536203 Z" id="path-4"></path>
            </g>
            <g id="path-4-link" fill="url(#linearGradient-3)">
                <path d="M10.3630796,58.0349527 C18.8731585,58.0349527 24.2949022,56.5909551 27.5891261,53.7717219 C30.1970536,51.5025824 31.9814249,48.2707781 31.9814249,44.1450707 C31.9814249,37.818986 27.5204967,33.9683254 22.6477902,32.7306133 L22.6477902,32.5243277 C27.657756,30.6677594 30.3343129,26.8170993 30.3343129,22.553868 C30.3343129,18.565684 28.4126823,15.5401653 25.5302363,13.8211203 C22.441901,11.6895047 18.53001,10.8643633 12.35334,10.8643633 C7.5492634,10.8643633 2.67655689,11.3456957 0,11.8957903 L0,57.4160969 C2.19614913,57.6911437 5.69626225,58.0349527 10.3630796,58.0349527 Z M12.6964885,30.186427 L8.37281914,30.186427 L8.37281914,17.4654953 C9.26500526,17.2592097 10.706228,17.1216863 13.1768962,17.1216863 C18.53001,17.1216863 21.824234,19.1157781 21.824234,23.5165333 C21.824234,27.4359551 18.5986399,30.186427 12.6964885,30.186427 Z M12.8337478,51.6401063 L12.3214743,51.6399509 C10.6529126,51.6384011 9.37106919,51.621353 8.37281914,51.4338207 L8.37281914,36.3062266 L12.5592292,36.3062266 C18.3927507,36.3062266 23.128198,38.5066039 23.128198,43.9387856 C23.128198,49.646014 18.2554915,51.6401063 12.8337478,51.6401063 Z M47.3544702,58.31 C51.746769,58.31 55.2468821,56.4534316 57.2371421,53.8404836 L57.4430312,53.8404836 L58.0606983,57.5536203 L65.6785911,57.5536203 C65.2668132,55.4907664 65.1295539,52.5340094 65.1295539,49.5084906 L65.1295539,37.475177 C65.1295539,30.1176653 62.0412192,23.3102477 51.3349911,23.3102477 C46.0505067,23.3102477 41.7268374,24.7542453 39.2561697,26.2670047 L40.9032817,31.767948 C43.1680607,30.3239504 46.5995439,29.2925234 49.8937678,29.2925234 C55.7959193,29.2925234 56.6881049,32.9368984 56.6881049,35.1372757 L56.6881049,35.6873703 C44.3347649,35.6186086 36.8541314,39.9506016 36.8541314,48.3395403 C36.8541314,53.4279129 40.6287631,58.31 47.3544702,58.31 Z M50.0310271,52.2589621 C47.3544702,52.2589621 45.2269505,50.7462027 45.2269505,47.4456367 C45.2269505,42.357264 50.9232128,41.119552 56.8939941,41.1883137 L56.8939941,45.7953539 C56.8939941,46.4142097 56.8939941,47.033066 56.6881049,47.6519223 C55.8645492,50.0585847 53.4625104,52.2589621 50.0310271,52.2589621 Z M82.4928598,57.5536203 L82.4928598,40.1568867 C82.4928598,39.2629836 82.5614896,38.3690801 82.6987489,37.6127004 C83.4536753,33.7620403 86.2674915,31.2178539 90.2480123,31.2178539 C91.2774573,31.2178539 92.0323836,31.2866156 92.7873099,31.424139 L92.7873099,23.5165333 C92.101013,23.3790094 91.6206052,23.3102477 90.7970495,23.3102477 C87.1596771,23.3102477 83.2477861,25.7169106 81.6006741,30.3927121 L81.3947849,30.3927121 L81.051637,24.0666273 L73.7768921,24.0666273 C73.9827808,27.0233844 74.0514107,30.3239504 74.0514107,34.8622289 L74.0514107,57.5536203 L82.4928598,57.5536203 Z M106.650503,58.31 C111.042801,58.31 114.542914,56.4534316 116.533174,53.8404836 L116.739064,53.8404836 L117.356731,57.5536203 L124.974623,57.5536203 C124.562846,55.4907664 124.425586,52.5340094 124.425586,49.5084906 L124.425586,37.475177 C124.425586,30.1176653 121.337251,23.3102477 110.631023,23.3102477 C105.346539,23.3102477 101.02287,24.7542453 98.5522016,26.2670047 L100.199314,31.767948 C102.464093,30.3239504 105.895576,29.2925234 109.1898,29.2925234 C115.091952,29.2925234 115.984137,32.9368984 115.984137,35.1372757 L115.984137,35.6873703 C103.630797,35.6186086 96.1501633,39.9506016 96.1501633,48.3395403 C96.1501633,53.4279129 99.924795,58.31 106.650503,58.31 Z M109.32706,52.2589621 C106.650503,52.2589621 104.522983,50.7462027 104.522983,47.4456367 C104.522983,42.357264 110.219245,41.119552 116.190026,41.1883137 L116.190026,45.7953539 C116.190026,46.4142097 116.190026,47.033066 115.984137,47.6519223 C115.160581,50.0585847 112.758543,52.2589621 109.32706,52.2589621 Z M141.788892,57.5536203 L141.788892,37.818986 C141.788892,36.8563207 141.926151,35.8248937 142.20067,35.1372757 C143.092856,32.5930894 145.426265,30.186427 148.789118,30.186427 C153.387306,30.186427 155.171677,33.830802 155.171677,38.6441273 L155.171677,57.5536203 L163.613126,57.5536203 L163.613126,37.6814621 C163.613126,27.0921461 157.573715,23.3102477 151.740194,23.3102477 C146.181191,23.3102477 142.543818,26.4732903 141.033966,29.0862383 L140.828077,29.0862383 L140.416299,24.0666273 L133.072925,24.0666273 C133.210184,26.9546227 133.347443,30.186427 133.347443,34.0370871 L133.347443,57.5536203 L141.788892,57.5536203 Z M199.643701,8.32017697 C202.04574,8.32017697 203.692852,6.39484692 203.692852,4.19446958 C203.692852,1.78780665 201.97711,0 199.712331,0 C197.378922,0 195.594551,1.85656835 195.594551,4.19446958 C195.594551,6.39484692 197.310293,8.32017697 199.643701,8.32017697 Z M213.163745,8.32017697 C215.634414,8.32017697 217.281526,6.39484692 217.281526,4.19446958 C217.281526,1.78780665 215.565784,0 213.301005,0 C210.898966,0 209.183225,1.85656835 209.183225,4.19446958 C209.183225,6.39484692 210.830337,8.32017697 213.163745,8.32017697 Z M206.09489,58.31 C218.791378,58.31 228.193643,49.4397289 228.193643,33.8995637 C228.193643,20.6285379 220.232602,10.3830304 206.781187,10.3830304 C193.74155,10.3830304 184.751064,20.4222523 184.751064,34.724705 C184.751064,48.2707781 192.986623,58.31 206.09489,58.31 Z M206.506668,51.5025824 C198.408367,51.5025824 193.67292,44.0075473 193.67292,34.5184199 C193.67292,24.9605304 198.133849,17.190448 206.506668,17.190448 C214.948117,17.190448 219.271786,25.4418633 219.271786,34.174611 C219.271786,43.8700234 214.673598,51.5025824 206.506668,51.5025824 Z M243.566686,57.5536203 L243.566686,37.818986 C243.566686,36.8563207 243.703945,35.8248937 243.978468,35.1372757 C244.87065,32.5930894 247.204059,30.186427 250.566914,30.186427 C255.165104,30.186427 256.949473,33.830802 256.949473,38.6441273 L256.949473,57.5536203 L265.390924,57.5536203 L265.390924,37.6814621 C265.390924,27.0921461 259.351512,23.3102477 253.517988,23.3102477 C247.958988,23.3102477 244.321615,26.4732903 242.811763,29.0862383 L242.605875,29.0862383 L242.194093,24.0666273 L234.850721,24.0666273 C234.98798,26.9546227 235.125239,30.186427 235.125239,34.0370871 L235.125239,57.5536203 L243.566686,57.5536203 Z M289.479936,58.2412383 C294.284014,58.2412383 298.264534,57.3473347 301.146978,56.1096227 L299.911644,50.333632 C297.303717,51.2275356 294.558531,51.8463914 290.646641,51.8463914 C285.224894,51.8463914 280.55808,49.2334434 280.352192,43.1824054 L302.725459,43.1824054 C302.862718,42.4260257 302.999982,41.1883137 302.999982,39.6067926 C302.999982,32.2492804 299.431238,23.3102477 288.587749,23.3102477 C277.881524,23.3102477 272.253888,32.0429953 272.253888,41.3258371 C272.253888,51.5713446 278.636447,58.2412383 289.479936,58.2412383 Z M295.038937,37.2688914 L280.352192,37.2688914 C280.695339,33.830802 282.891489,29.0862383 288.107343,29.0862383 C293.734974,29.0862383 295.107567,34.174611 295.038937,37.2688914 Z M318.235767,57.5536203 L318.235767,37.818986 C318.235767,36.8563207 318.373026,35.8248937 318.647544,35.1372757 C319.539731,32.5930894 321.87314,30.186427 325.235991,30.186427 C329.83418,30.186427 331.618549,33.830802 331.618549,38.6441273 L331.618549,57.5536203 L340.06,57.5536203 L340.06,37.6814621 C340.06,27.0921461 334.020588,23.3102477 328.18707,23.3102477 C322.628064,23.3102477 318.990691,26.4732903 317.480839,29.0862383 L317.274951,29.0862383 L316.863175,24.0666273 L309.519799,24.0666273 C309.657058,26.9546227 309.794317,30.186427 309.794317,34.0370871 L309.794317,57.5536203 L318.235767,57.5536203 Z" id="path-4"></path>
            </g>
        </g>
        <path d="M697.361251,274.872641 C705.869829,274.872641 711.290616,274.20401 714.584258,272.898585 C717.191726,271.847877 718.975782,270.351415 718.975782,268.441038 C718.975782,265.511793 714.515641,263.728774 709.643794,263.15566 L709.643794,263.060141 C714.652876,262.200472 717.328961,260.417453 717.328961,258.443396 C717.328961,256.596698 715.407669,255.195755 712.525732,254.399764 C709.437941,253.412736 705.526741,253.03066 699.35116,253.03066 C694.547931,253.03066 689.676085,253.253538 687,253.508255 L687,274.586085 C689.195762,274.713443 692.695257,274.872641 697.361251,274.872641 Z M699.694248,261.977594 L695.371342,261.977594 L695.371342,256.087264 C696.263371,255.991745 697.704339,255.928066 700.174571,255.928066 C705.526741,255.928066 708.820383,256.851415 708.820383,258.889151 C708.820383,260.70401 705.595358,261.977594 699.694248,261.977594 Z M699.831483,271.911557 L699.173101,271.911401 C697.575889,271.910235 696.340061,271.900319 695.371342,271.816038 L695.371342,264.811321 L699.557013,264.811321 C705.389506,264.811321 710.124117,265.830189 710.124117,268.345519 C710.124117,270.988207 705.25227,271.911557 699.831483,271.911557 Z M734.346115,275 C738.737639,275 742.237134,274.14033 744.227043,272.930424 L744.432896,272.930424 L745.050454,274.649764 L752.667003,274.649764 C752.255298,273.694576 752.118063,272.325472 752.118063,270.924528 L752.118063,265.352594 C752.118063,261.945755 749.030273,258.793632 738.325934,258.793632 C733.042382,258.793632 728.719475,259.462264 726.249243,260.162736 L727.896065,262.709906 C730.160444,262.041274 733.591322,261.563679 736.884965,261.563679 C742.786075,261.563679 743.678103,263.251179 743.678103,264.270047 L743.678103,264.524764 C731.326942,264.492924 723.847629,266.498821 723.847629,270.383255 C723.847629,272.739387 727.621595,275 734.346115,275 Z M737.0222,272.198113 C734.346115,272.198113 732.218971,271.497641 732.218971,269.96934 C732.218971,267.613207 737.914228,267.040094 743.883956,267.071934 L743.883956,269.205189 C743.883956,269.491745 743.883956,269.778302 743.678103,270.064859 C742.854692,271.179245 740.453077,272.198113 737.0222,272.198113 Z M769.478305,274.649764 L769.478305,266.59434 C769.478305,266.180424 769.546923,265.76651 769.684158,265.416274 C770.438951,263.633255 773.25227,262.455189 777.232089,262.455189 C778.261352,262.455189 779.016145,262.487028 779.770939,262.550707 L779.770939,258.889151 C779.084763,258.825472 778.60444,258.793632 777.781029,258.793632 C774.144299,258.793632 770.233098,259.908019 768.586277,262.073113 L768.380424,262.073113 L768.037336,259.143868 L760.763875,259.143868 C760.969727,260.512972 761.038345,262.041274 761.038345,264.142689 L761.038345,274.649764 L769.478305,274.649764 Z M793.631685,275 C798.023209,275 801.522704,274.14033 803.512613,272.930424 L803.718466,272.930424 L804.336024,274.649764 L811.952573,274.649764 C811.540868,273.694576 811.403633,272.325472 811.403633,270.924528 L811.403633,265.352594 C811.403633,261.945755 808.315842,258.793632 797.611503,258.793632 C792.327951,258.793632 788.005045,259.462264 785.534813,260.162736 L787.181635,262.709906 C789.446014,262.041274 792.876892,261.563679 796.170535,261.563679 C802.071645,261.563679 802.963673,263.251179 802.963673,264.270047 L802.963673,264.524764 C790.612513,264.492924 783.133199,266.498821 783.133199,270.383255 C783.133199,272.739387 786.907164,275 793.631685,275 Z M796.30777,272.198113 C793.631685,272.198113 791.504541,271.497641 791.504541,269.96934 C791.504541,267.613207 797.199798,267.040094 803.169526,267.071934 L803.169526,269.205189 C803.169526,269.491745 803.169526,269.778302 802.963673,270.064859 C802.140262,271.179245 799.738648,272.198113 796.30777,272.198113 Z M828.763875,274.649764 L828.763875,265.511793 C828.763875,265.066038 828.90111,264.588443 829.17558,264.270047 C830.067608,263.091981 832.400606,261.977594 835.762866,261.977594 C840.360242,261.977594 842.144299,263.665094 842.144299,265.893868 L842.144299,274.649764 L850.584258,274.649764 L850.584258,265.448113 C850.584258,260.544811 844.545913,258.793632 838.713421,258.793632 C833.155399,258.793632 829.518668,260.258255 828.009082,261.46816 L827.803229,261.46816 L827.391524,259.143868 L820.049445,259.143868 C820.18668,260.481132 820.323915,261.977594 820.323915,263.760613 L820.323915,274.649764 L828.763875,274.649764 Z M886.608476,251.852594 C889.010091,251.852594 890.656912,250.961085 890.656912,249.942217 C890.656912,248.82783 888.941473,248 886.677094,248 C884.344097,248 882.56004,248.85967 882.56004,249.942217 C882.56004,250.961085 884.27548,251.852594 886.608476,251.852594 Z M900.126135,251.852594 C902.596367,251.852594 904.243189,250.961085 904.243189,249.942217 C904.243189,248.82783 902.52775,248 900.263371,248 C897.861756,248 896.146317,248.85967 896.146317,249.942217 C896.146317,250.961085 897.793138,251.852594 900.126135,251.852594 Z M893.058527,275 C905.752775,275 915.153381,270.892689 915.153381,263.696934 C915.153381,257.551887 907.193744,252.807783 893.744702,252.807783 C880.707366,252.807783 871.718466,257.456368 871.718466,264.07901 C871.718466,270.351415 879.952573,275 893.058527,275 Z M893.470232,271.847877 C885.37336,271.847877 880.638749,268.377359 880.638749,263.98349 C880.638749,259.557783 885.09889,255.959906 893.470232,255.959906 C901.910192,255.959906 906.233098,259.78066 906.233098,263.824293 C906.233098,268.313679 901.635721,271.847877 893.470232,271.847877 Z M930.523712,274.649764 L930.523712,265.511793 C930.523712,265.066038 930.660946,264.588443 930.93542,264.270047 C931.827445,263.091981 934.160443,261.977594 937.522705,261.977594 C942.120083,261.977594 943.904137,263.665094 943.904137,265.893868 L943.904137,274.649764 L952.344098,274.649764 L952.344098,265.448113 C952.344098,260.544811 946.305752,258.793632 940.473258,258.793632 C934.915238,258.793632 931.278507,260.258255 929.768921,261.46816 L929.563069,261.46816 L929.151361,259.143868 L921.809284,259.143868 C921.946519,260.481132 922.083754,261.977594 922.083754,263.760613 L922.083754,274.649764 L930.523712,274.649764 Z M976.428861,274.96816 C981.23209,274.96816 985.211908,274.554245 988.093844,273.981132 L986.858728,271.306604 C984.251261,271.720519 981.50656,272.007076 977.595359,272.007076 C972.174569,272.007076 967.508578,270.79717 967.302727,267.995283 L989.672047,267.995283 C989.809281,267.645047 989.946521,267.071934 989.946521,266.339623 C989.946521,262.932783 986.378407,258.793632 975.536831,258.793632 C964.832494,258.793632 959.205852,262.837264 959.205852,267.135613 C959.205852,271.879717 965.587284,274.96816 976.428861,274.96816 Z M981.986881,265.257076 L967.302727,265.257076 C967.645813,263.665094 969.841576,261.46816 975.05651,261.46816 C980.683147,261.46816 982.055498,263.824293 981.986881,265.257076 Z M1005.17962,274.649764 L1005.17962,265.511793 C1005.17962,265.066038 1005.31685,264.588443 1005.59132,264.270047 C1006.48335,263.091981 1008.81635,261.977594 1012.17861,261.977594 C1016.77598,261.977594 1018.56004,263.665094 1018.56004,265.893868 L1018.56004,274.649764 L1027,274.649764 L1027,265.448113 C1027,260.544811 1020.96165,258.793632 1015.12916,258.793632 C1009.57114,258.793632 1005.93441,260.258255 1004.42482,261.46816 L1004.21897,261.46816 L1003.80727,259.143868 L996.465188,259.143868 C996.602422,260.481132 996.739657,261.977594 996.739657,263.760613 L996.739657,274.649764 L1005.17962,274.649764 Z" id="BaranÖnen" fill="url(#linearGradient-4)" fill-rule="nonzero" opacity="0.202317011" transform="translate(857.000000, 261.500000) scale(-1, 1) rotate(-180.000000) translate(-857.000000, -261.500000) "></path>
    </g>
</svg>