<?xml version="1.0" encoding="UTF-8"?>
<svg width="1728px" height="1117px" viewBox="0 0 1728 1117" version="1.1" xmlns="http://www.w3.org/2000/svg" xmlns:xlink="http://www.w3.org/1999/xlink">
    <g id="frame3" stroke="none" stroke-width="1" fill="none" fill-rule="evenodd">
        <g id="€€€€€€€€€€€€€€€€€€€€" transform="translate(-2.5, 694.25)" fill-rule="nonzero">
            <polygon id="Path" fill="#C0C0C0" points="20.625 9.375 18.75 9.375 16.875 9.375 15 9.375 13.125 9.375 11.25 9.375 9.375 9.375 7.5 9.375 5.625 9.375 3.75 9.375 1.875 9.375 0 9.375 0 7.5 0 5.625 1.875 5.625 3.75 5.625 5.625 5.625 7.5 5.625 9.375 5.625 11.25 5.625 13.125 5.625 15 5.625 16.875 5.625 18.75 5.625 20.625 5.625 22.5 5.625 22.5 7.5 22.5 9.375"></polygon>
            <polygon id="Path" fill="#C0C0C0" points="43.125 9.375 41.25 9.375 39.375 9.375 37.5 9.375 35.625 9.375 33.75 9.375 31.875 9.375 30 9.375 28.125 9.375 26.25 9.375 24.375 9.375 22.5 9.375 22.5 7.5 22.5 5.625 24.375 5.625 26.25 5.625 28.125 5.625 30 5.625 31.875 5.625 33.75 5.625 35.625 5.625 37.5 5.625 39.375 5.625 41.25 5.625 43.125 5.625 45 5.625 45 7.5 45 9.375"></polygon>
            <polygon id="Path" fill="#C0C0C0" points="65.625 9.375 63.75 9.375 61.875 9.375 60 9.375 58.125 9.375 56.25 9.375 54.375 9.375 52.5 9.375 50.625 9.375 48.75 9.375 46.875 9.375 45 9.375 45 7.5 45 5.625 46.875 5.625 48.75 5.625 50.625 5.625 52.5 5.625 54.375 5.625 56.25 5.625 58.125 5.625 60 5.625 61.875 5.625 63.75 5.625 65.625 5.625 67.5 5.625 67.5 7.5 67.5 9.375"></polygon>
            <polygon id="Path" fill="#C0C0C0" points="88.125 9.375 86.25 9.375 84.375 9.375 82.5 9.375 80.625 9.375 78.75 9.375 76.875 9.375 75 9.375 73.125 9.375 71.25 9.375 69.375 9.375 67.5 9.375 67.5 7.5 67.5 5.625 69.375 5.625 71.25 5.625 73.125 5.625 75 5.625 76.875 5.625 78.75 5.625 80.625 5.625 82.5 5.625 84.375 5.625 86.25 5.625 88.125 5.625 90 5.625 90 7.5 90 9.375"></polygon>
            <polygon id="Path" fill="#C0C0C0" points="110.625 9.375 108.75 9.375 106.875 9.375 105 9.375 103.125 9.375 101.25 9.375 99.375 9.375 97.5 9.375 95.625 9.375 93.75 9.375 91.875 9.375 90 9.375 90 7.5 90 5.625 91.875 5.625 93.75 5.625 95.625 5.625 97.5 5.625 99.375 5.625 101.25 5.625 103.125 5.625 105 5.625 106.875 5.625 108.75 5.625 110.625 5.625 112.5 5.625 112.5 7.5 112.5 9.375"></polygon>
            <polygon id="Path" fill="#C0C0C0" points="133.125 9.375 131.25 9.375 129.375 9.375 127.5 9.375 125.625 9.375 123.75 9.375 121.875 9.375 120 9.375 118.125 9.375 116.25 9.375 114.375 9.375 112.5 9.375 112.5 7.5 112.5 5.625 114.375 5.625 116.25 5.625 118.125 5.625 120 5.625 121.875 5.625 123.75 5.625 125.625 5.625 127.5 5.625 129.375 5.625 131.25 5.625 133.125 5.625 135 5.625 135 7.5 135 9.375"></polygon>
            <polygon id="Path" fill="#C0C0C0" points="155.625 9.375 153.75 9.375 151.875 9.375 150 9.375 148.125 9.375 146.25 9.375 144.375 9.375 142.5 9.375 140.625 9.375 138.75 9.375 136.875 9.375 135 9.375 135 7.5 135 5.625 136.875 5.625 138.75 5.625 140.625 5.625 142.5 5.625 144.375 5.625 146.25 5.625 148.125 5.625 150 5.625 151.875 5.625 153.75 5.625 155.625 5.625 157.5 5.625 157.5 7.5 157.5 9.375"></polygon>
            <polygon id="Path" fill="#C0C0C0" points="178.125 9.375 176.25 9.375 174.375 9.375 172.5 9.375 170.625 9.375 168.75 9.375 166.875 9.375 165 9.375 163.125 9.375 161.25 9.375 159.375 9.375 157.5 9.375 157.5 7.5 157.5 5.625 159.375 5.625 161.25 5.625 163.125 5.625 165 5.625 166.875 5.625 168.75 5.625 170.625 5.625 172.5 5.625 174.375 5.625 176.25 5.625 178.125 5.625 180 5.625 180 7.5 180 9.375"></polygon>
            <polygon id="Path" fill="#C0C0C0" points="200.625 9.375 198.75 9.375 196.875 9.375 195 9.375 193.125 9.375 191.25 9.375 189.375 9.375 187.5 9.375 185.625 9.375 183.75 9.375 181.875 9.375 180 9.375 180 7.5 180 5.625 181.875 5.625 183.75 5.625 185.625 5.625 187.5 5.625 189.375 5.625 191.25 5.625 193.125 5.625 195 5.625 196.875 5.625 198.75 5.625 200.625 5.625 202.5 5.625 202.5 7.5 202.5 9.375"></polygon>
            <polygon id="Path" fill="#C0C0C0" points="223.125 9.375 221.25 9.375 219.375 9.375 217.5 9.375 215.625 9.375 213.75 9.375 211.875 9.375 210 9.375 208.125 9.375 206.25 9.375 204.375 9.375 202.5 9.375 202.5 7.5 202.5 5.625 204.375 5.625 206.25 5.625 208.125 5.625 210 5.625 211.875 5.625 213.75 5.625 215.625 5.625 217.5 5.625 219.375 5.625 221.25 5.625 223.125 5.625 225 5.625 225 7.5 225 9.375"></polygon>
            <polygon id="Path" fill="#C0C0C0" points="245.625 9.375 243.75 9.375 241.875 9.375 240 9.375 238.125 9.375 236.25 9.375 234.375 9.375 232.5 9.375 230.625 9.375 228.75 9.375 226.875 9.375 225 9.375 225 7.5 225 5.625 226.875 5.625 228.75 5.625 230.625 5.625 232.5 5.625 234.375 5.625 236.25 5.625 238.125 5.625 240 5.625 241.875 5.625 243.75 5.625 245.625 5.625 247.5 5.625 247.5 7.5 247.5 9.375"></polygon>
            <polygon id="Path" fill="#C0C0C0" points="268.125 9.375 266.25 9.375 264.375 9.375 262.5 9.375 260.625 9.375 258.75 9.375 256.875 9.375 255 9.375 253.125 9.375 251.25 9.375 249.375 9.375 247.5 9.375 247.5 7.5 247.5 5.625 249.375 5.625 251.25 5.625 253.125 5.625 255 5.625 256.875 5.625 258.75 5.625 260.625 5.625 262.5 5.625 264.375 5.625 266.25 5.625 268.125 5.625 270 5.625 270 7.5 270 9.375"></polygon>
            <polygon id="Path" fill="#C0C0C0" points="290.625 9.375 288.75 9.375 286.875 9.375 285 9.375 283.125 9.375 281.25 9.375 279.375 9.375 277.5 9.375 275.625 9.375 273.75 9.375 271.875 9.375 270 9.375 270 7.5 270 5.625 271.875 5.625 273.75 5.625 275.625 5.625 277.5 5.625 279.375 5.625 281.25 5.625 283.125 5.625 285 5.625 286.875 5.625 288.75 5.625 290.625 5.625 292.5 5.625 292.5 7.5 292.5 9.375"></polygon>
            <polygon id="Path" fill="#C0C0C0" points="313.125 9.375 311.25 9.375 309.375 9.375 307.5 9.375 305.625 9.375 303.75 9.375 301.875 9.375 300 9.375 298.125 9.375 296.25 9.375 294.375 9.375 292.5 9.375 292.5 7.5 292.5 5.625 294.375 5.625 296.25 5.625 298.125 5.625 300 5.625 301.875 5.625 303.75 5.625 305.625 5.625 307.5 5.625 309.375 5.625 311.25 5.625 313.125 5.625 315 5.625 315 7.5 315 9.375"></polygon>
            <polygon id="Path" fill="#C0C0C0" points="335.625 9.375 333.75 9.375 331.875 9.375 330 9.375 328.125 9.375 326.25 9.375 324.375 9.375 322.5 9.375 320.625 9.375 318.75 9.375 316.875 9.375 315 9.375 315 7.5 315 5.625 316.875 5.625 318.75 5.625 320.625 5.625 322.5 5.625 324.375 5.625 326.25 5.625 328.125 5.625 330 5.625 331.875 5.625 333.75 5.625 335.625 5.625 337.5 5.625 337.5 7.5 337.5 9.375"></polygon>
            <polygon id="Path" fill="#C0C0C0" points="358.125 9.375 356.25 9.375 354.375 9.375 352.5 9.375 350.625 9.375 348.75 9.375 346.875 9.375 345 9.375 343.125 9.375 341.25 9.375 339.375 9.375 337.5 9.375 337.5 7.5 337.5 5.625 339.375 5.625 341.25 5.625 343.125 5.625 345 5.625 346.875 5.625 348.75 5.625 350.625 5.625 352.5 5.625 354.375 5.625 356.25 5.625 358.125 5.625 360 5.625 360 7.5 360 9.375"></polygon>
            <polygon id="Path" fill="#C0C0C0" points="380.625 9.375 378.75 9.375 376.875 9.375 375 9.375 373.125 9.375 371.25 9.375 369.375 9.375 367.5 9.375 365.625 9.375 363.75 9.375 361.875 9.375 360 9.375 360 7.5 360 5.625 361.875 5.625 363.75 5.625 365.625 5.625 367.5 5.625 369.375 5.625 371.25 5.625 373.125 5.625 375 5.625 376.875 5.625 378.75 5.625 380.625 5.625 382.5 5.625 382.5 7.5 382.5 9.375"></polygon>
            <polygon id="Path" fill="#C0C0C0" points="403.125 9.375 401.25 9.375 399.375 9.375 397.5 9.375 395.625 9.375 393.75 9.375 391.875 9.375 390 9.375 388.125 9.375 386.25 9.375 384.375 9.375 382.5 9.375 382.5 7.5 382.5 5.625 384.375 5.625 386.25 5.625 388.125 5.625 390 5.625 391.875 5.625 393.75 5.625 395.625 5.625 397.5 5.625 399.375 5.625 401.25 5.625 403.125 5.625 405 5.625 405 7.5 405 9.375"></polygon>
            <polygon id="Path" fill="#C0C0C0" points="425.625 9.375 423.75 9.375 421.875 9.375 420 9.375 418.125 9.375 416.25 9.375 414.375 9.375 412.5 9.375 410.625 9.375 408.75 9.375 406.875 9.375 405 9.375 405 7.5 405 5.625 406.875 5.625 408.75 5.625 410.625 5.625 412.5 5.625 414.375 5.625 416.25 5.625 418.125 5.625 420 5.625 421.875 5.625 423.75 5.625 425.625 5.625 427.5 5.625 427.5 7.5 427.5 9.375"></polygon>
            <polygon id="Path" fill="#C0C0C0" points="448.125 9.375 446.25 9.375 444.375 9.375 442.5 9.375 440.625 9.375 438.75 9.375 436.875 9.375 435 9.375 433.125 9.375 431.25 9.375 429.375 9.375 427.5 9.375 427.5 7.5 427.5 5.625 429.375 5.625 431.25 5.625 433.125 5.625 435 5.625 436.875 5.625 438.75 5.625 440.625 5.625 442.5 5.625 444.375 5.625 446.25 5.625 448.125 5.625 450 5.625 450 7.5 450 9.375"></polygon>
            <polygon id="Path" fill="#C0C0C0" points="470.625 9.375 468.75 9.375 466.875 9.375 465 9.375 463.125 9.375 461.25 9.375 459.375 9.375 457.5 9.375 455.625 9.375 453.75 9.375 451.875 9.375 450 9.375 450 7.5 450 5.625 451.875 5.625 453.75 5.625 455.625 5.625 457.5 5.625 459.375 5.625 461.25 5.625 463.125 5.625 465 5.625 466.875 5.625 468.75 5.625 470.625 5.625 472.5 5.625 472.5 7.5 472.5 9.375"></polygon>
            <path d="M493.125,18.75 L493.125,16.875 L495,16.875 L495,18.75 L493.125,18.75 Z M493.125,16.875 L491.25,16.875 L491.25,15 L493.125,15 L493.125,16.875 Z M491.25,15 L489.375,15 L489.375,13.125 L491.25,13.125 L491.25,15 Z M489.375,13.125 L487.5,13.125 L487.5,11.25 L489.375,11.25 L489.375,13.125 Z M487.5,11.25 L485.625,11.25 L485.625,9.375 L487.5,9.375 L487.5,11.25 Z M485.625,9.375 L483.75,9.375 L481.875,9.375 L480,9.375 L478.125,9.375 L476.25,9.375 L474.375,9.375 L472.5,9.375 L472.5,7.5 L472.5,5.625 L474.375,5.625 L476.25,5.625 L478.125,5.625 L480,5.625 L481.875,5.625 L483.75,5.625 L483.75,7.5 L485.625,7.5 L485.625,9.375 Z" id="Shape" fill="#C0C0C0"></path>
            <polygon id="Path" fill="#C0C0C0" points="515.625 9.375 513.75 9.375 511.875 9.375 510 9.375 508.125 9.375 506.25 9.375 504.375 9.375 502.5 9.375 500.625 9.375 498.75 9.375 496.875 9.375 495 9.375 495 7.5 495 5.625 496.875 5.625 498.75 5.625 500.625 5.625 502.5 5.625 504.375 5.625 506.25 5.625 508.125 5.625 510 5.625 511.875 5.625 513.75 5.625 515.625 5.625 517.5 5.625 517.5 7.5 517.5 9.375"></polygon>
            <polygon id="Path" fill="#C0C0C0" points="538.125 9.375 536.25 9.375 534.375 9.375 532.5 9.375 530.625 9.375 528.75 9.375 526.875 9.375 525 9.375 523.125 9.375 521.25 9.375 519.375 9.375 517.5 9.375 517.5 7.5 517.5 5.625 519.375 5.625 521.25 5.625 523.125 5.625 525 5.625 526.875 5.625 528.75 5.625 530.625 5.625 532.5 5.625 534.375 5.625 536.25 5.625 538.125 5.625 540 5.625 540 7.5 540 9.375"></polygon>
            <polygon id="Path" fill="#C0C0C0" points="560.625 9.375 558.75 9.375 556.875 9.375 555 9.375 553.125 9.375 551.25 9.375 549.375 9.375 547.5 9.375 545.625 9.375 543.75 9.375 541.875 9.375 540 9.375 540 7.5 540 5.625 541.875 5.625 543.75 5.625 545.625 5.625 547.5 5.625 549.375 5.625 551.25 5.625 553.125 5.625 555 5.625 556.875 5.625 558.75 5.625 560.625 5.625 562.5 5.625 562.5 7.5 562.5 9.375"></polygon>
            <polygon id="Path" fill="#C0C0C0" points="583.125 9.375 581.25 9.375 579.375 9.375 577.5 9.375 575.625 9.375 573.75 9.375 571.875 9.375 570 9.375 568.125 9.375 566.25 9.375 564.375 9.375 562.5 9.375 562.5 7.5 562.5 5.625 564.375 5.625 566.25 5.625 568.125 5.625 570 5.625 571.875 5.625 573.75 5.625 575.625 5.625 577.5 5.625 579.375 5.625 581.25 5.625 583.125 5.625 585 5.625 585 7.5 585 9.375"></polygon>
            <polygon id="Path" fill="#C0C0C0" points="605.625 9.375 603.75 9.375 601.875 9.375 600 9.375 598.125 9.375 596.25 9.375 594.375 9.375 592.5 9.375 590.625 9.375 588.75 9.375 586.875 9.375 585 9.375 585 7.5 585 5.625 586.875 5.625 588.75 5.625 590.625 5.625 592.5 5.625 594.375 5.625 596.25 5.625 598.125 5.625 600 5.625 601.875 5.625 603.75 5.625 605.625 5.625 607.5 5.625 607.5 7.5 607.5 9.375"></polygon>
            <polygon id="Path" fill="#C0C0C0" points="628.125 9.375 626.25 9.375 624.375 9.375 622.5 9.375 620.625 9.375 618.75 9.375 616.875 9.375 615 9.375 613.125 9.375 611.25 9.375 609.375 9.375 607.5 9.375 607.5 7.5 607.5 5.625 609.375 5.625 611.25 5.625 613.125 5.625 615 5.625 616.875 5.625 618.75 5.625 620.625 5.625 622.5 5.625 624.375 5.625 626.25 5.625 628.125 5.625 630 5.625 630 7.5 630 9.375"></polygon>
            <polygon id="Path" fill="#C0C0C0" points="650.625 9.375 648.75 9.375 646.875 9.375 645 9.375 643.125 9.375 641.25 9.375 639.375 9.375 637.5 9.375 635.625 9.375 633.75 9.375 631.875 9.375 630 9.375 630 7.5 630 5.625 631.875 5.625 633.75 5.625 635.625 5.625 637.5 5.625 639.375 5.625 641.25 5.625 643.125 5.625 645 5.625 646.875 5.625 648.75 5.625 650.625 5.625 652.5 5.625 652.5 7.5 652.5 9.375"></polygon>
            <polygon id="Path" fill="#C0C0C0" points="673.125 9.375 671.25 9.375 669.375 9.375 667.5 9.375 665.625 9.375 663.75 9.375 661.875 9.375 660 9.375 658.125 9.375 656.25 9.375 654.375 9.375 652.5 9.375 652.5 7.5 652.5 5.625 654.375 5.625 656.25 5.625 658.125 5.625 660 5.625 661.875 5.625 663.75 5.625 665.625 5.625 667.5 5.625 669.375 5.625 671.25 5.625 673.125 5.625 675 5.625 675 7.5 675 9.375"></polygon>
            <polygon id="Path" fill="#C0C0C0" points="695.625 9.375 693.75 9.375 691.875 9.375 690 9.375 688.125 9.375 686.25 9.375 684.375 9.375 682.5 9.375 680.625 9.375 678.75 9.375 676.875 9.375 675 9.375 675 7.5 675 5.625 676.875 5.625 678.75 5.625 680.625 5.625 682.5 5.625 684.375 5.625 686.25 5.625 688.125 5.625 690 5.625 691.875 5.625 693.75 5.625 695.625 5.625 697.5 5.625 697.5 7.5 697.5 9.375"></polygon>
            <polygon id="Path" fill="#C0C0C0" points="718.125 9.375 716.25 9.375 714.375 9.375 712.5 9.375 710.625 9.375 708.75 9.375 706.875 9.375 705 9.375 703.125 9.375 701.25 9.375 699.375 9.375 697.5 9.375 697.5 7.5 697.5 5.625 699.375 5.625 701.25 5.625 703.125 5.625 705 5.625 706.875 5.625 708.75 5.625 710.625 5.625 712.5 5.625 714.375 5.625 716.25 5.625 718.125 5.625 720 5.625 720 7.5 720 9.375"></polygon>
            <polygon id="Path" fill="#C0C0C0" points="740.625 9.375 738.75 9.375 736.875 9.375 735 9.375 733.125 9.375 731.25 9.375 729.375 9.375 727.5 9.375 725.625 9.375 723.75 9.375 721.875 9.375 720 9.375 720 7.5 720 5.625 721.875 5.625 723.75 5.625 725.625 5.625 727.5 5.625 729.375 5.625 731.25 5.625 733.125 5.625 735 5.625 736.875 5.625 738.75 5.625 740.625 5.625 742.5 5.625 742.5 7.5 742.5 9.375"></polygon>
            <polygon id="Path" fill="#C0C0C0" points="763.125 9.375 761.25 9.375 759.375 9.375 757.5 9.375 755.625 9.375 753.75 9.375 751.875 9.375 750 9.375 748.125 9.375 746.25 9.375 744.375 9.375 742.5 9.375 742.5 7.5 742.5 5.625 744.375 5.625 746.25 5.625 748.125 5.625 750 5.625 751.875 5.625 753.75 5.625 755.625 5.625 757.5 5.625 759.375 5.625 761.25 5.625 763.125 5.625 765 5.625 765 7.5 765 9.375"></polygon>
            <polygon id="Path" fill="#C0C0C0" points="785.625 9.375 783.75 9.375 781.875 9.375 780 9.375 778.125 9.375 776.25 9.375 774.375 9.375 772.5 9.375 770.625 9.375 768.75 9.375 766.875 9.375 765 9.375 765 7.5 765 5.625 766.875 5.625 768.75 5.625 770.625 5.625 772.5 5.625 774.375 5.625 776.25 5.625 778.125 5.625 780 5.625 781.875 5.625 783.75 5.625 785.625 5.625 787.5 5.625 787.5 7.5 787.5 9.375"></polygon>
            <polygon id="Path" fill="#C0C0C0" points="808.125 9.375 806.25 9.375 804.375 9.375 802.5 9.375 800.625 9.375 798.75 9.375 796.875 9.375 795 9.375 793.125 9.375 791.25 9.375 789.375 9.375 787.5 9.375 787.5 7.5 787.5 5.625 789.375 5.625 791.25 5.625 793.125 5.625 795 5.625 796.875 5.625 798.75 5.625 800.625 5.625 802.5 5.625 804.375 5.625 806.25 5.625 808.125 5.625 810 5.625 810 7.5 810 9.375"></polygon>
            <polygon id="Path" fill="#C0C0C0" points="830.625 9.375 828.75 9.375 826.875 9.375 825 9.375 823.125 9.375 821.25 9.375 819.375 9.375 817.5 9.375 815.625 9.375 813.75 9.375 811.875 9.375 810 9.375 810 7.5 810 5.625 811.875 5.625 813.75 5.625 815.625 5.625 817.5 5.625 819.375 5.625 821.25 5.625 823.125 5.625 825 5.625 826.875 5.625 828.75 5.625 830.625 5.625 832.5 5.625 832.5 7.5 832.5 9.375"></polygon>
            <polygon id="Path" fill="#C0C0C0" points="853.125 9.375 851.25 9.375 849.375 9.375 847.5 9.375 845.625 9.375 843.75 9.375 841.875 9.375 840 9.375 838.125 9.375 836.25 9.375 834.375 9.375 832.5 9.375 832.5 7.5 832.5 5.625 834.375 5.625 836.25 5.625 838.125 5.625 840 5.625 841.875 5.625 843.75 5.625 845.625 5.625 847.5 5.625 849.375 5.625 851.25 5.625 853.125 5.625 855 5.625 855 7.5 855 9.375"></polygon>
            <polygon id="Path" fill="#C0C0C0" points="875.625 9.375 873.75 9.375 871.875 9.375 870 9.375 868.125 9.375 866.25 9.375 864.375 9.375 862.5 9.375 860.625 9.375 858.75 9.375 856.875 9.375 855 9.375 855 7.5 855 5.625 856.875 5.625 858.75 5.625 860.625 5.625 862.5 5.625 864.375 5.625 866.25 5.625 868.125 5.625 870 5.625 871.875 5.625 873.75 5.625 875.625 5.625 877.5 5.625 877.5 7.5 877.5 9.375"></polygon>
            <polygon id="Path" fill="#C0C0C0" points="898.125 9.375 896.25 9.375 894.375 9.375 892.5 9.375 890.625 9.375 888.75 9.375 886.875 9.375 885 9.375 883.125 9.375 881.25 9.375 879.375 9.375 877.5 9.375 877.5 7.5 877.5 5.625 879.375 5.625 881.25 5.625 883.125 5.625 885 5.625 886.875 5.625 888.75 5.625 890.625 5.625 892.5 5.625 894.375 5.625 896.25 5.625 898.125 5.625 900 5.625 900 7.5 900 9.375"></polygon>
            <polygon id="Path" fill="#C0C0C0" points="920.625 9.375 918.75 9.375 916.875 9.375 915 9.375 913.125 9.375 911.25 9.375 909.375 9.375 907.5 9.375 905.625 9.375 903.75 9.375 901.875 9.375 900 9.375 900 7.5 900 5.625 901.875 5.625 903.75 5.625 905.625 5.625 907.5 5.625 909.375 5.625 911.25 5.625 913.125 5.625 915 5.625 916.875 5.625 918.75 5.625 920.625 5.625 922.5 5.625 922.5 7.5 922.5 9.375"></polygon>
            <polygon id="Path" fill="#C0C0C0" points="943.125 9.375 941.25 9.375 939.375 9.375 937.5 9.375 935.625 9.375 933.75 9.375 931.875 9.375 930 9.375 928.125 9.375 926.25 9.375 924.375 9.375 922.5 9.375 922.5 7.5 922.5 5.625 924.375 5.625 926.25 5.625 928.125 5.625 930 5.625 931.875 5.625 933.75 5.625 935.625 5.625 937.5 5.625 939.375 5.625 941.25 5.625 943.125 5.625 945 5.625 945 7.5 945 9.375"></polygon>
            <polygon id="Path" fill="#C0C0C0" points="965.625 9.375 963.75 9.375 961.875 9.375 960 9.375 958.125 9.375 956.25 9.375 954.375 9.375 952.5 9.375 950.625 9.375 948.75 9.375 946.875 9.375 945 9.375 945 7.5 945 5.625 946.875 5.625 948.75 5.625 950.625 5.625 952.5 5.625 954.375 5.625 956.25 5.625 958.125 5.625 960 5.625 961.875 5.625 963.75 5.625 965.625 5.625 967.5 5.625 967.5 7.5 967.5 9.375"></polygon>
            <polygon id="Path" fill="#EDFF00" points="988.125 9.375 986.25 9.375 984.375 9.375 982.5 9.375 980.625 9.375 978.75 9.375 976.875 9.375 975 9.375 973.125 9.375 971.25 9.375 969.375 9.375 967.5 9.375 967.5 7.5 967.5 5.625 969.375 5.625 971.25 5.625 973.125 5.625 975 5.625 976.875 5.625 978.75 5.625 980.625 5.625 982.5 5.625 984.375 5.625 986.25 5.625 988.125 5.625 990 5.625 990 7.5 990 9.375"></polygon>
            <polygon id="Path" fill="#C0C0C0" points="1010.625 9.375 1008.75 9.375 1006.875 9.375 1005 9.375 1003.125 9.375 1001.25 9.375 999.375 9.375 997.5 9.375 995.625 9.375 993.75 9.375 991.875 9.375 990 9.375 990 7.5 990 5.625 991.875 5.625 993.75 5.625 995.625 5.625 997.5 5.625 999.375 5.625 1001.25 5.625 1003.125 5.625 1005 5.625 1006.875 5.625 1008.75 5.625 1010.625 5.625 1012.5 5.625 1012.5 7.5 1012.5 9.375"></polygon>
            <polygon id="Path" fill="#C0C0C0" points="1033.125 9.375 1031.25 9.375 1029.375 9.375 1027.5 9.375 1025.625 9.375 1023.75 9.375 1021.875 9.375 1020 9.375 1018.125 9.375 1016.25 9.375 1014.375 9.375 1012.5 9.375 1012.5 7.5 1012.5 5.625 1014.375 5.625 1016.25 5.625 1018.125 5.625 1020 5.625 1021.875 5.625 1023.75 5.625 1025.625 5.625 1027.5 5.625 1029.375 5.625 1031.25 5.625 1033.125 5.625 1035 5.625 1035 7.5 1035 9.375"></polygon>
            <polygon id="Path" fill="#C0C0C0" points="1055.625 9.375 1053.75 9.375 1051.875 9.375 1050 9.375 1048.125 9.375 1046.25 9.375 1044.375 9.375 1042.5 9.375 1040.625 9.375 1038.75 9.375 1036.875 9.375 1035 9.375 1035 7.5 1035 5.625 1036.875 5.625 1038.75 5.625 1040.625 5.625 1042.5 5.625 1044.375 5.625 1046.25 5.625 1048.125 5.625 1050 5.625 1051.875 5.625 1053.75 5.625 1055.625 5.625 1057.5 5.625 1057.5 7.5 1057.5 9.375"></polygon>
            <polygon id="Path" fill="#C0C0C0" points="1078.125 9.375 1076.25 9.375 1074.375 9.375 1072.5 9.375 1070.625 9.375 1068.75 9.375 1066.875 9.375 1065 9.375 1063.125 9.375 1061.25 9.375 1059.375 9.375 1057.5 9.375 1057.5 7.5 1057.5 5.625 1059.375 5.625 1061.25 5.625 1063.125 5.625 1065 5.625 1066.875 5.625 1068.75 5.625 1070.625 5.625 1072.5 5.625 1074.375 5.625 1076.25 5.625 1078.125 5.625 1080 5.625 1080 7.5 1080 9.375"></polygon>
            <polygon id="Path" fill="#C0C0C0" points="1100.625 9.375 1098.75 9.375 1096.875 9.375 1095 9.375 1093.125 9.375 1091.25 9.375 1089.375 9.375 1087.5 9.375 1085.625 9.375 1083.75 9.375 1081.875 9.375 1080 9.375 1080 7.5 1080 5.625 1081.875 5.625 1083.75 5.625 1085.625 5.625 1087.5 5.625 1089.375 5.625 1091.25 5.625 1093.125 5.625 1095 5.625 1096.875 5.625 1098.75 5.625 1100.625 5.625 1102.5 5.625 1102.5 7.5 1102.5 9.375"></polygon>
            <polygon id="Path" fill="#C0C0C0" points="1123.125 9.375 1121.25 9.375 1119.375 9.375 1117.5 9.375 1115.625 9.375 1113.75 9.375 1111.875 9.375 1110 9.375 1108.125 9.375 1106.25 9.375 1104.375 9.375 1102.5 9.375 1102.5 7.5 1102.5 5.625 1104.375 5.625 1106.25 5.625 1108.125 5.625 1110 5.625 1111.875 5.625 1113.75 5.625 1115.625 5.625 1117.5 5.625 1119.375 5.625 1121.25 5.625 1123.125 5.625 1125 5.625 1125 7.5 1125 9.375"></polygon>
            <polygon id="Path" fill="#C0C0C0" points="1145.625 9.375 1143.75 9.375 1141.875 9.375 1140 9.375 1138.125 9.375 1136.25 9.375 1134.375 9.375 1132.5 9.375 1130.625 9.375 1128.75 9.375 1126.875 9.375 1125 9.375 1125 7.5 1125 5.625 1126.875 5.625 1128.75 5.625 1130.625 5.625 1132.5 5.625 1134.375 5.625 1136.25 5.625 1138.125 5.625 1140 5.625 1141.875 5.625 1143.75 5.625 1145.625 5.625 1147.5 5.625 1147.5 7.5 1147.5 9.375"></polygon>
            <polygon id="Path" fill="#C0C0C0" points="1168.125 9.375 1166.25 9.375 1164.375 9.375 1162.5 9.375 1160.625 9.375 1158.75 9.375 1156.875 9.375 1155 9.375 1153.125 9.375 1151.25 9.375 1149.375 9.375 1147.5 9.375 1147.5 7.5 1147.5 5.625 1149.375 5.625 1151.25 5.625 1153.125 5.625 1155 5.625 1156.875 5.625 1158.75 5.625 1160.625 5.625 1162.5 5.625 1164.375 5.625 1166.25 5.625 1168.125 5.625 1170 5.625 1170 7.5 1170 9.375"></polygon>
            <polygon id="Path" fill="#C0C0C0" points="1190.625 9.375 1188.75 9.375 1186.875 9.375 1185 9.375 1183.125 9.375 1181.25 9.375 1179.375 9.375 1177.5 9.375 1175.625 9.375 1173.75 9.375 1171.875 9.375 1170 9.375 1170 7.5 1170 5.625 1171.875 5.625 1173.75 5.625 1175.625 5.625 1177.5 5.625 1179.375 5.625 1181.25 5.625 1183.125 5.625 1185 5.625 1186.875 5.625 1188.75 5.625 1190.625 5.625 1192.5 5.625 1192.5 7.5 1192.5 9.375"></polygon>
            <polygon id="Path" fill="#C0C0C0" points="1213.125 9.375 1211.25 9.375 1209.375 9.375 1207.5 9.375 1205.625 9.375 1203.75 9.375 1201.875 9.375 1200 9.375 1198.125 9.375 1196.25 9.375 1194.375 9.375 1192.5 9.375 1192.5 7.5 1192.5 5.625 1194.375 5.625 1196.25 5.625 1198.125 5.625 1200 5.625 1201.875 5.625 1203.75 5.625 1205.625 5.625 1207.5 5.625 1209.375 5.625 1211.25 5.625 1213.125 5.625 1215 5.625 1215 7.5 1215 9.375"></polygon>
            <polygon id="Path" fill="#C0C0C0" points="1235.625 9.375 1233.75 9.375 1231.875 9.375 1230 9.375 1228.125 9.375 1226.25 9.375 1224.375 9.375 1222.5 9.375 1220.625 9.375 1218.75 9.375 1216.875 9.375 1215 9.375 1215 7.5 1215 5.625 1216.875 5.625 1218.75 5.625 1220.625 5.625 1222.5 5.625 1224.375 5.625 1226.25 5.625 1228.125 5.625 1230 5.625 1231.875 5.625 1233.75 5.625 1235.625 5.625 1237.5 5.625 1237.5 7.5 1237.5 9.375"></polygon>
            <polygon id="Path" fill="#C0C0C0" points="1248.75 15 1246.875 15 1246.875 13.125 1246.875 11.25 1246.875 9.375 1245 9.375 1243.125 9.375 1241.25 9.375 1239.375 9.375 1237.5 9.375 1237.5 7.5 1237.5 5.625 1239.375 5.625 1241.25 5.625 1243.125 5.625 1245 5.625 1246.875 5.625 1246.875 3.75 1246.875 1.875 1246.875 0 1248.75 0 1250.625 0 1250.625 1.875 1250.625 3.75 1250.625 5.625 1250.625 7.5 1250.625 9.375 1250.625 11.25 1250.625 13.125 1250.625 15"></polygon>
            <path d="M515.625,41.75 L515.625,39.875 L517.5,39.875 L517.5,41.75 L515.625,41.75 Z M515.625,39.875 L513.75,39.875 L513.75,38 L515.625,38 L515.625,39.875 Z M513.75,38 L511.875,38 L511.875,36.125 L513.75,36.125 L513.75,38 Z M511.875,36.125 L510,36.125 L510,34.25 L511.875,34.25 L511.875,36.125 Z M510,34.25 L508.125,34.25 L508.125,32.375 L510,32.375 L510,34.25 Z M508.125,32.375 L506.25,32.375 L506.25,30.5 L508.125,30.5 L508.125,32.375 Z M506.25,30.5 L504.375,30.5 L504.375,28.625 L506.25,28.625 L506.25,30.5 Z M504.375,28.625 L502.5,28.625 L502.5,26.75 L504.375,26.75 L504.375,28.625 Z M502.5,26.75 L500.625,26.75 L500.625,24.875 L502.5,24.875 L502.5,26.75 Z M500.625,24.875 L498.75,24.875 L498.75,23 L500.625,23 L500.625,24.875 Z M498.75,23 L496.875,23 L496.875,21.125 L498.75,21.125 L498.75,23 Z M496.875,21.125 L495,21.125 L495,19.25 L496.875,19.25 L496.875,21.125 Z" id="Shape" fill="#C0C0C0"></path>
            <path d="M1010.625,41.75 L1010.625,39.875 L1012.5,39.875 L1012.5,41.75 L1010.625,41.75 Z M1010.625,39.875 L1008.75,39.875 L1008.75,38 L1010.625,38 L1010.625,39.875 Z M1008.75,38 L1006.875,38 L1006.875,36.125 L1008.75,36.125 L1008.75,38 Z M1006.875,36.125 L1005,36.125 L1005,34.25 L1006.875,34.25 L1006.875,36.125 Z M1005,34.25 L1003.125,34.25 L1003.125,32.375 L1005,32.375 L1005,34.25 Z M1003.125,32.375 L1001.25,32.375 L1001.25,30.5 L1003.125,30.5 L1003.125,32.375 Z M1001.25,30.5 L999.375,30.5 L999.375,28.625 L1001.25,28.625 L1001.25,30.5 Z M999.375,28.625 L997.5,28.625 L997.5,26.75 L999.375,26.75 L999.375,28.625 Z M997.5,26.75 L995.625,26.75 L995.625,24.875 L997.5,24.875 L997.5,26.75 Z M995.625,24.875 L993.75,24.875 L993.75,23 L995.625,23 L995.625,24.875 Z M993.75,23 L991.875,23 L991.875,21.125 L993.75,21.125 L993.75,23 Z M991.875,21.125 L990,21.125 L990,19.25 L991.875,19.25 L991.875,21.125 Z" id="Shape" fill="#C0C0C0"></path>
            <path d="M538.125,55.375 L536.25,55.375 L534.375,55.375 L532.5,55.375 L530.625,55.375 L528.75,55.375 L528.75,53.5 L526.875,53.5 L526.875,51.625 L528.75,51.625 L530.625,51.625 L532.5,51.625 L534.375,51.625 L536.25,51.625 L538.125,51.625 L540,51.625 L540,53.5 L540,55.375 L538.125,55.375 Z M526.875,51.625 L525,51.625 L525,49.75 L526.875,49.75 L526.875,51.625 Z M525,49.75 L523.125,49.75 L523.125,47.875 L525,47.875 L525,49.75 Z M523.125,47.875 L521.25,47.875 L521.25,46 L523.125,46 L523.125,47.875 Z M521.25,46 L519.375,46 L519.375,44.125 L521.25,44.125 L521.25,46 Z M519.375,44.125 L517.5,44.125 L517.5,42.25 L519.375,42.25 L519.375,44.125 Z" id="Shape" fill="#C0C0C0"></path>
            <path d="M558.75,61 L556.875,61 L556.875,59.125 L555,59.125 L553.125,59.125 L553.125,57.25 L551.25,57.25 L549.375,57.25 L549.375,55.375 L547.5,55.375 L545.625,55.375 L545.625,53.5 L543.75,53.5 L541.875,53.5 L541.875,51.625 L543.75,51.625 L545.625,51.625 L545.625,49.75 L547.5,49.75 L549.375,49.75 L549.375,47.875 L551.25,47.875 L553.125,47.875 L553.125,46 L555,46 L556.875,46 L556.875,44.125 L558.75,44.125 L560.625,44.125 L560.625,46 L560.625,47.875 L560.625,49.75 L560.625,51.625 L560.625,53.5 L560.625,55.375 L560.625,57.25 L560.625,59.125 L560.625,61 L558.75,61 Z M558.75,59.125 L558.75,57.25 L558.75,55.375 L558.75,53.5 L558.75,51.625 L558.75,49.75 L558.75,47.875 L558.75,46 L556.875,46 L556.875,47.875 L555,47.875 L553.125,47.875 L553.125,49.75 L551.25,49.75 L549.375,49.75 L549.375,51.625 L547.5,51.625 L545.625,51.625 L545.625,53.5 L547.5,53.5 L549.375,53.5 L549.375,55.375 L551.25,55.375 L553.125,55.375 L553.125,57.25 L555,57.25 L556.875,57.25 L556.875,59.125 L558.75,59.125 Z" id="Shape" fill="#C0C0C0"></path>
            <polygon id="Path" fill="#FF0000" points="583.125 55.375 581.25 55.375 579.375 55.375 577.5 55.375 575.625 55.375 573.75 55.375 571.875 55.375 570 55.375 568.125 55.375 566.25 55.375 564.375 55.375 562.5 55.375 562.5 53.5 562.5 51.625 564.375 51.625 566.25 51.625 568.125 51.625 570 51.625 571.875 51.625 573.75 51.625 575.625 51.625 577.5 51.625 579.375 51.625 581.25 51.625 583.125 51.625 585 51.625 585 53.5 585 55.375"></polygon>
            <polygon id="Path" fill="#FF0000" points="605.625 55.375 603.75 55.375 601.875 55.375 600 55.375 598.125 55.375 596.25 55.375 594.375 55.375 592.5 55.375 590.625 55.375 588.75 55.375 586.875 55.375 585 55.375 585 53.5 585 51.625 586.875 51.625 588.75 51.625 590.625 51.625 592.5 51.625 594.375 51.625 596.25 51.625 598.125 51.625 600 51.625 601.875 51.625 603.75 51.625 605.625 51.625 607.5 51.625 607.5 53.5 607.5 55.375"></polygon>
            <polygon id="Path" fill="#FF0000" points="628.125 55.375 626.25 55.375 624.375 55.375 622.5 55.375 620.625 55.375 618.75 55.375 616.875 55.375 615 55.375 613.125 55.375 611.25 55.375 609.375 55.375 607.5 55.375 607.5 53.5 607.5 51.625 609.375 51.625 611.25 51.625 613.125 51.625 615 51.625 616.875 51.625 618.75 51.625 620.625 51.625 622.5 51.625 624.375 51.625 626.25 51.625 628.125 51.625 630 51.625 630 53.5 630 55.375"></polygon>
            <polygon id="Path" fill="#FF0000" points="650.625 55.375 648.75 55.375 646.875 55.375 645 55.375 643.125 55.375 641.25 55.375 639.375 55.375 637.5 55.375 635.625 55.375 633.75 55.375 631.875 55.375 630 55.375 630 53.5 630 51.625 631.875 51.625 633.75 51.625 635.625 51.625 637.5 51.625 639.375 51.625 641.25 51.625 643.125 51.625 645 51.625 646.875 51.625 648.75 51.625 650.625 51.625 652.5 51.625 652.5 53.5 652.5 55.375"></polygon>
            <polygon id="Path" fill="#FF0000" points="673.125 55.375 671.25 55.375 669.375 55.375 667.5 55.375 665.625 55.375 663.75 55.375 661.875 55.375 660 55.375 658.125 55.375 656.25 55.375 654.375 55.375 652.5 55.375 652.5 53.5 652.5 51.625 654.375 51.625 656.25 51.625 658.125 51.625 660 51.625 661.875 51.625 663.75 51.625 665.625 51.625 667.5 51.625 669.375 51.625 671.25 51.625 673.125 51.625 675 51.625 675 53.5 675 55.375"></polygon>
            <polygon id="Path" fill="#C0C0C0" points="686.25 61 684.375 61 684.375 59.125 684.375 57.25 684.375 55.375 682.5 55.375 680.625 55.375 678.75 55.375 676.875 55.375 675 55.375 675 53.5 675 51.625 676.875 51.625 678.75 51.625 680.625 51.625 682.5 51.625 684.375 51.625 684.375 49.75 684.375 47.875 684.375 46 686.25 46 688.125 46 688.125 47.875 688.125 49.75 688.125 51.625 688.125 53.5 688.125 55.375 688.125 57.25 688.125 59.125 688.125 61"></polygon>
            <path d="M1033.125,64.75 L1033.125,62.875 L1035,62.875 L1035,64.75 L1033.125,64.75 Z M1033.125,62.875 L1031.25,62.875 L1031.25,61 L1033.125,61 L1033.125,62.875 Z M1031.25,61 L1029.375,61 L1029.375,59.125 L1031.25,59.125 L1031.25,61 Z M1029.375,59.125 L1027.5,59.125 L1027.5,57.25 L1029.375,57.25 L1029.375,59.125 Z M1027.5,57.25 L1025.625,57.25 L1025.625,55.375 L1027.5,55.375 L1027.5,57.25 Z M1025.625,55.375 L1023.75,55.375 L1023.75,53.5 L1025.625,53.5 L1025.625,55.375 Z M1023.75,53.5 L1021.875,53.5 L1021.875,51.625 L1023.75,51.625 L1023.75,53.5 Z M1021.875,51.625 L1020,51.625 L1020,49.75 L1021.875,49.75 L1021.875,51.625 Z M1020,49.75 L1018.125,49.75 L1018.125,47.875 L1020,47.875 L1020,49.75 Z M1018.125,47.875 L1016.25,47.875 L1016.25,46 L1018.125,46 L1018.125,47.875 Z M1016.25,46 L1014.375,46 L1014.375,44.125 L1016.25,44.125 L1016.25,46 Z M1014.375,44.125 L1012.5,44.125 L1012.5,42.25 L1014.375,42.25 L1014.375,44.125 Z" id="Shape" fill="#C0C0C0"></path>
            <path d="M1055.625,87.75 L1055.625,85.875 L1057.5,85.875 L1057.5,87.75 L1055.625,87.75 Z M1055.625,85.875 L1053.75,85.875 L1053.75,84 L1055.625,84 L1055.625,85.875 Z M1053.75,84 L1051.875,84 L1051.875,82.125 L1053.75,82.125 L1053.75,84 Z M1051.875,82.125 L1050,82.125 L1050,80.25 L1051.875,80.25 L1051.875,82.125 Z M1050,80.25 L1048.125,80.25 L1048.125,78.375 L1050,78.375 L1050,80.25 Z M1048.125,78.375 L1046.25,78.375 L1046.25,76.5 L1048.125,76.5 L1048.125,78.375 Z M1046.25,76.5 L1044.375,76.5 L1044.375,74.625 L1046.25,74.625 L1046.25,76.5 Z M1044.375,74.625 L1042.5,74.625 L1042.5,72.75 L1044.375,72.75 L1044.375,74.625 Z M1042.5,72.75 L1040.625,72.75 L1040.625,70.875 L1042.5,70.875 L1042.5,72.75 Z M1040.625,70.875 L1038.75,70.875 L1038.75,69 L1040.625,69 L1040.625,70.875 Z M1038.75,69 L1036.875,69 L1036.875,67.125 L1038.75,67.125 L1038.75,69 Z M1036.875,67.125 L1035,67.125 L1035,65.25 L1036.875,65.25 L1036.875,67.125 Z" id="Shape" fill="#C0C0C0"></path>
            <path d="M1078.125,110.75 L1078.125,108.875 L1080,108.875 L1080,110.75 L1078.125,110.75 Z M1078.125,108.875 L1076.25,108.875 L1076.25,107 L1078.125,107 L1078.125,108.875 Z M1076.25,107 L1074.375,107 L1074.375,105.125 L1076.25,105.125 L1076.25,107 Z M1074.375,105.125 L1072.5,105.125 L1072.5,103.25 L1074.375,103.25 L1074.375,105.125 Z M1072.5,103.25 L1070.625,103.25 L1070.625,101.375 L1072.5,101.375 L1072.5,103.25 Z M1070.625,101.375 L1068.75,101.375 L1068.75,99.5 L1070.625,99.5 L1070.625,101.375 Z M1068.75,99.5 L1066.875,99.5 L1066.875,97.625 L1068.75,97.625 L1068.75,99.5 Z M1066.875,97.625 L1065,97.625 L1065,95.75 L1066.875,95.75 L1066.875,97.625 Z M1065,95.75 L1063.125,95.75 L1063.125,93.875 L1065,93.875 L1065,95.75 Z M1063.125,93.875 L1061.25,93.875 L1061.25,92 L1063.125,92 L1063.125,93.875 Z M1061.25,92 L1059.375,92 L1059.375,90.125 L1061.25,90.125 L1061.25,92 Z M1059.375,90.125 L1057.5,90.125 L1057.5,88.25 L1059.375,88.25 L1059.375,90.125 Z" id="Shape" fill="#C0C0C0"></path>
            <path d="M1100.625,133.75 L1100.625,131.875 L1102.5,131.875 L1102.5,133.75 L1100.625,133.75 Z M1100.625,131.875 L1098.75,131.875 L1098.75,130 L1100.625,130 L1100.625,131.875 Z M1098.75,130 L1096.875,130 L1096.875,128.125 L1098.75,128.125 L1098.75,130 Z M1096.875,128.125 L1095,128.125 L1095,126.25 L1096.875,126.25 L1096.875,128.125 Z M1095,126.25 L1093.125,126.25 L1093.125,124.375 L1095,124.375 L1095,126.25 Z M1093.125,124.375 L1091.25,124.375 L1091.25,122.5 L1093.125,122.5 L1093.125,124.375 Z M1091.25,122.5 L1089.375,122.5 L1089.375,120.625 L1091.25,120.625 L1091.25,122.5 Z M1089.375,120.625 L1087.5,120.625 L1087.5,118.75 L1089.375,118.75 L1089.375,120.625 Z M1087.5,118.75 L1085.625,118.75 L1085.625,116.875 L1087.5,116.875 L1087.5,118.75 Z M1085.625,116.875 L1083.75,116.875 L1083.75,115 L1085.625,115 L1085.625,116.875 Z M1083.75,115 L1081.875,115 L1081.875,113.125 L1083.75,113.125 L1083.75,115 Z M1081.875,113.125 L1080,113.125 L1080,111.25 L1081.875,111.25 L1081.875,113.125 Z" id="Shape" fill="#C0C0C0"></path>
            <path d="M1123.125,156.75 L1123.125,154.875 L1125,154.875 L1125,156.75 L1123.125,156.75 Z M1123.125,154.875 L1121.25,154.875 L1121.25,153 L1123.125,153 L1123.125,154.875 Z M1121.25,153 L1119.375,153 L1119.375,151.125 L1121.25,151.125 L1121.25,153 Z M1119.375,151.125 L1117.5,151.125 L1117.5,149.25 L1119.375,149.25 L1119.375,151.125 Z M1117.5,149.25 L1115.625,149.25 L1115.625,147.375 L1117.5,147.375 L1117.5,149.25 Z M1115.625,147.375 L1113.75,147.375 L1113.75,145.5 L1115.625,145.5 L1115.625,147.375 Z M1113.75,145.5 L1111.875,145.5 L1111.875,143.625 L1113.75,143.625 L1113.75,145.5 Z M1111.875,143.625 L1110,143.625 L1110,141.75 L1111.875,141.75 L1111.875,143.625 Z M1110,141.75 L1108.125,141.75 L1108.125,139.875 L1110,139.875 L1110,141.75 Z M1108.125,139.875 L1106.25,139.875 L1106.25,138 L1108.125,138 L1108.125,139.875 Z M1106.25,138 L1104.375,138 L1104.375,136.125 L1106.25,136.125 L1106.25,138 Z M1104.375,136.125 L1102.5,136.125 L1102.5,134.25 L1104.375,134.25 L1104.375,136.125 Z" id="Shape" fill="#C0C0C0"></path>
            <path d="M1080,179.75 L1080,177.875 L1081.875,177.875 L1081.875,179.75 L1080,179.75 Z M1081.875,177.875 L1081.875,176 L1083.75,176 L1083.75,177.875 L1081.875,177.875 Z M1083.75,176 L1083.75,174.125 L1085.625,174.125 L1085.625,176 L1083.75,176 Z M1085.625,174.125 L1085.625,172.25 L1087.5,172.25 L1087.5,174.125 L1085.625,174.125 Z M1087.5,172.25 L1087.5,170.375 L1089.375,170.375 L1089.375,172.25 L1087.5,172.25 Z M1100.625,170.375 L1098.75,170.375 L1096.875,170.375 L1095,170.375 L1093.125,170.375 L1091.25,170.375 L1089.375,170.375 L1089.375,168.5 L1091.25,168.5 L1091.25,166.625 L1093.125,166.625 L1095,166.625 L1096.875,166.625 L1098.75,166.625 L1100.625,166.625 L1102.5,166.625 L1102.5,168.5 L1102.5,170.375 L1100.625,170.375 Z" id="Shape" fill="#03FF00"></path>
            <polygon id="Path" fill="#03FF00" points="1123.125 170.375 1121.25 170.375 1119.375 170.375 1117.5 170.375 1115.625 170.375 1113.75 170.375 1111.875 170.375 1110 170.375 1108.125 170.375 1106.25 170.375 1104.375 170.375 1102.5 170.375 1102.5 168.5 1102.5 166.625 1104.375 166.625 1106.25 166.625 1108.125 166.625 1110 166.625 1111.875 166.625 1113.75 166.625 1115.625 166.625 1117.5 166.625 1119.375 166.625 1121.25 166.625 1123.125 166.625 1125 166.625 1125 168.5 1125 170.375"></polygon>
            <polygon id="Path" fill="#03FF00" points="1145.625 170.375 1143.75 170.375 1141.875 170.375 1140 170.375 1138.125 170.375 1136.25 170.375 1134.375 170.375 1132.5 170.375 1130.625 170.375 1128.75 170.375 1126.875 170.375 1125 170.375 1125 168.5 1125 166.625 1126.875 166.625 1128.75 166.625 1130.625 166.625 1132.5 166.625 1134.375 166.625 1136.25 166.625 1138.125 166.625 1140 166.625 1141.875 166.625 1143.75 166.625 1145.625 166.625 1147.5 166.625 1147.5 168.5 1147.5 170.375"></polygon>
            <polygon id="Path" fill="#03FF00" points="1168.125 170.375 1166.25 170.375 1164.375 170.375 1162.5 170.375 1160.625 170.375 1158.75 170.375 1156.875 170.375 1155 170.375 1153.125 170.375 1151.25 170.375 1149.375 170.375 1147.5 170.375 1147.5 168.5 1147.5 166.625 1149.375 166.625 1151.25 166.625 1153.125 166.625 1155 166.625 1156.875 166.625 1158.75 166.625 1160.625 166.625 1162.5 166.625 1164.375 166.625 1166.25 166.625 1168.125 166.625 1170 166.625 1170 168.5 1170 170.375"></polygon>
            <polygon id="Path" fill="#03FF00" points="1190.625 170.375 1188.75 170.375 1186.875 170.375 1185 170.375 1183.125 170.375 1181.25 170.375 1179.375 170.375 1177.5 170.375 1175.625 170.375 1173.75 170.375 1171.875 170.375 1170 170.375 1170 168.5 1170 166.625 1171.875 166.625 1173.75 166.625 1175.625 166.625 1177.5 166.625 1179.375 166.625 1181.25 166.625 1183.125 166.625 1185 166.625 1186.875 166.625 1188.75 166.625 1190.625 166.625 1192.5 166.625 1192.5 168.5 1192.5 170.375"></polygon>
            <polygon id="Path" fill="#03FF00" points="1213.125 170.375 1211.25 170.375 1209.375 170.375 1207.5 170.375 1205.625 170.375 1203.75 170.375 1201.875 170.375 1200 170.375 1198.125 170.375 1196.25 170.375 1194.375 170.375 1192.5 170.375 1192.5 168.5 1192.5 166.625 1194.375 166.625 1196.25 166.625 1198.125 166.625 1200 166.625 1201.875 166.625 1203.75 166.625 1205.625 166.625 1207.5 166.625 1209.375 166.625 1211.25 166.625 1213.125 166.625 1215 166.625 1215 168.5 1215 170.375"></polygon>
            <polygon id="Path" fill="#03FF00" points="1235.625 170.375 1233.75 170.375 1231.875 170.375 1230 170.375 1228.125 170.375 1226.25 170.375 1224.375 170.375 1222.5 170.375 1220.625 170.375 1218.75 170.375 1216.875 170.375 1215 170.375 1215 168.5 1215 166.625 1216.875 166.625 1218.75 166.625 1220.625 166.625 1222.5 166.625 1224.375 166.625 1226.25 166.625 1228.125 166.625 1230 166.625 1231.875 166.625 1233.75 166.625 1235.625 166.625 1237.5 166.625 1237.5 168.5 1237.5 170.375"></polygon>
            <polygon id="Path" fill="#03FF00" points="1258.125 170.375 1256.25 170.375 1254.375 170.375 1252.5 170.375 1250.625 170.375 1248.75 170.375 1246.875 170.375 1245 170.375 1243.125 170.375 1241.25 170.375 1239.375 170.375 1237.5 170.375 1237.5 168.5 1237.5 166.625 1239.375 166.625 1241.25 166.625 1243.125 166.625 1245 166.625 1246.875 166.625 1248.75 166.625 1250.625 166.625 1252.5 166.625 1254.375 166.625 1256.25 166.625 1258.125 166.625 1260 166.625 1260 168.5 1260 170.375"></polygon>
            <polygon id="Path" fill="#03FF00" points="1280.625 170.375 1278.75 170.375 1276.875 170.375 1275 170.375 1273.125 170.375 1271.25 170.375 1269.375 170.375 1267.5 170.375 1265.625 170.375 1263.75 170.375 1261.875 170.375 1260 170.375 1260 168.5 1260 166.625 1261.875 166.625 1263.75 166.625 1265.625 166.625 1267.5 166.625 1269.375 166.625 1271.25 166.625 1273.125 166.625 1275 166.625 1276.875 166.625 1278.75 166.625 1280.625 166.625 1282.5 166.625 1282.5 168.5 1282.5 170.375"></polygon>
            <polygon id="Path" fill="#03FF00" points="1303.125 170.375 1301.25 170.375 1299.375 170.375 1297.5 170.375 1295.625 170.375 1293.75 170.375 1291.875 170.375 1290 170.375 1288.125 170.375 1286.25 170.375 1284.375 170.375 1282.5 170.375 1282.5 168.5 1282.5 166.625 1284.375 166.625 1286.25 166.625 1288.125 166.625 1290 166.625 1291.875 166.625 1293.75 166.625 1295.625 166.625 1297.5 166.625 1299.375 166.625 1301.25 166.625 1303.125 166.625 1305 166.625 1305 168.5 1305 170.375"></polygon>
            <polygon id="Path" fill="#03FF00" points="1325.625 170.375 1323.75 170.375 1321.875 170.375 1320 170.375 1318.125 170.375 1316.25 170.375 1314.375 170.375 1312.5 170.375 1310.625 170.375 1308.75 170.375 1306.875 170.375 1305 170.375 1305 168.5 1305 166.625 1306.875 166.625 1308.75 166.625 1310.625 166.625 1312.5 166.625 1314.375 166.625 1316.25 166.625 1318.125 166.625 1320 166.625 1321.875 166.625 1323.75 166.625 1325.625 166.625 1327.5 166.625 1327.5 168.5 1327.5 170.375"></polygon>
            <polygon id="Path" fill="#03FF00" points="1348.125 170.375 1346.25 170.375 1344.375 170.375 1342.5 170.375 1340.625 170.375 1338.75 170.375 1336.875 170.375 1335 170.375 1333.125 170.375 1331.25 170.375 1329.375 170.375 1327.5 170.375 1327.5 168.5 1327.5 166.625 1329.375 166.625 1331.25 166.625 1333.125 166.625 1335 166.625 1336.875 166.625 1338.75 166.625 1340.625 166.625 1342.5 166.625 1344.375 166.625 1346.25 166.625 1348.125 166.625 1350 166.625 1350 168.5 1350 170.375"></polygon>
            <polygon id="Path" fill="#03FF00" points="1370.625 170.375 1368.75 170.375 1366.875 170.375 1365 170.375 1363.125 170.375 1361.25 170.375 1359.375 170.375 1357.5 170.375 1355.625 170.375 1353.75 170.375 1351.875 170.375 1350 170.375 1350 168.5 1350 166.625 1351.875 166.625 1353.75 166.625 1355.625 166.625 1357.5 166.625 1359.375 166.625 1361.25 166.625 1363.125 166.625 1365 166.625 1366.875 166.625 1368.75 166.625 1370.625 166.625 1372.5 166.625 1372.5 168.5 1372.5 170.375"></polygon>
            <polygon id="Path" fill="#03FF00" points="1393.125 170.375 1391.25 170.375 1389.375 170.375 1387.5 170.375 1385.625 170.375 1383.75 170.375 1381.875 170.375 1380 170.375 1378.125 170.375 1376.25 170.375 1374.375 170.375 1372.5 170.375 1372.5 168.5 1372.5 166.625 1374.375 166.625 1376.25 166.625 1378.125 166.625 1380 166.625 1381.875 166.625 1383.75 166.625 1385.625 166.625 1387.5 166.625 1389.375 166.625 1391.25 166.625 1393.125 166.625 1395 166.625 1395 168.5 1395 170.375"></polygon>
            <polygon id="Path" fill="#03FF00" points="1398.75 176 1396.875 176 1396.875 174.125 1396.875 172.25 1396.875 170.375 1396.875 168.5 1396.875 166.625 1396.875 164.75 1396.875 162.875 1396.875 161 1396.875 159.125 1398.75 159.125 1400.625 159.125 1400.625 161 1402.5 161 1404.375 161 1404.375 162.875 1406.25 162.875 1408.125 162.875 1408.125 164.75 1410 164.75 1411.875 164.75 1411.875 166.625 1413.75 166.625 1415.625 166.625 1415.625 168.5 1413.75 168.5 1411.875 168.5 1411.875 170.375 1410 170.375 1408.125 170.375 1408.125 172.25 1406.25 172.25 1404.375 172.25 1404.375 174.125 1402.5 174.125 1400.625 174.125 1400.625 172.25 1402.5 172.25 1404.375 172.25 1404.375 170.375 1406.25 170.375 1408.125 170.375 1408.125 168.5 1410 168.5 1411.875 168.5 1411.875 166.625 1410 166.625 1408.125 166.625 1408.125 164.75 1406.25 164.75 1404.375 164.75 1404.375 162.875 1402.5 162.875 1400.625 162.875 1400.625 161 1398.75 161 1398.75 162.875 1398.75 164.75 1398.75 166.625 1398.75 168.5 1398.75 170.375 1398.75 172.25 1398.75 174.125 1400.625 174.125 1400.625 176"></polygon>
            <path d="M1436.25,176 L1434.375,176 L1434.375,174.125 L1432.5,174.125 L1430.625,174.125 L1430.625,172.25 L1428.75,172.25 L1426.875,172.25 L1426.875,170.375 L1425,170.375 L1423.125,170.375 L1423.125,168.5 L1421.25,168.5 L1419.375,168.5 L1419.375,166.625 L1421.25,166.625 L1423.125,166.625 L1423.125,164.75 L1425,164.75 L1426.875,164.75 L1426.875,162.875 L1428.75,162.875 L1430.625,162.875 L1430.625,161 L1432.5,161 L1434.375,161 L1434.375,159.125 L1436.25,159.125 L1438.125,159.125 L1438.125,161 L1438.125,162.875 L1438.125,164.75 L1438.125,166.625 L1438.125,168.5 L1438.125,170.375 L1438.125,172.25 L1438.125,174.125 L1438.125,176 L1436.25,176 Z M1436.25,174.125 L1436.25,172.25 L1436.25,170.375 L1436.25,168.5 L1436.25,166.625 L1436.25,164.75 L1436.25,162.875 L1436.25,161 L1434.375,161 L1434.375,162.875 L1432.5,162.875 L1430.625,162.875 L1430.625,164.75 L1428.75,164.75 L1426.875,164.75 L1426.875,166.625 L1425,166.625 L1423.125,166.625 L1423.125,168.5 L1425,168.5 L1426.875,168.5 L1426.875,170.375 L1428.75,170.375 L1430.625,170.375 L1430.625,172.25 L1432.5,172.25 L1434.375,172.25 L1434.375,174.125 L1436.25,174.125 Z" id="Shape" fill="#C0C0C0"></path>
            <polygon id="Path" fill="#03FF00" points="1460.625 170.375 1458.75 170.375 1456.875 170.375 1455 170.375 1453.125 170.375 1451.25 170.375 1449.375 170.375 1447.5 170.375 1445.625 170.375 1443.75 170.375 1441.875 170.375 1440 170.375 1440 168.5 1440 166.625 1441.875 166.625 1443.75 166.625 1445.625 166.625 1447.5 166.625 1449.375 166.625 1451.25 166.625 1453.125 166.625 1455 166.625 1456.875 166.625 1458.75 166.625 1460.625 166.625 1462.5 166.625 1462.5 168.5 1462.5 170.375"></polygon>
            <polygon id="Path" fill="#03FF00" points="1483.125 170.375 1481.25 170.375 1479.375 170.375 1477.5 170.375 1475.625 170.375 1473.75 170.375 1471.875 170.375 1470 170.375 1468.125 170.375 1466.25 170.375 1464.375 170.375 1462.5 170.375 1462.5 168.5 1462.5 166.625 1464.375 166.625 1466.25 166.625 1468.125 166.625 1470 166.625 1471.875 166.625 1473.75 166.625 1475.625 166.625 1477.5 166.625 1479.375 166.625 1481.25 166.625 1483.125 166.625 1485 166.625 1485 168.5 1485 170.375"></polygon>
            <polygon id="Path" fill="#03FF00" points="1505.625 170.375 1503.75 170.375 1501.875 170.375 1500 170.375 1498.125 170.375 1496.25 170.375 1494.375 170.375 1492.5 170.375 1490.625 170.375 1488.75 170.375 1486.875 170.375 1485 170.375 1485 168.5 1485 166.625 1486.875 166.625 1488.75 166.625 1490.625 166.625 1492.5 166.625 1494.375 166.625 1496.25 166.625 1498.125 166.625 1500 166.625 1501.875 166.625 1503.75 166.625 1505.625 166.625 1507.5 166.625 1507.5 168.5 1507.5 170.375"></polygon>
            <polygon id="Path" fill="#03FF00" points="1528.125 170.375 1526.25 170.375 1524.375 170.375 1522.5 170.375 1520.625 170.375 1518.75 170.375 1516.875 170.375 1515 170.375 1513.125 170.375 1511.25 170.375 1509.375 170.375 1507.5 170.375 1507.5 168.5 1507.5 166.625 1509.375 166.625 1511.25 166.625 1513.125 166.625 1515 166.625 1516.875 166.625 1518.75 166.625 1520.625 166.625 1522.5 166.625 1524.375 166.625 1526.25 166.625 1528.125 166.625 1530 166.625 1530 168.5 1530 170.375"></polygon>
            <polygon id="Path" fill="#03FF00" points="1550.625 170.375 1548.75 170.375 1546.875 170.375 1545 170.375 1543.125 170.375 1541.25 170.375 1539.375 170.375 1537.5 170.375 1535.625 170.375 1533.75 170.375 1531.875 170.375 1530 170.375 1530 168.5 1530 166.625 1531.875 166.625 1533.75 166.625 1535.625 166.625 1537.5 166.625 1539.375 166.625 1541.25 166.625 1543.125 166.625 1545 166.625 1546.875 166.625 1548.75 166.625 1550.625 166.625 1552.5 166.625 1552.5 168.5 1552.5 170.375"></polygon>
            <polygon id="Path" fill="#03FF00" points="1573.125 170.375 1571.25 170.375 1569.375 170.375 1567.5 170.375 1565.625 170.375 1563.75 170.375 1561.875 170.375 1560 170.375 1558.125 170.375 1556.25 170.375 1554.375 170.375 1552.5 170.375 1552.5 168.5 1552.5 166.625 1554.375 166.625 1556.25 166.625 1558.125 166.625 1560 166.625 1561.875 166.625 1563.75 166.625 1565.625 166.625 1567.5 166.625 1569.375 166.625 1571.25 166.625 1573.125 166.625 1575 166.625 1575 168.5 1575 170.375"></polygon>
            <polygon id="Path" fill="#03FF00" points="1595.625 170.375 1593.75 170.375 1591.875 170.375 1590 170.375 1588.125 170.375 1586.25 170.375 1584.375 170.375 1582.5 170.375 1580.625 170.375 1578.75 170.375 1576.875 170.375 1575 170.375 1575 168.5 1575 166.625 1576.875 166.625 1578.75 166.625 1580.625 166.625 1582.5 166.625 1584.375 166.625 1586.25 166.625 1588.125 166.625 1590 166.625 1591.875 166.625 1593.75 166.625 1595.625 166.625 1597.5 166.625 1597.5 168.5 1597.5 170.375"></polygon>
            <polygon id="Path" fill="#03FF00" points="1618.125 170.375 1616.25 170.375 1614.375 170.375 1612.5 170.375 1610.625 170.375 1608.75 170.375 1606.875 170.375 1605 170.375 1603.125 170.375 1601.25 170.375 1599.375 170.375 1597.5 170.375 1597.5 168.5 1597.5 166.625 1599.375 166.625 1601.25 166.625 1603.125 166.625 1605 166.625 1606.875 166.625 1608.75 166.625 1610.625 166.625 1612.5 166.625 1614.375 166.625 1616.25 166.625 1618.125 166.625 1620 166.625 1620 168.5 1620 170.375"></polygon>
            <polygon id="Path" fill="#03FF00" points="1640.625 170.375 1638.75 170.375 1636.875 170.375 1635 170.375 1633.125 170.375 1631.25 170.375 1629.375 170.375 1627.5 170.375 1625.625 170.375 1623.75 170.375 1621.875 170.375 1620 170.375 1620 168.5 1620 166.625 1621.875 166.625 1623.75 166.625 1625.625 166.625 1627.5 166.625 1629.375 166.625 1631.25 166.625 1633.125 166.625 1635 166.625 1636.875 166.625 1638.75 166.625 1640.625 166.625 1642.5 166.625 1642.5 168.5 1642.5 170.375"></polygon>
            <polygon id="Path" fill="#03FF00" points="1663.125 170.375 1661.25 170.375 1659.375 170.375 1657.5 170.375 1655.625 170.375 1653.75 170.375 1651.875 170.375 1650 170.375 1648.125 170.375 1646.25 170.375 1644.375 170.375 1642.5 170.375 1642.5 168.5 1642.5 166.625 1644.375 166.625 1646.25 166.625 1648.125 166.625 1650 166.625 1651.875 166.625 1653.75 166.625 1655.625 166.625 1657.5 166.625 1659.375 166.625 1661.25 166.625 1663.125 166.625 1665 166.625 1665 168.5 1665 170.375"></polygon>
            <polygon id="Path" fill="#03FF00" points="1685.625 170.375 1683.75 170.375 1681.875 170.375 1680 170.375 1678.125 170.375 1676.25 170.375 1674.375 170.375 1672.5 170.375 1670.625 170.375 1668.75 170.375 1666.875 170.375 1665 170.375 1665 168.5 1665 166.625 1666.875 166.625 1668.75 166.625 1670.625 166.625 1672.5 166.625 1674.375 166.625 1676.25 166.625 1678.125 166.625 1680 166.625 1681.875 166.625 1683.75 166.625 1685.625 166.625 1687.5 166.625 1687.5 168.5 1687.5 170.375"></polygon>
            <polygon id="Path" fill="#03FF00" points="1708.125 170.375 1706.25 170.375 1704.375 170.375 1702.5 170.375 1700.625 170.375 1698.75 170.375 1696.875 170.375 1695 170.375 1693.125 170.375 1691.25 170.375 1689.375 170.375 1687.5 170.375 1687.5 168.5 1687.5 166.625 1689.375 166.625 1691.25 166.625 1693.125 166.625 1695 166.625 1696.875 166.625 1698.75 166.625 1700.625 166.625 1702.5 166.625 1704.375 166.625 1706.25 166.625 1708.125 166.625 1710 166.625 1710 168.5 1710 170.375"></polygon>
            <polygon id="Path" fill="#03FF00" points="1730.625 170.375 1728.75 170.375 1726.875 170.375 1725 170.375 1723.125 170.375 1721.25 170.375 1719.375 170.375 1717.5 170.375 1715.625 170.375 1713.75 170.375 1711.875 170.375 1710 170.375 1710 168.5 1710 166.625 1711.875 166.625 1713.75 166.625 1715.625 166.625 1717.5 166.625 1719.375 166.625 1721.25 166.625 1723.125 166.625 1725 166.625 1726.875 166.625 1728.75 166.625 1730.625 166.625 1732.5 166.625 1732.5 168.5 1732.5 170.375"></polygon>
            <path d="M1057.5,202.75 L1057.5,200.875 L1059.375,200.875 L1059.375,202.75 L1057.5,202.75 Z M1059.375,200.875 L1059.375,199 L1061.25,199 L1061.25,200.875 L1059.375,200.875 Z M1061.25,199 L1061.25,197.125 L1063.125,197.125 L1063.125,199 L1061.25,199 Z M1063.125,197.125 L1063.125,195.25 L1065,195.25 L1065,197.125 L1063.125,197.125 Z M1065,195.25 L1065,193.375 L1066.875,193.375 L1066.875,195.25 L1065,195.25 Z M1066.875,193.375 L1066.875,191.5 L1068.75,191.5 L1068.75,193.375 L1066.875,193.375 Z M1068.75,191.5 L1068.75,189.625 L1070.625,189.625 L1070.625,191.5 L1068.75,191.5 Z M1070.625,189.625 L1070.625,187.75 L1072.5,187.75 L1072.5,189.625 L1070.625,189.625 Z M1072.5,187.75 L1072.5,185.875 L1074.375,185.875 L1074.375,187.75 L1072.5,187.75 Z M1074.375,185.875 L1074.375,184 L1076.25,184 L1076.25,185.875 L1074.375,185.875 Z M1076.25,184 L1076.25,182.125 L1078.125,182.125 L1078.125,184 L1076.25,184 Z M1078.125,182.125 L1078.125,180.25 L1080,180.25 L1080,182.125 L1078.125,182.125 Z" id="Shape" fill="#03FF00"></path>
            <polygon id="Path" fill="#FFFFFF" points="763.125 225.75 761.25 225.75 759.375 225.75 757.5 225.75 755.625 225.75 753.75 225.75 751.875 225.75 750 225.75 748.125 225.75 746.25 225.75 744.375 225.75 742.5 225.75 742.5 223.875 742.5 222 742.5 220.125 742.5 218.25 742.5 216.375 742.5 214.5 742.5 212.625 742.5 210.75 742.5 208.875 742.5 207 742.5 205.125 742.5 203.25 744.375 203.25 746.25 203.25 748.125 203.25 750 203.25 751.875 203.25 753.75 203.25 755.625 203.25 757.5 203.25 759.375 203.25 761.25 203.25 763.125 203.25 765 203.25 765 205.125 765 207 765 208.875 765 210.75 765 212.625 765 214.5 765 216.375 765 218.25 765 220.125 765 222 765 223.875 765 225.75"></polygon>
            <polygon id="Path" fill="#FFFFFF" points="785.625 225.75 783.75 225.75 781.875 225.75 780 225.75 778.125 225.75 776.25 225.75 774.375 225.75 772.5 225.75 770.625 225.75 768.75 225.75 766.875 225.75 765 225.75 765 223.875 765 222 765 220.125 765 218.25 765 216.375 765 214.5 765 212.625 765 210.75 765 208.875 765 207 765 205.125 765 203.25 766.875 203.25 768.75 203.25 770.625 203.25 772.5 203.25 774.375 203.25 776.25 203.25 778.125 203.25 780 203.25 781.875 203.25 783.75 203.25 785.625 203.25 787.5 203.25 787.5 205.125 787.5 207 787.5 208.875 787.5 210.75 787.5 212.625 787.5 214.5 787.5 216.375 787.5 218.25 787.5 220.125 787.5 222 787.5 223.875 787.5 225.75"></polygon>
            <polygon id="Path" fill="#FFFFFF" points="808.125 225.75 806.25 225.75 804.375 225.75 802.5 225.75 800.625 225.75 798.75 225.75 796.875 225.75 795 225.75 793.125 225.75 791.25 225.75 789.375 225.75 787.5 225.75 787.5 223.875 787.5 222 787.5 220.125 787.5 218.25 787.5 216.375 787.5 214.5 787.5 212.625 787.5 210.75 787.5 208.875 787.5 207 787.5 205.125 787.5 203.25 789.375 203.25 791.25 203.25 793.125 203.25 795 203.25 796.875 203.25 798.75 203.25 800.625 203.25 802.5 203.25 804.375 203.25 806.25 203.25 808.125 203.25 810 203.25 810 205.125 810 207 810 208.875 810 210.75 810 212.625 810 214.5 810 216.375 810 218.25 810 220.125 810 222 810 223.875 810 225.75"></polygon>
            <polygon id="Path" fill="#FFFFFF" points="830.625 225.75 828.75 225.75 826.875 225.75 825 225.75 823.125 225.75 821.25 225.75 819.375 225.75 817.5 225.75 815.625 225.75 813.75 225.75 811.875 225.75 810 225.75 810 223.875 810 222 810 220.125 810 218.25 810 216.375 810 214.5 810 212.625 810 210.75 810 208.875 810 207 810 205.125 810 203.25 811.875 203.25 813.75 203.25 815.625 203.25 817.5 203.25 819.375 203.25 821.25 203.25 823.125 203.25 825 203.25 826.875 203.25 828.75 203.25 830.625 203.25 832.5 203.25 832.5 205.125 832.5 207 832.5 208.875 832.5 210.75 832.5 212.625 832.5 214.5 832.5 216.375 832.5 218.25 832.5 220.125 832.5 222 832.5 223.875 832.5 225.75"></polygon>
            <path d="M1035,225.75 L1035,223.875 L1036.875,223.875 L1036.875,225.75 L1035,225.75 Z M1036.875,223.875 L1036.875,222 L1038.75,222 L1038.75,223.875 L1036.875,223.875 Z M1038.75,222 L1038.75,220.125 L1040.625,220.125 L1040.625,222 L1038.75,222 Z M1040.625,220.125 L1040.625,218.25 L1042.5,218.25 L1042.5,220.125 L1040.625,220.125 Z M1042.5,218.25 L1042.5,216.375 L1044.375,216.375 L1044.375,218.25 L1042.5,218.25 Z M1044.375,216.375 L1044.375,214.5 L1046.25,214.5 L1046.25,216.375 L1044.375,216.375 Z M1046.25,214.5 L1046.25,212.625 L1048.125,212.625 L1048.125,214.5 L1046.25,214.5 Z M1048.125,212.625 L1048.125,210.75 L1050,210.75 L1050,212.625 L1048.125,212.625 Z M1050,210.75 L1050,208.875 L1051.875,208.875 L1051.875,210.75 L1050,210.75 Z M1051.875,208.875 L1051.875,207 L1053.75,207 L1053.75,208.875 L1051.875,208.875 Z M1053.75,207 L1053.75,205.125 L1055.625,205.125 L1055.625,207 L1053.75,207 Z M1055.625,205.125 L1055.625,203.25 L1057.5,203.25 L1057.5,205.125 L1055.625,205.125 Z" id="Shape" fill="#03FF00"></path>
            <polygon id="Path" fill="#C0C0C0" points="20.625 239.375 18.75 239.375 16.875 239.375 15 239.375 13.125 239.375 11.25 239.375 9.375 239.375 7.5 239.375 5.625 239.375 3.75 239.375 1.875 239.375 0 239.375 0 237.5 0 235.625 1.875 235.625 3.75 235.625 5.625 235.625 7.5 235.625 9.375 235.625 11.25 235.625 13.125 235.625 15 235.625 16.875 235.625 18.75 235.625 20.625 235.625 22.5 235.625 22.5 237.5 22.5 239.375"></polygon>
            <polygon id="Path" fill="#C0C0C0" points="43.125 239.375 41.25 239.375 39.375 239.375 37.5 239.375 35.625 239.375 33.75 239.375 31.875 239.375 30 239.375 28.125 239.375 26.25 239.375 24.375 239.375 22.5 239.375 22.5 237.5 22.5 235.625 24.375 235.625 26.25 235.625 28.125 235.625 30 235.625 31.875 235.625 33.75 235.625 35.625 235.625 37.5 235.625 39.375 235.625 41.25 235.625 43.125 235.625 45 235.625 45 237.5 45 239.375"></polygon>
            <polygon id="Path" fill="#C0C0C0" points="65.625 239.375 63.75 239.375 61.875 239.375 60 239.375 58.125 239.375 56.25 239.375 54.375 239.375 52.5 239.375 50.625 239.375 48.75 239.375 46.875 239.375 45 239.375 45 237.5 45 235.625 46.875 235.625 48.75 235.625 50.625 235.625 52.5 235.625 54.375 235.625 56.25 235.625 58.125 235.625 60 235.625 61.875 235.625 63.75 235.625 65.625 235.625 67.5 235.625 67.5 237.5 67.5 239.375"></polygon>
            <polygon id="Path" fill="#C0C0C0" points="88.125 239.375 86.25 239.375 84.375 239.375 82.5 239.375 80.625 239.375 78.75 239.375 76.875 239.375 75 239.375 73.125 239.375 71.25 239.375 69.375 239.375 67.5 239.375 67.5 237.5 67.5 235.625 69.375 235.625 71.25 235.625 73.125 235.625 75 235.625 76.875 235.625 78.75 235.625 80.625 235.625 82.5 235.625 84.375 235.625 86.25 235.625 88.125 235.625 90 235.625 90 237.5 90 239.375"></polygon>
            <polygon id="Path" fill="#C0C0C0" points="110.625 239.375 108.75 239.375 106.875 239.375 105 239.375 103.125 239.375 101.25 239.375 99.375 239.375 97.5 239.375 95.625 239.375 93.75 239.375 91.875 239.375 90 239.375 90 237.5 90 235.625 91.875 235.625 93.75 235.625 95.625 235.625 97.5 235.625 99.375 235.625 101.25 235.625 103.125 235.625 105 235.625 106.875 235.625 108.75 235.625 110.625 235.625 112.5 235.625 112.5 237.5 112.5 239.375"></polygon>
            <polygon id="Path" fill="#C0C0C0" points="133.125 239.375 131.25 239.375 129.375 239.375 127.5 239.375 125.625 239.375 123.75 239.375 121.875 239.375 120 239.375 118.125 239.375 116.25 239.375 114.375 239.375 112.5 239.375 112.5 237.5 112.5 235.625 114.375 235.625 116.25 235.625 118.125 235.625 120 235.625 121.875 235.625 123.75 235.625 125.625 235.625 127.5 235.625 129.375 235.625 131.25 235.625 133.125 235.625 135 235.625 135 237.5 135 239.375"></polygon>
            <polygon id="Path" fill="#C0C0C0" points="155.625 239.375 153.75 239.375 151.875 239.375 150 239.375 148.125 239.375 146.25 239.375 144.375 239.375 142.5 239.375 140.625 239.375 138.75 239.375 136.875 239.375 135 239.375 135 237.5 135 235.625 136.875 235.625 138.75 235.625 140.625 235.625 142.5 235.625 144.375 235.625 146.25 235.625 148.125 235.625 150 235.625 151.875 235.625 153.75 235.625 155.625 235.625 157.5 235.625 157.5 237.5 157.5 239.375"></polygon>
            <polygon id="Path" fill="#C0C0C0" points="178.125 239.375 176.25 239.375 174.375 239.375 172.5 239.375 170.625 239.375 168.75 239.375 166.875 239.375 165 239.375 163.125 239.375 161.25 239.375 159.375 239.375 157.5 239.375 157.5 237.5 157.5 235.625 159.375 235.625 161.25 235.625 163.125 235.625 165 235.625 166.875 235.625 168.75 235.625 170.625 235.625 172.5 235.625 174.375 235.625 176.25 235.625 178.125 235.625 180 235.625 180 237.5 180 239.375"></polygon>
            <polygon id="Path" fill="#C0C0C0" points="183.75 245 181.875 245 181.875 243.125 181.875 241.25 181.875 239.375 181.875 237.5 181.875 235.625 181.875 233.75 181.875 231.875 181.875 230 181.875 228.125 183.75 228.125 185.625 228.125 185.625 230 187.5 230 189.375 230 189.375 231.875 191.25 231.875 193.125 231.875 193.125 233.75 195 233.75 196.875 233.75 196.875 235.625 198.75 235.625 200.625 235.625 200.625 237.5 198.75 237.5 196.875 237.5 196.875 239.375 195 239.375 193.125 239.375 193.125 241.25 191.25 241.25 189.375 241.25 189.375 243.125 187.5 243.125 185.625 243.125 185.625 241.25 187.5 241.25 189.375 241.25 189.375 239.375 191.25 239.375 193.125 239.375 193.125 237.5 195 237.5 196.875 237.5 196.875 235.625 195 235.625 193.125 235.625 193.125 233.75 191.25 233.75 189.375 233.75 189.375 231.875 187.5 231.875 185.625 231.875 185.625 230 183.75 230 183.75 231.875 183.75 233.75 183.75 235.625 183.75 237.5 183.75 239.375 183.75 241.25 183.75 243.125 185.625 243.125 185.625 245"></polygon>
            <polygon id="Path" fill="#FF0000" points="223.125 239.375 221.25 239.375 219.375 239.375 217.5 239.375 215.625 239.375 213.75 239.375 211.875 239.375 210 239.375 208.125 239.375 206.25 239.375 204.375 239.375 202.5 239.375 202.5 237.5 202.5 235.625 204.375 235.625 206.25 235.625 208.125 235.625 210 235.625 211.875 235.625 213.75 235.625 215.625 235.625 217.5 235.625 219.375 235.625 221.25 235.625 223.125 235.625 225 235.625 225 237.5 225 239.375"></polygon>
            <polygon id="Path" fill="#FF0000" points="245.625 239.375 243.75 239.375 241.875 239.375 240 239.375 238.125 239.375 236.25 239.375 234.375 239.375 232.5 239.375 230.625 239.375 228.75 239.375 226.875 239.375 225 239.375 225 237.5 225 235.625 226.875 235.625 228.75 235.625 230.625 235.625 232.5 235.625 234.375 235.625 236.25 235.625 238.125 235.625 240 235.625 241.875 235.625 243.75 235.625 245.625 235.625 247.5 235.625 247.5 237.5 247.5 239.375"></polygon>
            <polygon id="Path" fill="#FF0000" points="268.125 239.375 266.25 239.375 264.375 239.375 262.5 239.375 260.625 239.375 258.75 239.375 256.875 239.375 255 239.375 253.125 239.375 251.25 239.375 249.375 239.375 247.5 239.375 247.5 237.5 247.5 235.625 249.375 235.625 251.25 235.625 253.125 235.625 255 235.625 256.875 235.625 258.75 235.625 260.625 235.625 262.5 235.625 264.375 235.625 266.25 235.625 268.125 235.625 270 235.625 270 237.5 270 239.375"></polygon>
            <polygon id="Path" fill="#FF0000" points="290.625 239.375 288.75 239.375 286.875 239.375 285 239.375 283.125 239.375 281.25 239.375 279.375 239.375 277.5 239.375 275.625 239.375 273.75 239.375 271.875 239.375 270 239.375 270 237.5 270 235.625 271.875 235.625 273.75 235.625 275.625 235.625 277.5 235.625 279.375 235.625 281.25 235.625 283.125 235.625 285 235.625 286.875 235.625 288.75 235.625 290.625 235.625 292.5 235.625 292.5 237.5 292.5 239.375"></polygon>
            <polygon id="Path" fill="#FF0000" points="313.125 239.375 311.25 239.375 309.375 239.375 307.5 239.375 305.625 239.375 303.75 239.375 301.875 239.375 300 239.375 298.125 239.375 296.25 239.375 294.375 239.375 292.5 239.375 292.5 237.5 292.5 235.625 294.375 235.625 296.25 235.625 298.125 235.625 300 235.625 301.875 235.625 303.75 235.625 305.625 235.625 307.5 235.625 309.375 235.625 311.25 235.625 313.125 235.625 315 235.625 315 237.5 315 239.375"></polygon>
            <polygon id="Path" fill="#FF0000" points="335.625 239.375 333.75 239.375 331.875 239.375 330 239.375 328.125 239.375 326.25 239.375 324.375 239.375 322.5 239.375 320.625 239.375 318.75 239.375 316.875 239.375 315 239.375 315 237.5 315 235.625 316.875 235.625 318.75 235.625 320.625 235.625 322.5 235.625 324.375 235.625 326.25 235.625 328.125 235.625 330 235.625 331.875 235.625 333.75 235.625 335.625 235.625 337.5 235.625 337.5 237.5 337.5 239.375"></polygon>
            <polygon id="Path" fill="#FF0000" points="358.125 239.375 356.25 239.375 354.375 239.375 352.5 239.375 350.625 239.375 348.75 239.375 346.875 239.375 345 239.375 343.125 239.375 341.25 239.375 339.375 239.375 337.5 239.375 337.5 237.5 337.5 235.625 339.375 235.625 341.25 235.625 343.125 235.625 345 235.625 346.875 235.625 348.75 235.625 350.625 235.625 352.5 235.625 354.375 235.625 356.25 235.625 358.125 235.625 360 235.625 360 237.5 360 239.375"></polygon>
            <polygon id="Path" fill="#FF0000" points="380.625 239.375 378.75 239.375 376.875 239.375 375 239.375 373.125 239.375 371.25 239.375 369.375 239.375 367.5 239.375 365.625 239.375 363.75 239.375 361.875 239.375 360 239.375 360 237.5 360 235.625 361.875 235.625 363.75 235.625 365.625 235.625 367.5 235.625 369.375 235.625 371.25 235.625 373.125 235.625 375 235.625 376.875 235.625 378.75 235.625 380.625 235.625 382.5 235.625 382.5 237.5 382.5 239.375"></polygon>
            <polygon id="Path" fill="#FF0000" points="403.125 239.375 401.25 239.375 399.375 239.375 397.5 239.375 395.625 239.375 393.75 239.375 391.875 239.375 390 239.375 388.125 239.375 386.25 239.375 384.375 239.375 382.5 239.375 382.5 237.5 382.5 235.625 384.375 235.625 386.25 235.625 388.125 235.625 390 235.625 391.875 235.625 393.75 235.625 395.625 235.625 397.5 235.625 399.375 235.625 401.25 235.625 403.125 235.625 405 235.625 405 237.5 405 239.375"></polygon>
            <polygon id="Path" fill="#FF0000" points="425.625 239.375 423.75 239.375 421.875 239.375 420 239.375 418.125 239.375 416.25 239.375 414.375 239.375 412.5 239.375 410.625 239.375 408.75 239.375 406.875 239.375 405 239.375 405 237.5 405 235.625 406.875 235.625 408.75 235.625 410.625 235.625 412.5 235.625 414.375 235.625 416.25 235.625 418.125 235.625 420 235.625 421.875 235.625 423.75 235.625 425.625 235.625 427.5 235.625 427.5 237.5 427.5 239.375"></polygon>
            <polygon id="Path" fill="#FF0000" points="448.125 239.375 446.25 239.375 444.375 239.375 442.5 239.375 440.625 239.375 438.75 239.375 436.875 239.375 435 239.375 433.125 239.375 431.25 239.375 429.375 239.375 427.5 239.375 427.5 237.5 427.5 235.625 429.375 235.625 431.25 235.625 433.125 235.625 435 235.625 436.875 235.625 438.75 235.625 440.625 235.625 442.5 235.625 444.375 235.625 446.25 235.625 448.125 235.625 450 235.625 450 237.5 450 239.375"></polygon>
            <polygon id="Path" fill="#FF0000" points="470.625 239.375 468.75 239.375 466.875 239.375 465 239.375 463.125 239.375 461.25 239.375 459.375 239.375 457.5 239.375 455.625 239.375 453.75 239.375 451.875 239.375 450 239.375 450 237.5 450 235.625 451.875 235.625 453.75 235.625 455.625 235.625 457.5 235.625 459.375 235.625 461.25 235.625 463.125 235.625 465 235.625 466.875 235.625 468.75 235.625 470.625 235.625 472.5 235.625 472.5 237.5 472.5 239.375"></polygon>
            <polygon id="Path" fill="#FF0000" points="493.125 239.375 491.25 239.375 489.375 239.375 487.5 239.375 485.625 239.375 483.75 239.375 481.875 239.375 480 239.375 478.125 239.375 476.25 239.375 474.375 239.375 472.5 239.375 472.5 237.5 472.5 235.625 474.375 235.625 476.25 235.625 478.125 235.625 480 235.625 481.875 235.625 483.75 235.625 485.625 235.625 487.5 235.625 489.375 235.625 491.25 235.625 493.125 235.625 495 235.625 495 237.5 495 239.375"></polygon>
            <polygon id="Path" fill="#FF0000" points="515.625 239.375 513.75 239.375 511.875 239.375 510 239.375 508.125 239.375 506.25 239.375 504.375 239.375 502.5 239.375 500.625 239.375 498.75 239.375 496.875 239.375 495 239.375 495 237.5 495 235.625 496.875 235.625 498.75 235.625 500.625 235.625 502.5 235.625 504.375 235.625 506.25 235.625 508.125 235.625 510 235.625 511.875 235.625 513.75 235.625 515.625 235.625 517.5 235.625 517.5 237.5 517.5 239.375"></polygon>
            <polygon id="Path" fill="#FF0000" points="538.125 239.375 536.25 239.375 534.375 239.375 532.5 239.375 530.625 239.375 528.75 239.375 526.875 239.375 525 239.375 523.125 239.375 521.25 239.375 519.375 239.375 517.5 239.375 517.5 237.5 517.5 235.625 519.375 235.625 521.25 235.625 523.125 235.625 525 235.625 526.875 235.625 528.75 235.625 530.625 235.625 532.5 235.625 534.375 235.625 536.25 235.625 538.125 235.625 540 235.625 540 237.5 540 239.375"></polygon>
            <polygon id="Path" fill="#FF0000" points="560.625 239.375 558.75 239.375 556.875 239.375 555 239.375 553.125 239.375 551.25 239.375 549.375 239.375 547.5 239.375 545.625 239.375 543.75 239.375 541.875 239.375 540 239.375 540 237.5 540 235.625 541.875 235.625 543.75 235.625 545.625 235.625 547.5 235.625 549.375 235.625 551.25 235.625 553.125 235.625 555 235.625 556.875 235.625 558.75 235.625 560.625 235.625 562.5 235.625 562.5 237.5 562.5 239.375"></polygon>
            <polygon id="Path" fill="#FF0000" points="583.125 239.375 581.25 239.375 579.375 239.375 577.5 239.375 575.625 239.375 573.75 239.375 571.875 239.375 570 239.375 568.125 239.375 566.25 239.375 564.375 239.375 562.5 239.375 562.5 237.5 562.5 235.625 564.375 235.625 566.25 235.625 568.125 235.625 570 235.625 571.875 235.625 573.75 235.625 575.625 235.625 577.5 235.625 579.375 235.625 581.25 235.625 583.125 235.625 585 235.625 585 237.5 585 239.375"></polygon>
            <polygon id="Path" fill="#FF0000" points="605.625 239.375 603.75 239.375 601.875 239.375 600 239.375 598.125 239.375 596.25 239.375 594.375 239.375 592.5 239.375 590.625 239.375 588.75 239.375 586.875 239.375 585 239.375 585 237.5 585 235.625 586.875 235.625 588.75 235.625 590.625 235.625 592.5 235.625 594.375 235.625 596.25 235.625 598.125 235.625 600 235.625 601.875 235.625 603.75 235.625 605.625 235.625 607.5 235.625 607.5 237.5 607.5 239.375"></polygon>
            <polygon id="Path" fill="#FF0000" points="628.125 239.375 626.25 239.375 624.375 239.375 622.5 239.375 620.625 239.375 618.75 239.375 616.875 239.375 615 239.375 613.125 239.375 611.25 239.375 609.375 239.375 607.5 239.375 607.5 237.5 607.5 235.625 609.375 235.625 611.25 235.625 613.125 235.625 615 235.625 616.875 235.625 618.75 235.625 620.625 235.625 622.5 235.625 624.375 235.625 626.25 235.625 628.125 235.625 630 235.625 630 237.5 630 239.375"></polygon>
            <polygon id="Path" fill="#FF0000" points="650.625 239.375 648.75 239.375 646.875 239.375 645 239.375 643.125 239.375 641.25 239.375 639.375 239.375 637.5 239.375 635.625 239.375 633.75 239.375 631.875 239.375 630 239.375 630 237.5 630 235.625 631.875 235.625 633.75 235.625 635.625 235.625 637.5 235.625 639.375 235.625 641.25 235.625 643.125 235.625 645 235.625 646.875 235.625 648.75 235.625 650.625 235.625 652.5 235.625 652.5 237.5 652.5 239.375"></polygon>
            <polygon id="Path" fill="#03FF00" points="656.25 245 654.375 245 654.375 243.125 654.375 241.25 654.375 239.375 654.375 237.5 654.375 235.625 654.375 233.75 654.375 231.875 654.375 230 654.375 228.125 656.25 228.125 658.125 228.125 658.125 230 660 230 661.875 230 661.875 231.875 663.75 231.875 665.625 231.875 665.625 233.75 667.5 233.75 669.375 233.75 669.375 235.625 671.25 235.625 673.125 235.625 673.125 237.5 671.25 237.5 669.375 237.5 669.375 239.375 667.5 239.375 665.625 239.375 665.625 241.25 663.75 241.25 661.875 241.25 661.875 243.125 660 243.125 658.125 243.125 658.125 241.25 660 241.25 661.875 241.25 661.875 239.375 663.75 239.375 665.625 239.375 665.625 237.5 667.5 237.5 669.375 237.5 669.375 235.625 667.5 235.625 665.625 235.625 665.625 233.75 663.75 233.75 661.875 233.75 661.875 231.875 660 231.875 658.125 231.875 658.125 230 656.25 230 656.25 231.875 656.25 233.75 656.25 235.625 656.25 237.5 656.25 239.375 656.25 241.25 656.25 243.125 658.125 243.125 658.125 245"></polygon>
            <path d="M693.75,245 L691.875,245 L691.875,243.125 L690,243.125 L688.125,243.125 L688.125,241.25 L686.25,241.25 L684.375,241.25 L684.375,239.375 L682.5,239.375 L680.625,239.375 L680.625,237.5 L678.75,237.5 L676.875,237.5 L676.875,235.625 L678.75,235.625 L680.625,235.625 L680.625,233.75 L682.5,233.75 L684.375,233.75 L684.375,231.875 L686.25,231.875 L688.125,231.875 L688.125,230 L690,230 L691.875,230 L691.875,228.125 L693.75,228.125 L695.625,228.125 L695.625,230 L695.625,231.875 L695.625,233.75 L695.625,235.625 L695.625,237.5 L695.625,239.375 L695.625,241.25 L695.625,243.125 L695.625,245 L693.75,245 Z M693.75,243.125 L693.75,241.25 L693.75,239.375 L693.75,237.5 L693.75,235.625 L693.75,233.75 L693.75,231.875 L693.75,230 L691.875,230 L691.875,231.875 L690,231.875 L688.125,231.875 L688.125,233.75 L686.25,233.75 L684.375,233.75 L684.375,235.625 L682.5,235.625 L680.625,235.625 L680.625,237.5 L682.5,237.5 L684.375,237.5 L684.375,239.375 L686.25,239.375 L688.125,239.375 L688.125,241.25 L690,241.25 L691.875,241.25 L691.875,243.125 L693.75,243.125 Z" id="Shape" fill="#C0C0C0"></path>
            <polygon id="Path" fill="#03FF00" points="718.125 239.375 716.25 239.375 714.375 239.375 712.5 239.375 710.625 239.375 708.75 239.375 706.875 239.375 705 239.375 703.125 239.375 701.25 239.375 699.375 239.375 697.5 239.375 697.5 237.5 697.5 235.625 699.375 235.625 701.25 235.625 703.125 235.625 705 235.625 706.875 235.625 708.75 235.625 710.625 235.625 712.5 235.625 714.375 235.625 716.25 235.625 718.125 235.625 720 235.625 720 237.5 720 239.375"></polygon>
            <polygon id="Path" fill="#03FF00" points="740.625 239.375 738.75 239.375 736.875 239.375 735 239.375 733.125 239.375 731.25 239.375 729.375 239.375 727.5 239.375 725.625 239.375 723.75 239.375 721.875 239.375 720 239.375 720 237.5 720 235.625 721.875 235.625 723.75 235.625 725.625 235.625 727.5 235.625 729.375 235.625 731.25 235.625 733.125 235.625 735 235.625 736.875 235.625 738.75 235.625 740.625 235.625 742.5 235.625 742.5 237.5 742.5 239.375"></polygon>
            <polygon id="Path" fill="#03FF00" points="763.125 239.375 761.25 239.375 759.375 239.375 757.5 239.375 755.625 239.375 753.75 239.375 751.875 239.375 750 239.375 748.125 239.375 746.25 239.375 744.375 239.375 742.5 239.375 742.5 237.5 742.5 235.625 744.375 235.625 746.25 235.625 748.125 235.625 750 235.625 751.875 235.625 753.75 235.625 755.625 235.625 757.5 235.625 759.375 235.625 761.25 235.625 763.125 235.625 765 235.625 765 237.5 765 239.375"></polygon>
            <polygon id="Path" fill="#03FF00" points="785.625 239.375 783.75 239.375 781.875 239.375 780 239.375 778.125 239.375 776.25 239.375 774.375 239.375 772.5 239.375 770.625 239.375 768.75 239.375 766.875 239.375 765 239.375 765 237.5 765 235.625 766.875 235.625 768.75 235.625 770.625 235.625 772.5 235.625 774.375 235.625 776.25 235.625 778.125 235.625 780 235.625 781.875 235.625 783.75 235.625 785.625 235.625 787.5 235.625 787.5 237.5 787.5 239.375"></polygon>
            <polygon id="Path" fill="#03FF00" points="808.125 239.375 806.25 239.375 804.375 239.375 802.5 239.375 800.625 239.375 798.75 239.375 796.875 239.375 795 239.375 793.125 239.375 791.25 239.375 789.375 239.375 787.5 239.375 787.5 237.5 787.5 235.625 789.375 235.625 791.25 235.625 793.125 235.625 795 235.625 796.875 235.625 798.75 235.625 800.625 235.625 802.5 235.625 804.375 235.625 806.25 235.625 808.125 235.625 810 235.625 810 237.5 810 239.375"></polygon>
            <polygon id="Path" fill="#03FF00" points="830.625 239.375 828.75 239.375 826.875 239.375 825 239.375 823.125 239.375 821.25 239.375 819.375 239.375 817.5 239.375 815.625 239.375 813.75 239.375 811.875 239.375 810 239.375 810 237.5 810 235.625 811.875 235.625 813.75 235.625 815.625 235.625 817.5 235.625 819.375 235.625 821.25 235.625 823.125 235.625 825 235.625 826.875 235.625 828.75 235.625 830.625 235.625 832.5 235.625 832.5 237.5 832.5 239.375"></polygon>
            <polygon id="Path" fill="#03FF00" points="853.125 239.375 851.25 239.375 849.375 239.375 847.5 239.375 845.625 239.375 843.75 239.375 841.875 239.375 840 239.375 838.125 239.375 836.25 239.375 834.375 239.375 832.5 239.375 832.5 237.5 832.5 235.625 834.375 235.625 836.25 235.625 838.125 235.625 840 235.625 841.875 235.625 843.75 235.625 845.625 235.625 847.5 235.625 849.375 235.625 851.25 235.625 853.125 235.625 855 235.625 855 237.5 855 239.375"></polygon>
            <polygon id="Path" fill="#03FF00" points="875.625 239.375 873.75 239.375 871.875 239.375 870 239.375 868.125 239.375 866.25 239.375 864.375 239.375 862.5 239.375 860.625 239.375 858.75 239.375 856.875 239.375 855 239.375 855 237.5 855 235.625 856.875 235.625 858.75 235.625 860.625 235.625 862.5 235.625 864.375 235.625 866.25 235.625 868.125 235.625 870 235.625 871.875 235.625 873.75 235.625 875.625 235.625 877.5 235.625 877.5 237.5 877.5 239.375"></polygon>
            <polygon id="Path" fill="#03FF00" points="881.25 245 879.375 245 879.375 243.125 879.375 241.25 879.375 239.375 879.375 237.5 879.375 235.625 879.375 233.75 879.375 231.875 879.375 230 879.375 228.125 881.25 228.125 883.125 228.125 883.125 230 885 230 886.875 230 886.875 231.875 888.75 231.875 890.625 231.875 890.625 233.75 892.5 233.75 894.375 233.75 894.375 235.625 896.25 235.625 898.125 235.625 898.125 237.5 896.25 237.5 894.375 237.5 894.375 239.375 892.5 239.375 890.625 239.375 890.625 241.25 888.75 241.25 886.875 241.25 886.875 243.125 885 243.125 883.125 243.125 883.125 241.25 885 241.25 886.875 241.25 886.875 239.375 888.75 239.375 890.625 239.375 890.625 237.5 892.5 237.5 894.375 237.5 894.375 235.625 892.5 235.625 890.625 235.625 890.625 233.75 888.75 233.75 886.875 233.75 886.875 231.875 885 231.875 883.125 231.875 883.125 230 881.25 230 881.25 231.875 881.25 233.75 881.25 235.625 881.25 237.5 881.25 239.375 881.25 241.25 881.25 243.125 883.125 243.125 883.125 245"></polygon>
            <polygon id="Path" fill="#03FF00" points="920.625 239.375 918.75 239.375 916.875 239.375 915 239.375 913.125 239.375 911.25 239.375 909.375 239.375 907.5 239.375 905.625 239.375 903.75 239.375 901.875 239.375 900 239.375 900 237.5 900 235.625 901.875 235.625 903.75 235.625 905.625 235.625 907.5 235.625 909.375 235.625 911.25 235.625 913.125 235.625 915 235.625 916.875 235.625 918.75 235.625 920.625 235.625 922.5 235.625 922.5 237.5 922.5 239.375"></polygon>
            <polygon id="Path" fill="#03FF00" points="943.125 239.375 941.25 239.375 939.375 239.375 937.5 239.375 935.625 239.375 933.75 239.375 931.875 239.375 930 239.375 928.125 239.375 926.25 239.375 924.375 239.375 922.5 239.375 922.5 237.5 922.5 235.625 924.375 235.625 926.25 235.625 928.125 235.625 930 235.625 931.875 235.625 933.75 235.625 935.625 235.625 937.5 235.625 939.375 235.625 941.25 235.625 943.125 235.625 945 235.625 945 237.5 945 239.375"></polygon>
            <polygon id="Path" fill="#03FF00" points="965.625 239.375 963.75 239.375 961.875 239.375 960 239.375 958.125 239.375 956.25 239.375 954.375 239.375 952.5 239.375 950.625 239.375 948.75 239.375 946.875 239.375 945 239.375 945 237.5 945 235.625 946.875 235.625 948.75 235.625 950.625 235.625 952.5 235.625 954.375 235.625 956.25 235.625 958.125 235.625 960 235.625 961.875 235.625 963.75 235.625 965.625 235.625 967.5 235.625 967.5 237.5 967.5 239.375"></polygon>
            <polygon id="Path" fill="#03FF00" points="988.125 239.375 986.25 239.375 984.375 239.375 982.5 239.375 980.625 239.375 978.75 239.375 976.875 239.375 975 239.375 973.125 239.375 971.25 239.375 969.375 239.375 967.5 239.375 967.5 237.5 967.5 235.625 969.375 235.625 971.25 235.625 973.125 235.625 975 235.625 976.875 235.625 978.75 235.625 980.625 235.625 982.5 235.625 984.375 235.625 986.25 235.625 988.125 235.625 990 235.625 990 237.5 990 239.375"></polygon>
            <polygon id="Path" fill="#03FF00" points="1010.625 239.375 1008.75 239.375 1006.875 239.375 1005 239.375 1003.125 239.375 1001.25 239.375 999.375 239.375 997.5 239.375 995.625 239.375 993.75 239.375 991.875 239.375 990 239.375 990 237.5 990 235.625 991.875 235.625 993.75 235.625 995.625 235.625 997.5 235.625 999.375 235.625 1001.25 235.625 1003.125 235.625 1005 235.625 1006.875 235.625 1008.75 235.625 1010.625 235.625 1012.5 235.625 1012.5 237.5 1012.5 239.375"></polygon>
            <path d="M1021.875,239.375 L1020,239.375 L1018.125,239.375 L1016.25,239.375 L1014.375,239.375 L1012.5,239.375 L1012.5,237.5 L1012.5,235.625 L1014.375,235.625 L1016.25,235.625 L1018.125,235.625 L1020,235.625 L1021.875,235.625 L1023.75,235.625 L1025.625,235.625 L1025.625,237.5 L1023.75,237.5 L1023.75,239.375 L1021.875,239.375 Z M1025.625,235.625 L1025.625,233.75 L1027.5,233.75 L1027.5,235.625 L1025.625,235.625 Z M1027.5,233.75 L1027.5,231.875 L1029.375,231.875 L1029.375,233.75 L1027.5,233.75 Z M1029.375,231.875 L1029.375,230 L1031.25,230 L1031.25,231.875 L1029.375,231.875 Z M1031.25,230 L1031.25,228.125 L1033.125,228.125 L1033.125,230 L1031.25,230 Z M1033.125,228.125 L1033.125,226.25 L1035,226.25 L1035,228.125 L1033.125,228.125 Z" id="Shape" fill="#03FF00"></path>
            <polygon id="Path" fill="#C0C0C0" points="1055.625 239.375 1053.75 239.375 1051.875 239.375 1050 239.375 1048.125 239.375 1046.25 239.375 1044.375 239.375 1042.5 239.375 1040.625 239.375 1038.75 239.375 1036.875 239.375 1035 239.375 1035 237.5 1035 235.625 1036.875 235.625 1038.75 235.625 1040.625 235.625 1042.5 235.625 1044.375 235.625 1046.25 235.625 1048.125 235.625 1050 235.625 1051.875 235.625 1053.75 235.625 1055.625 235.625 1057.5 235.625 1057.5 237.5 1057.5 239.375"></polygon>
            <polygon id="Path" fill="#C0C0C0" points="1078.125 239.375 1076.25 239.375 1074.375 239.375 1072.5 239.375 1070.625 239.375 1068.75 239.375 1066.875 239.375 1065 239.375 1063.125 239.375 1061.25 239.375 1059.375 239.375 1057.5 239.375 1057.5 237.5 1057.5 235.625 1059.375 235.625 1061.25 235.625 1063.125 235.625 1065 235.625 1066.875 235.625 1068.75 235.625 1070.625 235.625 1072.5 235.625 1074.375 235.625 1076.25 235.625 1078.125 235.625 1080 235.625 1080 237.5 1080 239.375"></polygon>
            <polygon id="Path" fill="#C0C0C0" points="1100.625 239.375 1098.75 239.375 1096.875 239.375 1095 239.375 1093.125 239.375 1091.25 239.375 1089.375 239.375 1087.5 239.375 1085.625 239.375 1083.75 239.375 1081.875 239.375 1080 239.375 1080 237.5 1080 235.625 1081.875 235.625 1083.75 235.625 1085.625 235.625 1087.5 235.625 1089.375 235.625 1091.25 235.625 1093.125 235.625 1095 235.625 1096.875 235.625 1098.75 235.625 1100.625 235.625 1102.5 235.625 1102.5 237.5 1102.5 239.375"></polygon>
            <polygon id="Path" fill="#C0C0C0" points="1123.125 239.375 1121.25 239.375 1119.375 239.375 1117.5 239.375 1115.625 239.375 1113.75 239.375 1111.875 239.375 1110 239.375 1108.125 239.375 1106.25 239.375 1104.375 239.375 1102.5 239.375 1102.5 237.5 1102.5 235.625 1104.375 235.625 1106.25 235.625 1108.125 235.625 1110 235.625 1111.875 235.625 1113.75 235.625 1115.625 235.625 1117.5 235.625 1119.375 235.625 1121.25 235.625 1123.125 235.625 1125 235.625 1125 237.5 1125 239.375"></polygon>
            <polygon id="Path" fill="#C0C0C0" points="1145.625 239.375 1143.75 239.375 1141.875 239.375 1140 239.375 1138.125 239.375 1136.25 239.375 1134.375 239.375 1132.5 239.375 1130.625 239.375 1128.75 239.375 1126.875 239.375 1125 239.375 1125 237.5 1125 235.625 1126.875 235.625 1128.75 235.625 1130.625 235.625 1132.5 235.625 1134.375 235.625 1136.25 235.625 1138.125 235.625 1140 235.625 1141.875 235.625 1143.75 235.625 1145.625 235.625 1147.5 235.625 1147.5 237.5 1147.5 239.375"></polygon>
            <polygon id="Path" fill="#C0C0C0" points="1168.125 239.375 1166.25 239.375 1164.375 239.375 1162.5 239.375 1160.625 239.375 1158.75 239.375 1156.875 239.375 1155 239.375 1153.125 239.375 1151.25 239.375 1149.375 239.375 1147.5 239.375 1147.5 237.5 1147.5 235.625 1149.375 235.625 1151.25 235.625 1153.125 235.625 1155 235.625 1156.875 235.625 1158.75 235.625 1160.625 235.625 1162.5 235.625 1164.375 235.625 1166.25 235.625 1168.125 235.625 1170 235.625 1170 237.5 1170 239.375"></polygon>
            <polygon id="Path" fill="#C0C0C0" points="1190.625 239.375 1188.75 239.375 1186.875 239.375 1185 239.375 1183.125 239.375 1181.25 239.375 1179.375 239.375 1177.5 239.375 1175.625 239.375 1173.75 239.375 1171.875 239.375 1170 239.375 1170 237.5 1170 235.625 1171.875 235.625 1173.75 235.625 1175.625 235.625 1177.5 235.625 1179.375 235.625 1181.25 235.625 1183.125 235.625 1185 235.625 1186.875 235.625 1188.75 235.625 1190.625 235.625 1192.5 235.625 1192.5 237.5 1192.5 239.375"></polygon>
            <polygon id="Path" fill="#C0C0C0" points="1213.125 239.375 1211.25 239.375 1209.375 239.375 1207.5 239.375 1205.625 239.375 1203.75 239.375 1201.875 239.375 1200 239.375 1198.125 239.375 1196.25 239.375 1194.375 239.375 1192.5 239.375 1192.5 237.5 1192.5 235.625 1194.375 235.625 1196.25 235.625 1198.125 235.625 1200 235.625 1201.875 235.625 1203.75 235.625 1205.625 235.625 1207.5 235.625 1209.375 235.625 1211.25 235.625 1213.125 235.625 1215 235.625 1215 237.5 1215 239.375"></polygon>
            <polygon id="Path" fill="#C0C0C0" points="1235.625 239.375 1233.75 239.375 1231.875 239.375 1230 239.375 1228.125 239.375 1226.25 239.375 1224.375 239.375 1222.5 239.375 1220.625 239.375 1218.75 239.375 1216.875 239.375 1215 239.375 1215 237.5 1215 235.625 1216.875 235.625 1218.75 235.625 1220.625 235.625 1222.5 235.625 1224.375 235.625 1226.25 235.625 1228.125 235.625 1230 235.625 1231.875 235.625 1233.75 235.625 1235.625 235.625 1237.5 235.625 1237.5 237.5 1237.5 239.375"></polygon>
            <polygon id="Path" fill="#C0C0C0" points="1258.125 239.375 1256.25 239.375 1254.375 239.375 1252.5 239.375 1250.625 239.375 1248.75 239.375 1246.875 239.375 1245 239.375 1243.125 239.375 1241.25 239.375 1239.375 239.375 1237.5 239.375 1237.5 237.5 1237.5 235.625 1239.375 235.625 1241.25 235.625 1243.125 235.625 1245 235.625 1246.875 235.625 1248.75 235.625 1250.625 235.625 1252.5 235.625 1254.375 235.625 1256.25 235.625 1258.125 235.625 1260 235.625 1260 237.5 1260 239.375"></polygon>
            <polygon id="Path" fill="#C0C0C0" points="1280.625 239.375 1278.75 239.375 1276.875 239.375 1275 239.375 1273.125 239.375 1271.25 239.375 1269.375 239.375 1267.5 239.375 1265.625 239.375 1263.75 239.375 1261.875 239.375 1260 239.375 1260 237.5 1260 235.625 1261.875 235.625 1263.75 235.625 1265.625 235.625 1267.5 235.625 1269.375 235.625 1271.25 235.625 1273.125 235.625 1275 235.625 1276.875 235.625 1278.75 235.625 1280.625 235.625 1282.5 235.625 1282.5 237.5 1282.5 239.375"></polygon>
            <polygon id="Path" fill="#C0C0C0" points="1303.125 239.375 1301.25 239.375 1299.375 239.375 1297.5 239.375 1295.625 239.375 1293.75 239.375 1291.875 239.375 1290 239.375 1288.125 239.375 1286.25 239.375 1284.375 239.375 1282.5 239.375 1282.5 237.5 1282.5 235.625 1284.375 235.625 1286.25 235.625 1288.125 235.625 1290 235.625 1291.875 235.625 1293.75 235.625 1295.625 235.625 1297.5 235.625 1299.375 235.625 1301.25 235.625 1303.125 235.625 1305 235.625 1305 237.5 1305 239.375"></polygon>
            <polygon id="Path" fill="#C0C0C0" points="1325.625 239.375 1323.75 239.375 1321.875 239.375 1320 239.375 1318.125 239.375 1316.25 239.375 1314.375 239.375 1312.5 239.375 1310.625 239.375 1308.75 239.375 1306.875 239.375 1305 239.375 1305 237.5 1305 235.625 1306.875 235.625 1308.75 235.625 1310.625 235.625 1312.5 235.625 1314.375 235.625 1316.25 235.625 1318.125 235.625 1320 235.625 1321.875 235.625 1323.75 235.625 1325.625 235.625 1327.5 235.625 1327.5 237.5 1327.5 239.375"></polygon>
            <polygon id="Path" fill="#C0C0C0" points="1331.25 245 1329.375 245 1329.375 243.125 1329.375 241.25 1329.375 239.375 1329.375 237.5 1329.375 235.625 1329.375 233.75 1329.375 231.875 1329.375 230 1329.375 228.125 1331.25 228.125 1333.125 228.125 1333.125 230 1335 230 1336.875 230 1336.875 231.875 1338.75 231.875 1340.625 231.875 1340.625 233.75 1342.5 233.75 1344.375 233.75 1344.375 235.625 1346.25 235.625 1348.125 235.625 1348.125 237.5 1346.25 237.5 1344.375 237.5 1344.375 239.375 1342.5 239.375 1340.625 239.375 1340.625 241.25 1338.75 241.25 1336.875 241.25 1336.875 243.125 1335 243.125 1333.125 243.125 1333.125 241.25 1335 241.25 1336.875 241.25 1336.875 239.375 1338.75 239.375 1340.625 239.375 1340.625 237.5 1342.5 237.5 1344.375 237.5 1344.375 235.625 1342.5 235.625 1340.625 235.625 1340.625 233.75 1338.75 233.75 1336.875 233.75 1336.875 231.875 1335 231.875 1333.125 231.875 1333.125 230 1331.25 230 1331.25 231.875 1331.25 233.75 1331.25 235.625 1331.25 237.5 1331.25 239.375 1331.25 241.25 1331.25 243.125 1333.125 243.125 1333.125 245"></polygon>
            <polygon id="Path" fill="#FF0000" points="1370.625 239.375 1368.75 239.375 1366.875 239.375 1365 239.375 1363.125 239.375 1361.25 239.375 1359.375 239.375 1357.5 239.375 1355.625 239.375 1353.75 239.375 1351.875 239.375 1350 239.375 1350 237.5 1350 235.625 1351.875 235.625 1353.75 235.625 1355.625 235.625 1357.5 235.625 1359.375 235.625 1361.25 235.625 1363.125 235.625 1365 235.625 1366.875 235.625 1368.75 235.625 1370.625 235.625 1372.5 235.625 1372.5 237.5 1372.5 239.375"></polygon>
            <polygon id="Path" fill="#FF0000" points="1393.125 239.375 1391.25 239.375 1389.375 239.375 1387.5 239.375 1385.625 239.375 1383.75 239.375 1381.875 239.375 1380 239.375 1378.125 239.375 1376.25 239.375 1374.375 239.375 1372.5 239.375 1372.5 237.5 1372.5 235.625 1374.375 235.625 1376.25 235.625 1378.125 235.625 1380 235.625 1381.875 235.625 1383.75 235.625 1385.625 235.625 1387.5 235.625 1389.375 235.625 1391.25 235.625 1393.125 235.625 1395 235.625 1395 237.5 1395 239.375"></polygon>
            <polygon id="Path" fill="#FF0000" points="1415.625 239.375 1413.75 239.375 1411.875 239.375 1410 239.375 1408.125 239.375 1406.25 239.375 1404.375 239.375 1402.5 239.375 1400.625 239.375 1398.75 239.375 1396.875 239.375 1395 239.375 1395 237.5 1395 235.625 1396.875 235.625 1398.75 235.625 1400.625 235.625 1402.5 235.625 1404.375 235.625 1406.25 235.625 1408.125 235.625 1410 235.625 1411.875 235.625 1413.75 235.625 1415.625 235.625 1417.5 235.625 1417.5 237.5 1417.5 239.375"></polygon>
            <polygon id="Path" fill="#FF0000" points="1438.125 239.375 1436.25 239.375 1434.375 239.375 1432.5 239.375 1430.625 239.375 1428.75 239.375 1426.875 239.375 1425 239.375 1423.125 239.375 1421.25 239.375 1419.375 239.375 1417.5 239.375 1417.5 237.5 1417.5 235.625 1419.375 235.625 1421.25 235.625 1423.125 235.625 1425 235.625 1426.875 235.625 1428.75 235.625 1430.625 235.625 1432.5 235.625 1434.375 235.625 1436.25 235.625 1438.125 235.625 1440 235.625 1440 237.5 1440 239.375"></polygon>
            <polygon id="Path" fill="#FF0000" points="1460.625 239.375 1458.75 239.375 1456.875 239.375 1455 239.375 1453.125 239.375 1451.25 239.375 1449.375 239.375 1447.5 239.375 1445.625 239.375 1443.75 239.375 1441.875 239.375 1440 239.375 1440 237.5 1440 235.625 1441.875 235.625 1443.75 235.625 1445.625 235.625 1447.5 235.625 1449.375 235.625 1451.25 235.625 1453.125 235.625 1455 235.625 1456.875 235.625 1458.75 235.625 1460.625 235.625 1462.5 235.625 1462.5 237.5 1462.5 239.375"></polygon>
            <polygon id="Path" fill="#FF0000" points="1483.125 239.375 1481.25 239.375 1479.375 239.375 1477.5 239.375 1475.625 239.375 1473.75 239.375 1471.875 239.375 1470 239.375 1468.125 239.375 1466.25 239.375 1464.375 239.375 1462.5 239.375 1462.5 237.5 1462.5 235.625 1464.375 235.625 1466.25 235.625 1468.125 235.625 1470 235.625 1471.875 235.625 1473.75 235.625 1475.625 235.625 1477.5 235.625 1479.375 235.625 1481.25 235.625 1483.125 235.625 1485 235.625 1485 237.5 1485 239.375"></polygon>
            <polygon id="Path" fill="#FF0000" points="1505.625 239.375 1503.75 239.375 1501.875 239.375 1500 239.375 1498.125 239.375 1496.25 239.375 1494.375 239.375 1492.5 239.375 1490.625 239.375 1488.75 239.375 1486.875 239.375 1485 239.375 1485 237.5 1485 235.625 1486.875 235.625 1488.75 235.625 1490.625 235.625 1492.5 235.625 1494.375 235.625 1496.25 235.625 1498.125 235.625 1500 235.625 1501.875 235.625 1503.75 235.625 1505.625 235.625 1507.5 235.625 1507.5 237.5 1507.5 239.375"></polygon>
            <polygon id="Path" fill="#FF0000" points="1528.125 239.375 1526.25 239.375 1524.375 239.375 1522.5 239.375 1520.625 239.375 1518.75 239.375 1516.875 239.375 1515 239.375 1513.125 239.375 1511.25 239.375 1509.375 239.375 1507.5 239.375 1507.5 237.5 1507.5 235.625 1509.375 235.625 1511.25 235.625 1513.125 235.625 1515 235.625 1516.875 235.625 1518.75 235.625 1520.625 235.625 1522.5 235.625 1524.375 235.625 1526.25 235.625 1528.125 235.625 1530 235.625 1530 237.5 1530 239.375"></polygon>
            <polygon id="Path" fill="#FF0000" points="1550.625 239.375 1548.75 239.375 1546.875 239.375 1545 239.375 1543.125 239.375 1541.25 239.375 1539.375 239.375 1537.5 239.375 1535.625 239.375 1533.75 239.375 1531.875 239.375 1530 239.375 1530 237.5 1530 235.625 1531.875 235.625 1533.75 235.625 1535.625 235.625 1537.5 235.625 1539.375 235.625 1541.25 235.625 1543.125 235.625 1545 235.625 1546.875 235.625 1548.75 235.625 1550.625 235.625 1552.5 235.625 1552.5 237.5 1552.5 239.375"></polygon>
            <polygon id="Path" fill="#FF0000" points="1573.125 239.375 1571.25 239.375 1569.375 239.375 1567.5 239.375 1565.625 239.375 1563.75 239.375 1561.875 239.375 1560 239.375 1558.125 239.375 1556.25 239.375 1554.375 239.375 1552.5 239.375 1552.5 237.5 1552.5 235.625 1554.375 235.625 1556.25 235.625 1558.125 235.625 1560 235.625 1561.875 235.625 1563.75 235.625 1565.625 235.625 1567.5 235.625 1569.375 235.625 1571.25 235.625 1573.125 235.625 1575 235.625 1575 237.5 1575 239.375"></polygon>
            <polygon id="Path" fill="#FF0000" points="1595.625 239.375 1593.75 239.375 1591.875 239.375 1590 239.375 1588.125 239.375 1586.25 239.375 1584.375 239.375 1582.5 239.375 1580.625 239.375 1578.75 239.375 1576.875 239.375 1575 239.375 1575 237.5 1575 235.625 1576.875 235.625 1578.75 235.625 1580.625 235.625 1582.5 235.625 1584.375 235.625 1586.25 235.625 1588.125 235.625 1590 235.625 1591.875 235.625 1593.75 235.625 1595.625 235.625 1597.5 235.625 1597.5 237.5 1597.5 239.375"></polygon>
            <polygon id="Path" fill="#FF0000" points="1618.125 239.375 1616.25 239.375 1614.375 239.375 1612.5 239.375 1610.625 239.375 1608.75 239.375 1606.875 239.375 1605 239.375 1603.125 239.375 1601.25 239.375 1599.375 239.375 1597.5 239.375 1597.5 237.5 1597.5 235.625 1599.375 235.625 1601.25 235.625 1603.125 235.625 1605 235.625 1606.875 235.625 1608.75 235.625 1610.625 235.625 1612.5 235.625 1614.375 235.625 1616.25 235.625 1618.125 235.625 1620 235.625 1620 237.5 1620 239.375"></polygon>
            <polygon id="Path" fill="#FF0000" points="1640.625 239.375 1638.75 239.375 1636.875 239.375 1635 239.375 1633.125 239.375 1631.25 239.375 1629.375 239.375 1627.5 239.375 1625.625 239.375 1623.75 239.375 1621.875 239.375 1620 239.375 1620 237.5 1620 235.625 1621.875 235.625 1623.75 235.625 1625.625 235.625 1627.5 235.625 1629.375 235.625 1631.25 235.625 1633.125 235.625 1635 235.625 1636.875 235.625 1638.75 235.625 1640.625 235.625 1642.5 235.625 1642.5 237.5 1642.5 239.375"></polygon>
            <polygon id="Path" fill="#FF0000" points="1663.125 239.375 1661.25 239.375 1659.375 239.375 1657.5 239.375 1655.625 239.375 1653.75 239.375 1651.875 239.375 1650 239.375 1648.125 239.375 1646.25 239.375 1644.375 239.375 1642.5 239.375 1642.5 237.5 1642.5 235.625 1644.375 235.625 1646.25 235.625 1648.125 235.625 1650 235.625 1651.875 235.625 1653.75 235.625 1655.625 235.625 1657.5 235.625 1659.375 235.625 1661.25 235.625 1663.125 235.625 1665 235.625 1665 237.5 1665 239.375"></polygon>
            <polygon id="Path" fill="#FF0000" points="1685.625 239.375 1683.75 239.375 1681.875 239.375 1680 239.375 1678.125 239.375 1676.25 239.375 1674.375 239.375 1672.5 239.375 1670.625 239.375 1668.75 239.375 1666.875 239.375 1665 239.375 1665 237.5 1665 235.625 1666.875 235.625 1668.75 235.625 1670.625 235.625 1672.5 235.625 1674.375 235.625 1676.25 235.625 1678.125 235.625 1680 235.625 1681.875 235.625 1683.75 235.625 1685.625 235.625 1687.5 235.625 1687.5 237.5 1687.5 239.375"></polygon>
            <polygon id="Path" fill="#FF0000" points="1708.125 239.375 1706.25 239.375 1704.375 239.375 1702.5 239.375 1700.625 239.375 1698.75 239.375 1696.875 239.375 1695 239.375 1693.125 239.375 1691.25 239.375 1689.375 239.375 1687.5 239.375 1687.5 237.5 1687.5 235.625 1689.375 235.625 1691.25 235.625 1693.125 235.625 1695 235.625 1696.875 235.625 1698.75 235.625 1700.625 235.625 1702.5 235.625 1704.375 235.625 1706.25 235.625 1708.125 235.625 1710 235.625 1710 237.5 1710 239.375"></polygon>
            <polygon id="Path" fill="#FF0000" points="1730.625 239.375 1728.75 239.375 1726.875 239.375 1725 239.375 1723.125 239.375 1721.25 239.375 1719.375 239.375 1717.5 239.375 1715.625 239.375 1713.75 239.375 1711.875 239.375 1710 239.375 1710 237.5 1710 235.625 1711.875 235.625 1713.75 235.625 1715.625 235.625 1717.5 235.625 1719.375 235.625 1721.25 235.625 1723.125 235.625 1725 235.625 1726.875 235.625 1728.75 235.625 1730.625 235.625 1732.5 235.625 1732.5 237.5 1732.5 239.375"></polygon>
        </g>
    </g>
</svg>